<svg width="532" height="532" viewBox="0 0 532 532" fill="none" xmlns="http://www.w3.org/2000/svg">
<rect width="532" height="532" fill="#424242"/>
<path d="M516 44.2876V281.834C516 289.599 512.763 297.046 507.001 302.539C501.239 308.031 493.423 311.118 485.273 311.121H46.7273C38.5766 311.118 30.7611 308.031 24.999 302.539C19.2369 297.046 16 289.599 16 281.834V44.2876C16 43.5884 16 42.9683 16.0969 42.2296C16.6368 34.84 20.0981 27.9206 25.7828 22.8671C31.4674 17.8136 38.9523 15.0022 46.7273 15H485.273C493.057 15.0031 500.549 17.8218 506.235 22.8864C511.921 27.9509 515.377 34.8834 515.903 42.2823C515.972 42.9156 516 43.6016 516 44.2876Z" fill="#212121" stroke="#333333" stroke-width="3" stroke-linecap="round" stroke-linejoin="round"/>
<path d="M515.903 42.2823H16.0967C16.6365 34.8928 20.0979 27.9733 25.7825 22.9198C31.4672 17.8663 38.952 15.0549 46.727 15.0528H485.272C493.047 15.0549 500.532 17.8663 506.217 22.9198C511.902 27.9733 515.363 34.8928 515.903 42.2823Z" fill="#10B9AA" stroke="#333333" stroke-width="3" stroke-miterlimit="10"/>
<path d="M77.5095 28.6148C77.5095 29.6402 77.1903 30.6426 76.5924 31.4952C75.9944 32.3479 75.1445 33.0124 74.1501 33.4048C73.1557 33.7972 72.0615 33.8999 71.0058 33.6999C69.9502 33.4998 68.9805 33.006 68.2194 32.2809C67.4583 31.5558 66.94 30.632 66.7301 29.6263C66.5201 28.6205 66.6278 27.5781 67.0397 26.6307C67.4516 25.6833 68.1491 24.8736 69.0441 24.3039C69.939 23.7342 70.9912 23.4301 72.0675 23.4301C73.5108 23.4301 74.895 23.9763 75.9156 24.9486C76.9362 25.921 77.5095 27.2397 77.5095 28.6148Z" fill="#333333"/>
<path d="M100.524 28.6148C100.524 29.6402 100.205 30.6426 99.607 31.4952C99.009 32.3479 98.1591 33.0124 97.1647 33.4048C96.1703 33.7972 95.0761 33.8999 94.0205 33.6999C92.9648 33.4998 91.9951 33.006 91.2341 32.2809C90.473 31.5558 89.9547 30.632 89.7447 29.6263C89.5347 28.6205 89.6425 27.5781 90.0544 26.6307C90.4663 25.6833 91.1638 24.8736 92.0587 24.3039C92.9537 23.7342 94.0058 23.4301 95.0821 23.4301C96.5255 23.4301 97.9096 23.9763 98.9302 24.9486C99.9508 25.921 100.524 27.2397 100.524 28.6148Z" fill="#333333"/>
<path d="M118.097 33.7995C121.102 33.7995 123.539 31.4782 123.539 28.6148C123.539 25.7514 121.102 23.4301 118.097 23.4301C115.091 23.4301 112.655 25.7514 112.655 28.6148C112.655 31.4782 115.091 33.7995 118.097 33.7995Z" fill="#333333"/>
<path d="M244.121 475.655C244.121 475.655 194.539 489.491 187.615 491.889C181.323 494.053 164.26 499.88 151.454 498.066C150.218 497.892 148.995 497.637 147.795 497.3C134.819 493.537 128.988 490.024 127.279 482.082C125.569 474.14 132.032 468.279 138.255 464.533C144.479 460.787 178.228 456.874 178.228 456.874L186.384 459.205L244.121 475.655Z" fill="#10B9AA"/>
<path d="M151.454 498.066C150.218 497.892 148.995 497.637 147.795 497.3C134.819 493.537 128.988 490.024 127.279 482.082C125.569 474.14 132.032 468.279 138.255 464.533C144.479 460.787 178.228 456.874 178.228 456.874L186.384 459.205C178.998 462.535 151.505 464.35 145.504 467.713C139.503 471.076 136.614 477.403 140.153 486.028C142.051 490.523 147.111 494.935 151.454 498.066Z" fill="#D8D8D8"/>
<path d="M236.667 477.62C236.667 477.62 199.429 487.01 184.657 493.021C169.885 499.031 141.726 501.662 131.656 489.274C121.586 476.887 130.493 466.198 140.529 463.817C150.565 461.436 170.86 457.69 181.939 459.205" stroke="#333333" stroke-width="1.10311" stroke-linecap="round" stroke-linejoin="round"/>
<path d="M152.189 497.416C152.189 497.416 133.245 487.293 139.537 473.108C144.188 462.652 169.457 464.916 181.972 459.205" stroke="#333333" stroke-width="1.10311" stroke-linecap="round" stroke-linejoin="round"/>
<path d="M395.14 500.313C394.627 505.308 392.831 509.987 387.702 512.934C384.283 514.898 379.427 516.064 372.469 515.997C355.081 515.781 322.391 503.677 322.391 503.677L291.787 487.193L307.705 462.668L312.064 456.009L323.314 458.473C323.314 458.473 332.632 463.617 342.002 467.713C351.371 471.809 374.127 472.708 382.146 478.985C390.164 485.262 396.012 492.088 395.14 500.313Z" fill="#10B9AA"/>
<path d="M395.14 500.313C394.627 505.308 392.831 509.987 387.702 512.934C389.18 508.024 388.878 502.768 386.847 498.049C383.428 490.573 372.298 483.98 357.663 482.881C343.027 481.782 331.829 475.122 325.964 472.142C321.382 469.828 311.722 464.766 307.705 462.668L312.064 456.009L323.314 458.473C323.314 458.473 332.632 463.617 342.002 467.713C351.371 471.809 374.127 472.708 382.146 478.985C390.164 485.262 396.012 492.088 395.14 500.313Z" fill="#D8D8D8"/>
<path d="M298.576 491.822C320.605 504.292 344.952 512.39 370.213 515.648C375.786 516.297 382.266 516.397 385.993 512.318C386.985 511.14 387.723 509.779 388.164 508.318C388.604 506.856 388.738 505.323 388.558 503.81C387.891 496.151 381.275 490.09 374.025 487.044C366.776 483.997 358.792 483.297 351.081 481.616C343.412 479.932 335.999 477.291 329.026 473.757C323.486 470.943 318.135 467.53 312.031 466.265C305.927 464.999 298.661 466.531 295.396 471.726" stroke="#333333" stroke-width="1.10311" stroke-linecap="round" stroke-linejoin="round"/>
<path d="M383.941 514.399C386.806 513.063 389.31 511.094 391.255 508.648C393.199 506.203 394.53 503.349 395.14 500.313C396.251 493.104 392.028 485.845 386.096 481.416C380.163 476.987 372.726 474.889 365.391 473.407C358.056 471.926 350.551 470.927 343.524 468.213C332.804 464.117 322.221 456.058 311.039 458.939" stroke="#333333" stroke-width="1.10311" stroke-linecap="round" stroke-linejoin="round"/>
<path d="M333.112 233.885L281.324 214.705L280.675 214.455C280.675 214.455 280.863 213.123 281.016 211.125C281.341 207.096 281.512 200.536 279.563 198.321C276.674 194.991 268.501 197.789 260.517 194.226C252.533 190.663 237.778 197.039 237.778 197.039C237.778 197.039 227.109 195.125 222.39 202.617C219.997 208.661 220.817 217.602 220.817 217.602L219.843 217.935C213.671 220.182 180.092 232.487 172.997 237.432C165.149 242.843 156.464 298.403 153.677 314.719C150.89 331.036 145.932 345.738 148.445 351.349C150.958 356.959 187.033 384.015 207.789 390.991C228.545 397.968 302.149 395.986 302.149 395.986C302.149 395.986 303.345 395.67 305.483 395.004C317.929 391.108 362.091 375.024 385.532 337.263C385.566 337.33 362.861 264.854 333.112 233.885ZM193.188 327.34C189.376 329.97 191.479 340.16 191.479 340.16L184.999 334.599L201.275 295.622L208.217 325.591C208.217 325.591 197.001 324.726 193.188 327.34ZM323.4 352.098C321.605 352.997 328.53 334.266 325.247 330.02C321.964 325.775 312.065 326.174 312.065 326.174L312.903 321.063L318.767 291.759L320.716 289.512C320.716 289.512 340.857 323.127 344.464 334.982C344.464 335.015 322.511 352.098 323.4 352.098Z" fill="#10B9AA"/>
<path d="M235.333 112.326L208.593 139.964C208.593 139.964 204.917 143.144 206.37 151.153C207.824 159.161 211.243 166.138 213.825 166.604C215.868 166.952 217.939 167.13 220.014 167.137C220.014 167.137 225.741 179.224 229.81 183.969C229.81 183.969 231.212 202.634 230.46 207.812C230.46 207.812 240.069 215.987 249.113 217.019C258.158 218.051 272.126 204.565 272.126 204.565L275.545 188.049C275.545 188.049 283.752 175.928 284.299 172.698C284.846 169.468 288.608 170.3 290.454 168.702C292.301 167.103 296.558 159.994 297.293 153.267C298.028 146.541 298.045 138.816 290.027 141.08C283.068 139.265 287.428 124.946 287.428 124.946L275.204 114.457L235.333 112.326Z" fill="#F8F8F8"/>
<path opacity="0.5" d="M281.325 214.705C280.921 215.734 280.459 216.74 279.94 217.718C275.529 225.81 256.312 241.244 256.312 241.244L250.498 223.845L247.318 241.244C240.907 238.514 221.348 222.014 221.348 222.014C221.348 222.014 220.681 220.466 219.877 218.051L220.852 217.718C220.852 217.718 220.031 208.711 222.425 202.734C227.11 195.241 237.812 197.156 237.812 197.156C237.812 197.156 252.567 190.779 260.552 194.342C268.536 197.905 276.708 195.141 279.598 198.438C282.487 201.735 280.709 214.522 280.709 214.522L281.325 214.705Z" fill="#D8D8D8"/>
<path opacity="0.2" d="M333.112 233.885L281.325 214.705L280.675 214.455C280.675 214.455 280.863 213.123 281.017 211.125L279.94 217.668L272.28 227.791C280.468 230.727 288.462 234.153 296.216 238.048C299.929 239.984 302.957 242.963 304.909 246.597C306.86 250.231 307.644 254.353 307.159 258.427L297.618 337.929L293.703 383.066L305.517 395.004C317.964 391.108 362.126 375.025 385.566 337.263C385.566 337.33 362.861 264.854 333.112 233.885ZM323.401 352.098C321.606 352.997 328.53 334.266 325.247 330.02C321.965 325.775 312.065 326.174 312.065 326.174L312.903 321.063L318.767 291.759L320.717 289.512C320.717 289.512 340.857 323.127 344.465 334.982C344.465 335.015 322.512 352.098 323.401 352.098Z" fill="black" fill-opacity="0.42"/>
<path opacity="0.2" d="M211.653 330.02L203.6 303.814C203.6 303.814 189.153 255.846 179.254 244.025L181.853 277.757C181.853 277.757 173.304 318.049 165.491 330.02C157.677 341.992 155.933 345.005 165.491 345.005C175.048 345.005 198.317 363.053 198.317 363.053L196.522 348.069L211.653 330.02ZM191.359 340.16L184.879 334.599L201.156 295.622L208.097 325.592C208.097 325.592 196.95 324.776 193.137 327.39C189.324 330.004 191.359 340.16 191.359 340.16Z" fill="black" fill-opacity="0.42"/>
<path d="M229.81 183.969C229.81 183.969 231.28 198.105 229.81 204.565" stroke="#333333" stroke-width="1.10311" stroke-linecap="round" stroke-linejoin="round"/>
<path d="M273.613 202.667C273.629 198.122 274.168 193.593 275.22 189.164" stroke="#333333" stroke-width="1.10311" stroke-linecap="round" stroke-linejoin="round"/>
<path d="M277.494 122.865C277.494 122.865 286.282 133.604 285.82 141.729C285.359 149.854 284.709 159.478 284.931 168.902C285.154 178.325 269.39 198.072 261.286 199.82C253.182 201.568 246.206 202.018 241.026 196.973C235.845 191.928 230.665 184.919 223.929 175.928C217.192 166.937 218.8 147.207 218.8 147.207" stroke="#333333" stroke-width="1.10311" stroke-linecap="round" stroke-linejoin="round"/>
<path d="M256.327 154.716C255.792 157.666 255.563 160.662 255.644 163.657C255.467 166.181 256.273 168.677 257.9 170.65C258.875 171.615 260.277 172.398 260.465 173.73C260.46 174.329 260.289 174.917 259.97 175.43C259.651 175.942 259.196 176.362 258.653 176.644C257.556 177.182 256.499 177.794 255.49 178.475" stroke="#333333" stroke-width="1.10311" stroke-linecap="round" stroke-linejoin="round"/>
<path d="M242.428 179.507C242.428 179.507 243.437 185.884 252.208 187.216" stroke="#333333" stroke-width="1.10311" stroke-linecap="round" stroke-linejoin="round"/>
<path d="M248.224 159.578C248.224 161.426 246.306 162.908 243.95 162.908C241.593 162.908 239.675 161.426 239.675 159.578C239.675 157.73 241.593 156.248 243.95 156.248C246.306 156.248 248.224 157.746 248.224 159.578Z" fill="#333333"/>
<path d="M274.4 160.377C274.4 162.225 272.482 163.707 270.125 163.707C267.769 163.707 265.851 162.208 265.851 160.377C265.851 158.545 267.769 157.047 270.125 157.047C272.482 157.047 274.4 158.529 274.4 160.377Z" fill="#333333"/>
<path d="M264.227 152.302C264.227 152.302 272.776 143.977 279.939 153.267" stroke="#333333" stroke-width="2.20621" stroke-linecap="round" stroke-linejoin="round"/>
<path d="M246.224 152.468C246.224 152.468 240.821 146.574 232.307 152.468" stroke="#333333" stroke-width="2.20621" stroke-linecap="round" stroke-linejoin="round"/>
<path d="M223.843 178.508C223.843 178.508 232.563 204.193 247.516 209.136C262.469 214.078 280.264 185.168 280.264 185.168L281.119 182.671L281.119 178.508C281.119 178.508 267.543 199.231 253.173 196.774C238.803 194.317 223.843 174.154 223.843 174.154L223.843 178.508Z" fill="#333333"/>
<path d="M220.014 166.604C220.014 166.604 213.073 168.985 211.226 163.723C209.38 158.462 203.054 144.593 208.593 139.964C214.133 135.336 218.578 146.075 218.578 146.075" stroke="#333333" stroke-width="1.10311" stroke-linecap="round" stroke-linejoin="round"/>
<path d="M284.916 169.468C284.916 169.468 291.361 170.733 293.208 165.472C295.054 160.21 301.38 146.341 295.841 141.713C290.301 137.084 285.856 147.823 285.856 147.823" stroke="#333333" stroke-width="1.10311" stroke-linecap="round" stroke-linejoin="round"/>
<path d="M218.578 159.578C220.989 159.207 223.165 157.957 224.664 156.081C225.58 154.434 226.16 152.631 226.374 150.77C227.009 147.229 227.329 143.642 227.332 140.048C227.256 138.643 227.389 137.236 227.725 135.869C228.238 134.492 229.029 133.23 230.05 132.156C232.461 129.392 235.384 127.061 237.692 124.197C238.93 122.846 239.412 121.718 240 120C245.289 124.247 252.582 121.521 259.219 123.192C265.856 124.864 272.789 125.099 279.529 123.881C287.103 119.545 287.103 119.545 287.103 116.072C286.835 113.872 284.946 110.423 283.684 108.58C281.974 106.082 281.974 106.082 278.555 102.752C277.335 101.565 269.736 97.3982 264.877 96.925C259.132 96.3656 255.473 96.0924 245.215 96.0925C236.667 96.0925 236.667 95.26 223.844 98.5899C223.844 98.5899 214.44 101.087 206.747 110.245C199.908 122.632 206.969 141.013 206.969 141.013C206.969 141.013 212.098 134.886 218.817 147.274L218.578 159.578Z" fill="#333333"/>
<path d="M278.554 119.702C278.554 119.702 274.554 140.014 285 149.854C285 149.854 287.291 143.744 289.599 142.245C291.263 138.641 291.968 134.686 291.648 130.745C291.329 126.805 289.995 123.007 287.77 119.702C280.042 107.88 278.554 119.702 278.554 119.702Z" fill="#333333"/>
<path d="M229.811 197.089C228.255 197.487 226.798 198.186 225.526 199.144C224.254 200.102 223.193 201.301 222.408 202.667C219.689 207.329 221.33 221.997 221.33 221.997C221.33 221.997 235.367 235.517 247.318 241.228L250.84 221.931L256.311 241.228C256.311 241.228 274.81 228.491 279.94 217.718C279.94 217.718 281.649 205.148 279.94 201.069C279.551 199.936 278.811 198.948 277.822 198.241C276.833 197.534 275.644 197.144 274.417 197.123" stroke="#333333" stroke-width="1.10311" stroke-linecap="round" stroke-linejoin="round"/>
<path d="M207.823 326.191C207.823 326.191 202.335 290.394 195.035 275.792" stroke="#333333" stroke-width="1.10311" stroke-linecap="round" stroke-linejoin="round"/>
<path d="M179.254 244.025C183.505 249.908 187.3 256.091 190.607 262.523" stroke="#333333" stroke-width="1.10311" stroke-linecap="round" stroke-linejoin="round"/>
<path d="M323.4 270.748C324.874 264.762 326.894 258.917 329.436 253.282" stroke="#333333" stroke-width="1.10311" stroke-linecap="round" stroke-linejoin="round"/>
<path d="M312.065 326.191C312.065 326.191 316.014 301.649 320.733 281.437" stroke="#333333" stroke-width="1.10311" stroke-linecap="round" stroke-linejoin="round"/>
<path d="M318.767 291.726C322.585 286.797 327.952 283.219 334.052 281.537" stroke="#333333" stroke-width="1.10311" stroke-linecap="round" stroke-linejoin="round"/>
<path d="M280.691 214.455C280.691 214.455 312.543 226.859 333.111 233.902C333.111 233.902 358.415 257.062 385.548 337.33C385.548 337.33 360.689 378.055 313.398 391.108" stroke="#333333" stroke-width="1.10311" stroke-linecap="round" stroke-linejoin="round"/>
<path d="M321.606 353.546L344.465 335.015C344.465 335.015 356.553 326.074 369.119 332.185" stroke="#333333" stroke-width="1.10311" stroke-linecap="round" stroke-linejoin="round"/>
<path d="M320.733 289.512C320.733 289.512 339.625 316.701 344.464 335.015" stroke="#333333" stroke-width="1.10311" stroke-linecap="round" stroke-linejoin="round"/>
<path d="M191.615 341.192L184.93 335.015C184.93 335.015 175.014 333.35 163.764 340.66" stroke="#333333" stroke-width="1.10311" stroke-linecap="round" stroke-linejoin="round"/>
<path d="M184.93 335.015C184.93 335.015 193.239 308.376 201.429 294.74" stroke="#333333" stroke-width="1.10311" stroke-linecap="round" stroke-linejoin="round"/>
<path d="M220.852 217.718C220.852 217.718 175.014 234.468 170.518 239.363C166.021 244.258 148.941 337.912 148.479 348.635C148.086 358.225 183.785 379.753 201.481 388.827" stroke="#333333" stroke-width="1.10311" stroke-linecap="round" stroke-linejoin="round"/>
<path d="M255.131 249.369C255.131 249.952 254.954 250.522 254.621 251.007C254.288 251.491 253.816 251.869 253.263 252.092C252.71 252.315 252.101 252.373 251.514 252.26C250.927 252.146 250.388 251.865 249.965 251.453C249.542 251.041 249.254 250.516 249.137 249.944C249.02 249.373 249.08 248.78 249.309 248.242C249.538 247.703 249.926 247.243 250.424 246.919C250.921 246.595 251.506 246.422 252.105 246.422C252.503 246.42 252.897 246.495 253.266 246.642C253.634 246.79 253.968 247.007 254.25 247.281C254.531 247.555 254.754 247.88 254.905 248.239C255.057 248.598 255.133 248.982 255.131 249.369Z" fill="#333333"/>
<path d="M308.167 406.243H203.875C203.226 406.243 202.604 405.992 202.146 405.545C201.687 405.099 201.43 404.493 201.43 403.862C201.43 403.23 201.687 402.625 202.146 402.178C202.604 401.732 203.226 401.481 203.875 401.481H308.167C308.816 401.481 309.438 401.732 309.896 402.178C310.355 402.625 310.612 403.23 310.612 403.862C310.612 404.493 310.355 405.099 309.896 405.545C309.438 405.992 308.816 406.243 308.167 406.243Z" fill="#333333"/>
<path d="M311.748 398.143L325.716 334.208C325.933 333.217 325.919 332.191 325.676 331.206C325.433 330.22 324.966 329.3 324.31 328.513C323.655 327.726 322.826 327.092 321.886 326.657C320.946 326.222 319.918 325.998 318.877 326H196.974C195.942 326 194.923 326.223 193.991 326.653C193.058 327.083 192.235 327.71 191.581 328.487C190.927 329.264 190.458 330.173 190.208 331.148C189.958 332.123 189.933 333.14 190.135 334.125L202.668 395.929C202.975 397.447 203.805 398.817 205.02 399.813C206.236 400.809 207.764 401.371 209.353 401.406L304.738 403.537C306.368 403.573 307.96 403.053 309.24 402.069C310.519 401.084 311.406 399.696 311.748 398.143Z" fill="#D8D8D8" stroke="#333333" stroke-width="1.10311" stroke-linecap="round" stroke-linejoin="round"/>
<path d="M286.47 332.251H300.952" stroke="#333333" stroke-width="1.10311" stroke-linecap="round" stroke-linejoin="round"/>
<path d="M217.312 332.251H272.28" stroke="#333333" stroke-width="1.10311" stroke-linecap="round" stroke-linejoin="round"/>
<path d="M312.065 466.165L300.952 494.569C300.952 494.569 272.604 487.609 236.307 480.367C198.334 472.791 158.686 462.985 138.118 427.837C135.622 423.558 133.946 418.497 135.126 413.702C138.084 401.564 154.309 398.267 164.995 397.052C171.713 396.344 178.464 395.977 185.221 395.953C188.64 395.953 200.01 394.138 202.763 396.12C206.898 399.058 211.312 401.606 215.944 403.728C222.014 406.243 310.611 401.481 310.611 401.481C312.153 398.207 313.096 394.697 313.398 391.108C327.333 384.215 359.561 378.388 373.238 380.968C394.661 385.014 407.159 397.185 404.783 409.939C402.406 422.692 355.081 456.891 312.065 466.165Z" fill="#333333"/>
<path d="M312.065 466.165C312.065 466.165 285.103 459.205 263.082 444.72C241.061 430.235 223.861 413.419 193.171 416.898" stroke="#D8D8D8" stroke-width="1.10311" stroke-linecap="round" stroke-linejoin="round"/>
<path d="M258.038 441.307C271.955 437.411 282.162 428.636 293.327 420.228C305.102 411.025 317.748 402.93 331.094 396.053" stroke="#D8D8D8" stroke-width="1.10311" stroke-linecap="round" stroke-linejoin="round"/>
<path d="M245.676 356L234 363.129L244.841 372.48" stroke="#333333" stroke-width="3" stroke-linecap="round" stroke-linejoin="round"/>
<path d="M271.905 372.426L282.399 363.725L270.291 356" stroke="#333333" stroke-width="3" stroke-linecap="round" stroke-linejoin="round"/>
<path d="M253.676 378.319L262.291 352" stroke="#333333" stroke-width="3" stroke-linecap="round" stroke-linejoin="round"/>
<path d="M142.67 107.548L146.792 147.09C146.937 148.477 146.838 149.876 146.501 151.207C146.163 152.538 145.595 153.774 144.827 154.846C144.059 155.917 143.108 156.803 142.027 157.452C140.945 158.101 139.756 158.5 138.526 158.627L57.7999 167.044C56.5701 167.173 55.3237 167.027 54.132 166.615C52.9402 166.204 51.8264 165.533 50.8542 164.643C49.882 163.753 49.0705 162.661 48.466 161.428C47.8616 160.195 47.476 158.847 47.3313 157.459L43.2087 117.917C42.9182 115.115 43.6255 112.325 45.1753 110.16C46.7251 107.996 48.9907 106.633 51.4744 106.373L132.2 97.9563C134.685 97.6972 137.183 98.5622 139.147 100.361C141.11 102.16 142.377 104.745 142.67 107.548Z" fill="#D8D8D8" stroke="#333333" stroke-opacity="0.9" stroke-width="1.10311" stroke-miterlimit="10"/>
<path d="M142.67 107.548L142.764 108.453L43.3031 118.823L43.2087 117.917C42.9182 115.115 43.6255 112.325 45.1753 110.16C46.7251 107.996 48.9907 106.633 51.4744 106.373L132.2 97.9563C134.685 97.6972 137.183 98.5622 139.147 100.361C141.11 102.16 142.377 104.745 142.67 107.548Z" fill="#10B9AA" fill-opacity="0.9" stroke="#333333" stroke-opacity="0.9" stroke-width="1.10311" stroke-miterlimit="10"/>
<path d="M82.9151 122.042L50.4043 125.432L53.7097 157.136L86.2204 153.746L82.9151 122.042Z" stroke="#333333" stroke-opacity="0.9" stroke-width="1.10311" stroke-linecap="round" stroke-linejoin="round" stroke-dasharray="4.41 4.41"/>
<path d="M125.35 117.618L87.9336 121.519L88.1661 123.749L125.582 119.848L125.35 117.618Z" fill="#333333" fill-opacity="0.9"/>
<path d="M88.6115 123.2L88.4827 121.965L124.904 118.167L125.033 119.403L88.6115 123.2Z" stroke="#333333" stroke-opacity="0.9"/>
<path d="M117.117 123.142L88.415 126.134L88.6468 128.357L117.348 125.365L117.117 123.142Z" fill="#333333" fill-opacity="0.9"/>
<path d="M89.0923 127.808L88.9642 126.58L116.671 123.691L116.799 124.919L89.0923 127.808Z" stroke="#333333" stroke-opacity="0.9"/>
<path d="M131.629 126.273L88.894 130.729L89.1286 132.979L131.863 128.523L131.629 126.273Z" fill="#333333" fill-opacity="0.9"/>
<path d="M89.5741 132.43L89.4432 131.174L131.183 126.823L131.314 128.078L89.5741 132.43Z" stroke="#333333" stroke-opacity="0.9"/>
<path d="M125.753 131.415L89.3608 135.209L89.5954 137.459L125.987 133.665L125.753 131.415Z" fill="#333333" fill-opacity="0.9"/>
<path d="M90.0409 136.91L89.91 135.654L125.307 131.964L125.438 133.219L90.0409 136.91Z" stroke="#333333" stroke-opacity="0.9"/>
<path d="M494.678 124.299L477.946 243.35C477.748 244.767 477.266 246.129 476.526 247.36C475.786 248.591 474.804 249.665 473.635 250.523C472.466 251.38 471.134 252.003 469.714 252.357C468.295 252.71 466.815 252.787 465.361 252.582L377.061 240.173C375.607 239.967 374.208 239.485 372.941 238.754C371.675 238.022 370.567 237.056 369.681 235.91C368.794 234.764 368.147 233.46 367.776 232.074C367.404 230.688 367.316 229.246 367.516 227.83L384.248 108.779C384.649 105.922 386.2 103.345 388.558 101.615C390.916 99.8856 393.889 99.1443 396.823 99.5545L485.124 111.964C488.059 112.377 490.715 113.908 492.507 116.222C494.299 118.535 495.08 121.441 494.678 124.299Z" fill="#D8D8D8" stroke="#333333" stroke-opacity="0.9" stroke-width="1.10311" stroke-linecap="round" stroke-linejoin="round"/>
<path d="M494.678 124.299L493.782 130.672L383.352 115.152L384.248 108.779C384.649 105.922 386.2 103.345 388.558 101.615C390.916 99.8856 393.889 99.1443 396.823 99.5545L485.124 111.964C488.059 112.377 490.715 113.908 492.507 116.222C494.299 118.535 495.08 121.441 494.678 124.299Z" fill="#10B9AA" fill-opacity="0.9" stroke="#333333" stroke-opacity="0.9" stroke-width="1.10311" stroke-miterlimit="10"/>
<path d="M419.027 127.695L391.856 123.876L391.232 128.316L418.403 132.135L419.027 127.695Z" fill="#333333" fill-opacity="0.9"/>
<path d="M413.207 167.258L386.037 163.439L385.413 167.879L412.583 171.698L413.207 167.258Z" fill="#333333" fill-opacity="0.9"/>
<path d="M409.207 203.681L382.037 199.862L381.413 204.302L408.583 208.121L409.207 203.681Z" fill="#333333" fill-opacity="0.9"/>
<path d="M468.318 145.833L391.154 134.988L390.697 138.244L467.86 149.089L468.318 145.833Z" fill="#333333" fill-opacity="0.9"/>
<path d="M453.529 150.101L390.28 141.212L389.834 144.386L453.083 153.275L453.529 150.101Z" fill="#333333" fill-opacity="0.9"/>
<path d="M460.95 157.391L389.418 147.338L388.972 150.512L460.504 160.565L460.95 157.391Z" fill="#333333" fill-opacity="0.9"/>
<path d="M460.091 163.509L388.56 153.455L388.114 156.629L459.645 166.682L460.091 163.509Z" fill="#333333" fill-opacity="0.9"/>
<path d="M463.247 181.912L386.084 171.068L385.626 174.324L462.79 185.168L463.247 181.912Z" fill="#333333" fill-opacity="0.9"/>
<path d="M448.458 186.181L385.209 177.292L384.763 180.466L448.012 189.355L448.458 186.181Z" fill="#333333" fill-opacity="0.9"/>
<path d="M455.88 193.471L384.348 183.418L383.902 186.591L455.434 196.645L455.88 193.471Z" fill="#333333" fill-opacity="0.9"/>
<path d="M457.68 221.527L380.517 210.683L380.059 213.939L457.222 224.783L457.68 221.527Z" fill="#333333" fill-opacity="0.9"/>
<path d="M442.889 225.804L379.641 216.915L379.195 220.089L442.443 228.978L442.889 225.804Z" fill="#333333" fill-opacity="0.9"/>
<path d="M450.312 233.094L378.78 223.041L378.334 226.215L449.865 236.268L450.312 233.094Z" fill="#333333" fill-opacity="0.9"/>
<path d="M280.639 261V255.182H284.247V255.938H281.517V257.71H283.989V258.463H281.517V261H280.639ZM285.092 261H284.16L286.254 255.182H287.268L289.362 261H288.43L286.785 256.239H286.739L285.092 261ZM285.248 258.722H288.271V259.46H285.248V258.722ZM289.227 255.938V255.182H293.73V255.938H291.915V261H291.04V255.938H289.227ZM295.603 255.182V261H294.725V255.182H295.603ZM296.881 261V255.182H297.759V257.71H300.66V255.182H301.54V261H300.66V258.463H297.759V261H296.881ZM282.523 271H280.639V265.182H282.582C283.152 265.182 283.642 265.298 284.051 265.531C284.46 265.762 284.774 266.095 284.991 266.528C285.211 266.96 285.321 267.478 285.321 268.082C285.321 268.688 285.21 269.209 284.989 269.645C284.769 270.08 284.451 270.416 284.034 270.651C283.617 270.884 283.114 271 282.523 271ZM281.517 270.233H282.474C282.918 270.233 283.286 270.15 283.58 269.983C283.873 269.814 284.093 269.571 284.239 269.253C284.384 268.933 284.457 268.543 284.457 268.082C284.457 267.626 284.384 267.239 284.239 266.92C284.095 266.602 283.88 266.361 283.594 266.196C283.308 266.031 282.953 265.949 282.528 265.949H281.517V270.233ZM287.29 265.182V271H286.413V265.182H287.29ZM292.506 267.02C292.451 266.848 292.378 266.693 292.285 266.557C292.194 266.419 292.085 266.301 291.958 266.205C291.831 266.106 291.686 266.031 291.523 265.98C291.362 265.929 291.185 265.903 290.992 265.903C290.665 265.903 290.369 265.988 290.106 266.156C289.843 266.325 289.634 266.572 289.481 266.898C289.329 267.222 289.254 267.618 289.254 268.088C289.254 268.56 289.33 268.958 289.484 269.284C289.637 269.61 289.847 269.857 290.114 270.026C290.381 270.194 290.685 270.278 291.026 270.278C291.343 270.278 291.618 270.214 291.853 270.085C292.09 269.956 292.272 269.775 292.401 269.54C292.532 269.303 292.597 269.025 292.597 268.705L292.825 268.747H291.16V268.023H293.447V268.685C293.447 269.173 293.343 269.598 293.134 269.957C292.928 270.315 292.642 270.592 292.276 270.787C291.913 270.982 291.496 271.08 291.026 271.08C290.5 271.08 290.038 270.958 289.64 270.716C289.244 270.473 288.935 270.13 288.714 269.685C288.492 269.238 288.381 268.707 288.381 268.094C288.381 267.63 288.446 267.213 288.575 266.844C288.703 266.474 288.884 266.161 289.117 265.903C289.352 265.644 289.628 265.446 289.944 265.31C290.262 265.171 290.61 265.102 290.987 265.102C291.301 265.102 291.594 265.149 291.864 265.241C292.137 265.334 292.379 265.466 292.592 265.636C292.806 265.807 292.983 266.009 293.123 266.244C293.263 266.477 293.358 266.736 293.407 267.02H292.506ZM295.439 265.182V271H294.561V265.182H295.439ZM296.43 265.938V265.182H300.933V265.938H299.118V271H298.243V265.938H296.43ZM301.732 271H300.8L302.894 265.182H303.908L306.002 271H305.07L303.425 266.239H303.38L301.732 271ZM301.888 268.722H304.911V269.46H301.888V268.722Z" fill="#D8D8D8"/>
<path d="M306.842 271V265.182H307.72V270.244H310.357V271H306.842Z" fill="#CACACA"/>
</svg>
