<svg width="504" height="504" viewBox="0 0 504 504" fill="none" xmlns="http://www.w3.org/2000/svg">
<path d="M502 31.2876V268.834C502 276.599 498.763 284.046 493.001 289.539C487.239 295.031 479.423 298.118 471.273 298.121H32.7273C24.5766 298.118 16.7611 295.031 10.999 289.539C5.23689 284.046 2 276.599 2 268.834V31.2876C2 30.5884 2 29.9683 2.09693 29.2296C2.63676 21.84 6.09815 14.9206 11.7828 9.86707C17.4674 4.81357 24.9523 2.00216 32.7273 2H471.273C479.057 2.00308 486.549 4.82183 492.235 9.88637C497.921 14.9509 501.377 21.8834 501.903 29.2823C501.972 29.9156 502 30.6016 502 31.2876Z" stroke="#333333" stroke-width="3" stroke-linecap="round" stroke-linejoin="round"/>
<path d="M501.903 29.2823H2.09668C2.63651 21.8928 6.0979 14.9733 11.7825 9.91984C17.4672 4.86634 24.952 2.05493 32.727 2.05276H471.272C479.047 2.05493 486.532 4.86634 492.217 9.91984C497.902 14.9733 501.363 21.8928 501.903 29.2823Z" fill="#10B9AA" stroke="#333333" stroke-width="3" stroke-miterlimit="10"/>
<path d="M63.5095 15.6148C63.5095 16.6402 63.1903 17.6426 62.5924 18.4952C61.9944 19.3479 61.1445 20.0124 60.1501 20.4048C59.1557 20.7972 58.0615 20.8999 57.0058 20.6999C55.9502 20.4998 54.9805 20.006 54.2194 19.2809C53.4583 18.5558 52.94 17.632 52.7301 16.6263C52.5201 15.6205 52.6278 14.5781 53.0397 13.6307C53.4516 12.6833 54.1491 11.8736 55.0441 11.3039C55.939 10.7342 56.9912 10.4301 58.0675 10.4301C59.5108 10.4301 60.895 10.9763 61.9156 11.9486C62.9362 12.921 63.5095 14.2397 63.5095 15.6148Z" fill="#333333"/>
<path d="M86.5242 15.6148C86.5242 16.6402 86.205 17.6426 85.607 18.4952C85.009 19.3479 84.1591 20.0124 83.1647 20.4048C82.1703 20.7972 81.0761 20.8999 80.0205 20.6999C78.9648 20.4998 77.9951 20.006 77.2341 19.2809C76.473 18.5558 75.9547 17.632 75.7447 16.6263C75.5347 15.6205 75.6425 14.5781 76.0544 13.6307C76.4663 12.6833 77.1638 11.8736 78.0587 11.3039C78.9537 10.7342 80.0058 10.4301 81.0821 10.4301C82.5255 10.4301 83.9096 10.9763 84.9302 11.9486C85.9508 12.921 86.5242 14.2397 86.5242 15.6148Z" fill="#333333"/>
<path d="M104.097 20.7995C107.102 20.7995 109.539 18.4782 109.539 15.6148C109.539 12.7514 107.102 10.4301 104.097 10.4301C101.091 10.4301 98.6548 12.7514 98.6548 15.6148C98.6548 18.4782 101.091 20.7995 104.097 20.7995Z" fill="#333333"/>
<path d="M230.121 462.655C230.121 462.655 180.539 476.491 173.615 478.889C167.323 481.053 150.26 486.88 137.454 485.066C136.218 484.892 134.995 484.637 133.795 484.3C120.819 480.537 114.988 477.024 113.279 469.082C111.569 461.14 118.032 455.279 124.255 451.533C130.479 447.787 164.228 443.874 164.228 443.874L172.384 446.205L230.121 462.655Z" fill="#10B9AA"/>
<path d="M137.454 485.066C136.218 484.892 134.995 484.637 133.795 484.3C120.819 480.537 114.988 477.024 113.279 469.082C111.569 461.14 118.032 455.279 124.255 451.533C130.479 447.787 164.228 443.874 164.228 443.874L172.384 446.205C164.998 449.535 137.505 451.35 131.504 454.713C125.503 458.076 122.614 464.403 126.153 473.028C128.051 477.523 133.111 481.935 137.454 485.066Z" fill="#D8D8D8"/>
<path d="M222.667 464.62C222.667 464.62 185.429 474.01 170.657 480.021C155.885 486.031 127.726 488.662 117.656 476.274C107.586 463.887 116.493 453.198 126.529 450.817C136.565 448.436 156.86 444.69 167.939 446.205" stroke="#333333" stroke-width="1.10311" stroke-linecap="round" stroke-linejoin="round"/>
<path d="M138.189 484.416C138.189 484.416 119.245 474.293 125.537 460.108C130.188 449.652 155.457 451.916 167.972 446.205" stroke="#333333" stroke-width="1.10311" stroke-linecap="round" stroke-linejoin="round"/>
<path d="M381.14 487.313C380.627 492.308 378.831 496.987 373.702 499.934C370.283 501.898 365.427 503.064 358.469 502.997C341.081 502.781 308.391 490.677 308.391 490.677L277.787 474.193L293.705 449.668L298.064 443.009L309.314 445.473C309.314 445.473 318.632 450.617 328.002 454.713C337.371 458.809 360.127 459.708 368.146 465.985C376.164 472.262 382.012 479.088 381.14 487.313Z" fill="#10B9AA"/>
<path d="M381.14 487.313C380.627 492.308 378.831 496.987 373.702 499.934C375.18 495.024 374.878 489.768 372.847 485.049C369.428 477.573 358.298 470.98 343.663 469.881C329.027 468.782 317.829 462.122 311.964 459.142C307.382 456.828 297.722 451.766 293.705 449.668L298.064 443.009L309.314 445.473C309.314 445.473 318.632 450.617 328.002 454.713C337.371 458.809 360.127 459.708 368.146 465.985C376.164 472.262 382.012 479.088 381.14 487.313Z" fill="#D8D8D8"/>
<path d="M284.576 478.822C306.605 491.292 330.952 499.39 356.213 502.648C361.786 503.297 368.266 503.397 371.993 499.318C372.985 498.14 373.723 496.779 374.164 495.318C374.604 493.856 374.738 492.323 374.558 490.81C373.891 483.151 367.275 477.09 360.025 474.044C352.776 470.997 344.792 470.297 337.081 468.616C329.412 466.932 321.999 464.291 315.026 460.757C309.486 457.943 304.135 454.53 298.031 453.265C291.927 451.999 284.661 453.531 281.396 458.726" stroke="#333333" stroke-width="1.10311" stroke-linecap="round" stroke-linejoin="round"/>
<path d="M369.941 501.399C372.806 500.063 375.31 498.094 377.255 495.648C379.199 493.203 380.53 490.349 381.14 487.313C382.251 480.104 378.028 472.845 372.096 468.416C366.163 463.987 358.726 461.889 351.391 460.407C344.056 458.926 336.551 457.927 329.524 455.213C318.804 451.117 308.221 443.058 297.039 445.939" stroke="#333333" stroke-width="1.10311" stroke-linecap="round" stroke-linejoin="round"/>
<path d="M319.112 220.885L267.324 201.705L266.675 201.455C266.675 201.455 266.863 200.123 267.016 198.125C267.341 194.096 267.512 187.536 265.563 185.321C262.674 181.991 254.501 184.789 246.517 181.226C238.533 177.663 223.778 184.039 223.778 184.039C223.778 184.039 213.109 182.125 208.39 189.617C205.997 195.661 206.817 204.602 206.817 204.602L205.843 204.935C199.671 207.182 166.092 219.487 158.997 224.432C151.149 229.843 142.464 285.403 139.677 301.719C136.89 318.036 131.932 332.738 134.445 338.349C136.958 343.96 173.033 371.015 193.789 377.991C214.545 384.968 288.149 382.986 288.149 382.986C288.149 382.986 289.345 382.67 291.483 382.004C303.929 378.108 348.091 362.024 371.532 324.263C371.566 324.33 348.861 251.854 319.112 220.885ZM179.188 314.34C175.376 316.97 177.479 327.16 177.479 327.16L170.999 321.599L187.275 282.622L194.217 312.592C194.217 312.592 183.001 311.726 179.188 314.34ZM309.4 339.098C307.605 339.997 314.53 321.266 311.247 317.02C307.964 312.775 298.065 313.174 298.065 313.174L298.903 308.063L304.767 278.759L306.716 276.512C306.716 276.512 326.857 310.127 330.464 321.982C330.464 322.015 308.511 339.098 309.4 339.098Z" fill="#10B9AA"/>
<path d="M221.333 99.3259L194.593 126.964C194.593 126.964 190.917 130.144 192.37 138.153C193.824 146.161 197.243 153.138 199.825 153.604C201.868 153.952 203.939 154.131 206.014 154.137C206.014 154.137 211.741 166.224 215.81 170.969C215.81 170.969 217.212 189.634 216.46 194.812C216.46 194.812 226.069 202.987 235.113 204.019C244.158 205.051 258.126 191.565 258.126 191.565L261.545 175.049C261.545 175.049 269.752 162.928 270.299 159.698C270.846 156.468 274.608 157.3 276.454 155.702C278.301 154.103 282.558 146.994 283.293 140.267C284.028 133.541 284.045 125.816 276.027 128.08C269.068 126.265 273.428 111.946 273.428 111.946L261.204 101.457L221.333 99.3259Z" fill="#F8F8F8"/>
<path opacity="0.5" d="M267.325 201.705C266.921 202.734 266.459 203.74 265.94 204.718C261.529 212.81 242.312 228.244 242.312 228.244L236.498 210.845L233.318 228.244C226.907 225.514 207.348 209.014 207.348 209.014C207.348 209.014 206.681 207.466 205.877 205.051L206.852 204.718C206.852 204.718 206.031 195.711 208.425 189.734C213.11 182.241 223.812 184.156 223.812 184.156C223.812 184.156 238.567 177.779 246.552 181.342C254.536 184.905 262.708 182.141 265.598 185.438C268.487 188.735 266.709 201.522 266.709 201.522L267.325 201.705Z" fill="#D8D8D8"/>
<path opacity="0.2" d="M319.112 220.885L267.325 201.705L266.675 201.455C266.675 201.455 266.863 200.123 267.017 198.125L265.94 204.668L258.28 214.791C266.468 217.727 274.462 221.153 282.216 225.048C285.929 226.984 288.957 229.963 290.909 233.597C292.86 237.231 293.644 241.353 293.159 245.427L283.618 324.929L279.703 370.066L291.517 382.004C303.964 378.108 348.126 362.025 371.566 324.263C371.566 324.33 348.861 251.854 319.112 220.885ZM309.401 339.098C307.606 339.997 314.53 321.266 311.247 317.02C307.965 312.775 298.065 313.174 298.065 313.174L298.903 308.063L304.767 278.759L306.717 276.512C306.717 276.512 326.857 310.127 330.465 321.982C330.465 322.015 308.512 339.098 309.401 339.098Z" fill="black" fill-opacity="0.42"/>
<path opacity="0.2" d="M197.653 317.02L189.6 290.814C189.6 290.814 175.153 242.846 165.254 231.025L167.853 264.757C167.853 264.757 159.304 305.049 151.491 317.02C143.677 328.992 141.933 332.005 151.491 332.005C161.048 332.005 184.317 350.053 184.317 350.053L182.522 335.069L197.653 317.02ZM177.359 327.16L170.879 321.599L187.156 282.622L194.097 312.592C194.097 312.592 182.95 311.776 179.137 314.39C175.324 317.004 177.359 327.16 177.359 327.16Z" fill="black" fill-opacity="0.42"/>
<path d="M215.81 170.969C215.81 170.969 217.28 185.105 215.81 191.565" stroke="#333333" stroke-width="1.10311" stroke-linecap="round" stroke-linejoin="round"/>
<path d="M259.613 189.667C259.629 185.122 260.168 180.593 261.22 176.164" stroke="#333333" stroke-width="1.10311" stroke-linecap="round" stroke-linejoin="round"/>
<path d="M263.494 109.865C263.494 109.865 272.282 120.604 271.82 128.729C271.359 136.854 270.709 146.478 270.931 155.902C271.154 165.325 255.39 185.072 247.286 186.82C239.182 188.568 232.206 189.018 227.026 183.973C221.845 178.928 216.665 171.919 209.929 162.928C203.192 153.937 204.8 134.207 204.8 134.207" stroke="#333333" stroke-width="1.10311" stroke-linecap="round" stroke-linejoin="round"/>
<path d="M242.327 141.716C241.792 144.666 241.563 147.662 241.644 150.657C241.467 153.181 242.273 155.677 243.9 157.65C244.875 158.615 246.277 159.398 246.465 160.73C246.46 161.329 246.289 161.917 245.97 162.43C245.651 162.942 245.196 163.362 244.653 163.644C243.556 164.182 242.499 164.794 241.49 165.475" stroke="#333333" stroke-width="1.10311" stroke-linecap="round" stroke-linejoin="round"/>
<path d="M228.428 166.507C228.428 166.507 229.437 172.884 238.208 174.216" stroke="#333333" stroke-width="1.10311" stroke-linecap="round" stroke-linejoin="round"/>
<path d="M234.224 146.578C234.224 148.426 232.306 149.908 229.95 149.908C227.593 149.908 225.675 148.426 225.675 146.578C225.675 144.73 227.593 143.248 229.95 143.248C232.306 143.248 234.224 144.746 234.224 146.578Z" fill="#333333"/>
<path d="M260.4 147.377C260.4 149.225 258.482 150.707 256.125 150.707C253.769 150.707 251.851 149.208 251.851 147.377C251.851 145.545 253.769 144.047 256.125 144.047C258.482 144.047 260.4 145.529 260.4 147.377Z" fill="#333333"/>
<path d="M250.227 139.302C250.227 139.302 258.776 130.977 265.939 140.267" stroke="#333333" stroke-width="2.20621" stroke-linecap="round" stroke-linejoin="round"/>
<path d="M232.224 139.468C232.224 139.468 226.821 133.574 218.307 139.468" stroke="#333333" stroke-width="2.20621" stroke-linecap="round" stroke-linejoin="round"/>
<path d="M209.843 165.508C209.843 165.508 218.563 191.194 233.516 196.136C248.469 201.078 266.264 172.168 266.264 172.168L267.119 169.671L267.119 165.508C267.119 165.508 253.543 186.231 239.173 183.774C224.803 181.317 209.843 161.154 209.843 161.154L209.843 165.508Z" fill="#333333"/>
<path d="M206.014 153.604C206.014 153.604 199.073 155.985 197.226 150.723C195.38 145.462 189.054 131.593 194.593 126.964C200.133 122.336 204.578 133.075 204.578 133.075" stroke="#333333" stroke-width="1.10311" stroke-linecap="round" stroke-linejoin="round"/>
<path d="M270.916 156.468C270.916 156.468 277.361 157.733 279.208 152.472C281.054 147.21 287.38 133.341 281.841 128.713C276.301 124.084 271.856 134.823 271.856 134.823" stroke="#333333" stroke-width="1.10311" stroke-linecap="round" stroke-linejoin="round"/>
<path d="M204.578 146.578C206.989 146.207 209.165 144.957 210.664 143.081C211.58 141.434 212.16 139.631 212.374 137.77C213.009 134.229 213.329 130.642 213.332 127.048C213.256 125.643 213.389 124.236 213.725 122.869C214.238 121.492 215.029 120.23 216.05 119.156C218.461 116.392 221.384 114.061 223.692 111.197C224.93 109.846 225.412 108.718 226 107C231.289 111.247 238.582 108.521 245.219 110.192C251.856 111.864 258.789 112.099 265.529 110.881C273.103 106.545 273.103 106.545 273.103 103.072C272.835 100.872 270.946 97.4228 269.684 95.5797C267.974 93.0823 267.974 93.0823 264.555 89.7523C263.335 88.5648 255.736 84.3982 250.877 83.925C245.132 83.3656 241.473 83.0924 231.215 83.0925C222.667 83.0925 222.667 82.26 209.844 85.5899C209.844 85.5899 200.44 88.0874 192.747 97.2447C185.908 109.632 192.969 128.013 192.969 128.013C192.969 128.013 198.098 121.886 204.817 134.274L204.578 146.578Z" fill="#333333"/>
<path d="M264.554 106.702C264.554 106.702 260.554 127.014 271 136.854C271 136.854 273.291 130.744 275.599 129.245C277.263 125.641 277.968 121.686 277.648 117.745C277.329 113.805 275.995 110.007 273.77 106.702C266.042 94.8804 264.554 106.702 264.554 106.702Z" fill="#333333"/>
<path d="M215.811 184.089C214.255 184.487 212.798 185.186 211.526 186.144C210.254 187.102 209.193 188.301 208.408 189.667C205.689 194.329 207.33 208.997 207.33 208.997C207.33 208.997 221.367 222.517 233.318 228.228L236.84 208.931L242.311 228.228C242.311 228.228 260.81 215.491 265.94 204.718C265.94 204.718 267.649 192.148 265.94 188.069C265.551 186.936 264.811 185.948 263.822 185.241C262.833 184.534 261.644 184.144 260.417 184.123" stroke="#333333" stroke-width="1.10311" stroke-linecap="round" stroke-linejoin="round"/>
<path d="M193.823 313.191C193.823 313.191 188.335 277.394 181.035 262.792" stroke="#333333" stroke-width="1.10311" stroke-linecap="round" stroke-linejoin="round"/>
<path d="M165.254 231.025C169.505 236.908 173.3 243.091 176.607 249.523" stroke="#333333" stroke-width="1.10311" stroke-linecap="round" stroke-linejoin="round"/>
<path d="M309.4 257.748C310.874 251.762 312.894 245.917 315.436 240.282" stroke="#333333" stroke-width="1.10311" stroke-linecap="round" stroke-linejoin="round"/>
<path d="M298.065 313.191C298.065 313.191 302.014 288.649 306.733 268.437" stroke="#333333" stroke-width="1.10311" stroke-linecap="round" stroke-linejoin="round"/>
<path d="M304.767 278.726C308.585 273.797 313.952 270.219 320.052 268.537" stroke="#333333" stroke-width="1.10311" stroke-linecap="round" stroke-linejoin="round"/>
<path d="M266.691 201.455C266.691 201.455 298.543 213.859 319.111 220.902C319.111 220.902 344.415 244.062 371.548 324.33C371.548 324.33 346.689 365.055 299.398 378.108" stroke="#333333" stroke-width="1.10311" stroke-linecap="round" stroke-linejoin="round"/>
<path d="M307.606 340.546L330.465 322.015C330.465 322.015 342.553 313.074 355.119 319.185" stroke="#333333" stroke-width="1.10311" stroke-linecap="round" stroke-linejoin="round"/>
<path d="M306.733 276.512C306.733 276.512 325.625 303.701 330.464 322.015" stroke="#333333" stroke-width="1.10311" stroke-linecap="round" stroke-linejoin="round"/>
<path d="M177.615 328.192L170.93 322.015C170.93 322.015 161.014 320.35 149.764 327.66" stroke="#333333" stroke-width="1.10311" stroke-linecap="round" stroke-linejoin="round"/>
<path d="M170.93 322.015C170.93 322.015 179.239 295.376 187.429 281.74" stroke="#333333" stroke-width="1.10311" stroke-linecap="round" stroke-linejoin="round"/>
<path d="M206.852 204.718C206.852 204.718 161.014 221.468 156.518 226.363C152.021 231.258 134.941 324.912 134.479 335.635C134.086 345.225 169.785 366.753 187.481 375.827" stroke="#333333" stroke-width="1.10311" stroke-linecap="round" stroke-linejoin="round"/>
<path d="M241.131 236.369C241.131 236.952 240.954 237.522 240.621 238.007C240.288 238.491 239.816 238.869 239.263 239.092C238.71 239.315 238.101 239.373 237.514 239.26C236.927 239.146 236.388 238.865 235.965 238.453C235.542 238.041 235.254 237.516 235.137 236.944C235.02 236.373 235.08 235.78 235.309 235.242C235.538 234.703 235.926 234.243 236.424 233.919C236.921 233.595 237.506 233.422 238.105 233.422C238.503 233.42 238.897 233.495 239.266 233.642C239.634 233.79 239.968 234.007 240.25 234.281C240.531 234.555 240.754 234.88 240.905 235.239C241.057 235.598 241.133 235.982 241.131 236.369Z" fill="#333333"/>
<path d="M294.167 393.243H189.875C189.226 393.243 188.604 392.992 188.146 392.545C187.687 392.099 187.43 391.493 187.43 390.862C187.43 390.23 187.687 389.625 188.146 389.178C188.604 388.732 189.226 388.481 189.875 388.481H294.167C294.816 388.481 295.438 388.732 295.896 389.178C296.355 389.625 296.612 390.23 296.612 390.862C296.612 391.493 296.355 392.099 295.896 392.545C295.438 392.992 294.816 393.243 294.167 393.243Z" fill="#333333"/>
<path d="M297.748 385.143L311.716 321.208C311.933 320.217 311.919 319.191 311.676 318.206C311.433 317.22 310.966 316.3 310.31 315.513C309.655 314.726 308.826 314.092 307.886 313.657C306.946 313.222 305.918 312.998 304.877 313H182.974C181.942 313 180.923 313.223 179.991 313.653C179.058 314.083 178.235 314.71 177.581 315.487C176.927 316.264 176.458 317.173 176.208 318.148C175.958 319.123 175.933 320.14 176.135 321.125L188.668 382.929C188.975 384.447 189.805 385.817 191.02 386.813C192.236 387.809 193.764 388.371 195.353 388.406L290.738 390.538C292.368 390.573 293.96 390.053 295.24 389.069C296.519 388.084 297.406 386.696 297.748 385.143Z" fill="#D8D8D8" stroke="#333333" stroke-width="1.10311" stroke-linecap="round" stroke-linejoin="round"/>
<path d="M272.47 319.251H286.952" stroke="#333333" stroke-width="1.10311" stroke-linecap="round" stroke-linejoin="round"/>
<path d="M203.312 319.251H258.28" stroke="#333333" stroke-width="1.10311" stroke-linecap="round" stroke-linejoin="round"/>
<path d="M298.065 453.165L286.952 481.569C286.952 481.569 258.604 474.609 222.307 467.367C184.334 459.791 144.686 449.985 124.118 414.837C121.622 410.558 119.946 405.497 121.126 400.702C124.084 388.564 140.309 385.267 150.995 384.052C157.713 383.344 164.464 382.977 171.221 382.953C174.64 382.953 186.01 381.138 188.763 383.12C192.898 386.058 197.312 388.606 201.944 390.728C208.014 393.242 296.611 388.481 296.611 388.481C298.153 385.207 299.096 381.697 299.398 378.108C313.333 371.215 345.561 365.388 359.238 367.968C380.661 372.014 393.159 384.185 390.783 396.939C388.406 409.692 341.081 443.891 298.065 453.165Z" fill="#333333"/>
<path d="M298.065 453.165C298.065 453.165 271.103 446.205 249.082 431.72C227.061 417.235 209.861 400.419 179.171 403.898" stroke="#D8D8D8" stroke-width="1.10311" stroke-linecap="round" stroke-linejoin="round"/>
<path d="M244.038 428.307C257.955 424.411 268.162 415.636 279.327 407.228C291.102 398.025 303.748 389.93 317.094 383.053" stroke="#D8D8D8" stroke-width="1.10311" stroke-linecap="round" stroke-linejoin="round"/>
<path d="M231.676 343L220 350.129L230.841 359.48" stroke="#333333" stroke-width="3" stroke-linecap="round" stroke-linejoin="round"/>
<path d="M257.905 359.426L268.399 350.725L256.291 343" stroke="#333333" stroke-width="3" stroke-linecap="round" stroke-linejoin="round"/>
<path d="M239.676 365.319L248.291 339" stroke="#333333" stroke-width="3" stroke-linecap="round" stroke-linejoin="round"/>
<path d="M128.67 94.5476L132.792 134.09C132.937 135.477 132.838 136.876 132.501 138.207C132.163 139.538 131.595 140.774 130.827 141.846C130.059 142.917 129.108 143.803 128.027 144.452C126.945 145.101 125.756 145.5 124.526 145.627L43.7999 154.044C42.5701 154.173 41.3237 154.027 40.132 153.615C38.9402 153.204 37.8264 152.533 36.8542 151.643C35.882 150.753 35.0705 149.661 34.466 148.428C33.8616 147.195 33.476 145.847 33.3313 144.459L29.2087 104.917C28.9182 102.115 29.6255 99.3249 31.1753 97.1603C32.7251 94.9957 34.9907 93.6334 37.4744 93.3726L118.2 84.9563C120.685 84.6972 123.183 85.5622 125.147 87.3609C127.11 89.1597 128.377 91.7448 128.67 94.5476Z" fill="#D8D8D8" stroke="#333333" stroke-opacity="0.9" stroke-width="1.10311" stroke-miterlimit="10"/>
<path d="M128.67 94.5476L128.764 95.453L29.3031 105.823L29.2087 104.917C28.9182 102.115 29.6255 99.3249 31.1753 97.1603C32.7251 94.9957 34.9907 93.6334 37.4744 93.3726L118.2 84.9563C120.685 84.6972 123.183 85.5622 125.147 87.3609C127.11 89.1597 128.377 91.7448 128.67 94.5476Z" fill="#10B9AA" fill-opacity="0.9" stroke="#333333" stroke-opacity="0.9" stroke-width="1.10311" stroke-miterlimit="10"/>
<path d="M68.9151 109.042L36.4043 112.432L39.7097 144.136L72.2204 140.746L68.9151 109.042Z" stroke="#333333" stroke-opacity="0.9" stroke-width="1.10311" stroke-linecap="round" stroke-linejoin="round" stroke-dasharray="4.41 4.41"/>
<path d="M111.35 104.618L73.9336 108.519L74.1661 110.749L111.582 106.848L111.35 104.618Z" fill="#333333" fill-opacity="0.9"/>
<path d="M74.4827 108.965L110.904 105.167L111.033 106.403L74.6115 110.2L74.4827 108.965Z" stroke="#333333" stroke-opacity="0.9"/>
<path d="M103.117 110.142L74.415 113.134L74.6468 115.357L103.348 112.365L103.117 110.142Z" fill="#333333" fill-opacity="0.9"/>
<path d="M74.9642 113.58L102.671 110.691L102.799 111.919L75.0923 114.808L74.9642 113.58Z" stroke="#333333" stroke-opacity="0.9"/>
<path d="M117.629 113.273L74.894 117.729L75.1286 119.979L117.863 115.524L117.629 113.273Z" fill="#333333" fill-opacity="0.9"/>
<path d="M75.4432 118.174L117.183 113.823L117.314 115.078L75.5741 119.43L75.4432 118.174Z" stroke="#333333" stroke-opacity="0.9"/>
<path d="M111.753 118.415L75.3608 122.209L75.5954 124.459L111.987 120.665L111.753 118.415Z" fill="#333333" fill-opacity="0.9"/>
<path d="M75.91 122.654L111.307 118.964L111.438 120.219L76.0409 123.91L75.91 122.654Z" stroke="#333333" stroke-opacity="0.9"/>
<path d="M458.837 80.8661L442.807 163.997C442.617 164.986 442.229 165.927 441.665 166.766C441.101 167.606 440.371 168.326 439.518 168.887C438.666 169.449 437.706 169.839 436.695 170.037C435.684 170.235 434.641 170.236 433.625 170.04L371.967 158.15C370.952 157.954 369.985 157.565 369.12 157.005C368.256 156.445 367.511 155.726 366.929 154.888C366.347 154.05 365.938 153.11 365.726 152.122C365.515 151.134 365.504 150.117 365.696 149.128L381.726 65.997C382.111 64.0016 383.293 62.2448 385.014 61.1127C386.734 59.9805 388.852 59.5656 390.901 59.9592L452.559 71.8486C454.609 72.2439 456.422 73.416 457.6 75.1071C458.777 76.7982 459.222 78.8698 458.837 80.8661Z" fill="#D8D8D8" stroke="#333333" stroke-opacity="0.9" stroke-width="1.10311" stroke-linecap="round" stroke-linejoin="round"/>
<path d="M458.837 80.8661L457.979 85.3158L380.868 70.4466L381.726 65.997C382.111 64.0016 383.293 62.2448 385.014 61.1127C386.734 59.9805 388.852 59.5656 390.901 59.9592L452.559 71.8486C454.609 72.2439 456.422 73.416 457.6 75.1071C458.777 76.7982 459.222 78.8698 458.837 80.8661Z" fill="#10B9AA" fill-opacity="0.9" stroke="#333333" stroke-opacity="0.9" stroke-width="1.10311" stroke-miterlimit="10"/>
<path d="M405.509 80.5456L386.536 76.8871L385.938 79.9876L404.911 83.646L405.509 80.5456Z" fill="#333333" fill-opacity="0.9"/>
<path d="M400 108.163L381.027 104.504L380.429 107.605L399.402 111.263L400 108.163Z" fill="#333333" fill-opacity="0.9"/>
<path d="M395.882 133.636L376.91 129.978L376.312 133.078L395.285 136.737L395.882 133.636Z" fill="#333333" fill-opacity="0.9"/>
<path d="M439.527 95.0671L385.645 84.6772L385.207 86.9509L439.088 97.3407L439.527 95.0671Z" fill="#333333" fill-opacity="0.9"/>
<path d="M428.973 97.5399L384.807 89.0235L384.38 91.2397L428.545 99.7561L428.973 97.5399Z" fill="#333333" fill-opacity="0.9"/>
<path d="M433.931 102.933L383.982 93.3009L383.555 95.5171L433.504 105.149L433.931 102.933Z" fill="#333333" fill-opacity="0.9"/>
<path d="M433.108 107.204L383.159 97.5726L382.731 99.7888L432.681 109.42L433.108 107.204Z" fill="#333333" fill-opacity="0.9"/>
<path d="M434.669 120.261L380.787 109.871L380.349 112.145L434.231 122.534L434.669 120.261Z" fill="#333333" fill-opacity="0.9"/>
<path d="M424.114 122.734L379.949 114.217L379.521 116.433L423.687 124.95L424.114 122.734Z" fill="#333333" fill-opacity="0.9"/>
<path d="M429.073 128.126L379.124 118.495L378.697 120.711L428.646 130.342L429.073 128.126Z" fill="#333333" fill-opacity="0.9"/>
<path d="M429.335 147.923L375.453 137.533L375.015 139.807L428.897 150.197L429.335 147.923Z" fill="#333333" fill-opacity="0.9"/>
<path d="M418.779 150.402L374.614 141.885L374.186 144.102L418.352 152.618L418.779 150.402Z" fill="#333333" fill-opacity="0.9"/>
<path d="M423.738 155.794L373.789 146.163L373.362 148.379L423.311 158.011L423.738 155.794Z" fill="#333333" fill-opacity="0.9"/>
<path d="M266.639 248V242.182H270.247V242.938H267.517V244.71H269.989V245.463H267.517V248H266.639ZM271.092 248H270.16L272.254 242.182H273.268L275.362 248H274.43L272.785 243.239H272.739L271.092 248ZM271.248 245.722H274.271V246.46H271.248V245.722ZM275.227 242.938V242.182H279.73V242.938H277.915V248H277.04V242.938H275.227ZM281.603 242.182V248H280.725V242.182H281.603ZM282.881 248V242.182H283.759V244.71H286.66V242.182H287.54V248H286.66V245.463H283.759V248H282.881ZM268.523 258H266.639V252.182H268.582C269.152 252.182 269.642 252.298 270.051 252.531C270.46 252.762 270.774 253.095 270.991 253.528C271.211 253.96 271.321 254.478 271.321 255.082C271.321 255.688 271.21 256.209 270.989 256.645C270.769 257.08 270.451 257.416 270.034 257.651C269.617 257.884 269.114 258 268.523 258ZM267.517 257.233H268.474C268.918 257.233 269.286 257.15 269.58 256.983C269.873 256.814 270.093 256.571 270.239 256.253C270.384 255.933 270.457 255.543 270.457 255.082C270.457 254.626 270.384 254.239 270.239 253.92C270.095 253.602 269.88 253.361 269.594 253.196C269.308 253.031 268.953 252.949 268.528 252.949H267.517V257.233ZM273.29 252.182V258H272.413V252.182H273.29ZM278.506 254.02C278.451 253.848 278.378 253.693 278.285 253.557C278.194 253.419 278.085 253.301 277.958 253.205C277.831 253.106 277.686 253.031 277.523 252.98C277.362 252.929 277.185 252.903 276.992 252.903C276.665 252.903 276.369 252.988 276.106 253.156C275.843 253.325 275.634 253.572 275.481 253.898C275.329 254.222 275.254 254.618 275.254 255.088C275.254 255.56 275.33 255.958 275.484 256.284C275.637 256.61 275.847 256.857 276.114 257.026C276.381 257.194 276.685 257.278 277.026 257.278C277.343 257.278 277.618 257.214 277.853 257.085C278.09 256.956 278.272 256.775 278.401 256.54C278.532 256.303 278.597 256.025 278.597 255.705L278.825 255.747H277.16V255.023H279.447V255.685C279.447 256.173 279.343 256.598 279.134 256.957C278.928 257.315 278.642 257.592 278.276 257.787C277.913 257.982 277.496 258.08 277.026 258.08C276.5 258.08 276.038 257.958 275.64 257.716C275.244 257.473 274.935 257.13 274.714 256.685C274.492 256.238 274.381 255.707 274.381 255.094C274.381 254.63 274.446 254.213 274.575 253.844C274.703 253.474 274.884 253.161 275.117 252.903C275.352 252.644 275.628 252.446 275.944 252.31C276.262 252.171 276.61 252.102 276.987 252.102C277.301 252.102 277.594 252.149 277.864 252.241C278.137 252.334 278.379 252.466 278.592 252.636C278.806 252.807 278.983 253.009 279.123 253.244C279.263 253.477 279.358 253.736 279.407 254.02H278.506ZM281.439 252.182V258H280.561V252.182H281.439ZM282.43 252.938V252.182H286.933V252.938H285.118V258H284.243V252.938H282.43ZM287.732 258H286.8L288.894 252.182H289.908L292.002 258H291.07L289.425 253.239H289.38L287.732 258ZM287.888 255.722H290.911V256.46H287.888V255.722Z" fill="#D8D8D8"/>
<path d="M292.842 258V252.182H293.72V257.244H296.357V258H292.842Z" fill="#CACACA"/>
</svg>
