<svg width="500" height="500" viewBox="0 0 500 500" fill="none" xmlns="http://www.w3.org/2000/svg">
<g clip-path="url(#clip0_3112_807)">
<g opacity="0.8">
<path d="M382.447 8.05489V278.151C382.343 280.097 381.781 281.991 380.807 283.679C379.833 285.367 378.475 286.802 376.843 287.867L12.7912 498.448C12.2437 498.788 11.6159 498.977 10.9717 498.994C10.736 499.021 10.4979 499.021 10.2622 498.994C10.0984 498.959 9.9396 498.904 9.7891 498.83L9.4798 498.649L9.1523 498.43C9.04095 498.349 8.93741 498.258 8.843 498.157C8.40322 497.74 8.05072 497.239 7.80592 496.684C7.41769 495.788 7.21944 494.821 7.2237 493.845V225.005C7.33282 223.055 7.89845 221.159 8.875 219.468C9.85154 217.777 11.2117 216.34 12.8458 215.271L376.843 4.85268C377.386 4.47561 378.012 4.23563 378.668 4.15325C379.324 4.07087 379.99 4.14855 380.609 4.37963C380.78 4.45652 380.945 4.54781 381.1 4.65254C381.244 4.75667 381.367 4.88615 381.464 5.03462C381.528 5.09284 381.584 5.16029 381.628 5.23476C381.705 5.32037 381.767 5.41891 381.81 5.52587C381.955 5.74385 382.066 5.98328 382.137 6.23545C382.201 6.39924 382.244 6.57041 382.265 6.7449C382.273 6.76196 382.277 6.7806 382.277 6.79948C382.277 6.81836 382.273 6.837 382.265 6.85406C382.314 7.0199 382.345 7.1908 382.356 7.36351C382.429 7.56365 382.447 7.80017 382.447 8.05489Z" fill="#455A64"/>
<path d="M379.335 5.87144C379.523 5.87238 379.708 5.90944 379.881 5.9806H379.99L380.136 6.18074L380.281 6.38088C380.281 6.38088 380.281 6.38088 380.281 6.47185L380.445 6.99949C380.443 7.0419 380.443 7.08444 380.445 7.12685C380.445 7.3088 380.445 7.49074 380.445 7.69088V278.151C380.345 279.779 379.869 281.363 379.055 282.777C378.24 284.191 377.11 285.397 375.751 286.302L11.8814 496.884C11.5989 497.066 11.2715 497.167 10.9353 497.175H10.5532H10.4258L10.1893 497.011V496.92C9.92835 496.683 9.72328 496.391 9.58886 496.065C9.29445 495.4 9.14557 494.681 9.15219 493.954V225.005C9.25167 223.374 9.72923 221.788 10.5471 220.373C11.365 218.959 12.5007 217.754 13.8646 216.854L377.734 6.38088C378.219 6.08467 378.768 5.9099 379.335 5.87144ZM379.335 4.052C378.454 4.07905 377.594 4.33621 376.843 4.79797L12.7911 215.289C11.1594 216.356 9.80071 217.791 8.82429 219.478C7.84787 221.165 7.28092 223.058 7.16901 225.005V493.736C7.16475 494.712 7.363 495.679 7.75123 496.574C7.99603 497.129 8.34853 497.63 8.78831 498.048C8.88272 498.148 8.98626 498.24 9.09761 498.321L9.42511 498.539L9.73442 498.721C9.88491 498.795 10.0438 498.85 10.2075 498.885C10.4433 498.911 10.6813 498.911 10.9171 498.885H11.008C11.6521 498.867 12.28 498.679 12.8275 498.339L376.843 287.866C378.475 286.802 379.833 285.367 380.807 283.679C381.781 281.991 382.342 280.097 382.447 278.151V8.05476C382.447 7.80004 382.447 7.56352 382.447 7.34518C382.436 7.17248 382.405 7.00158 382.356 6.83574C382.364 6.81868 382.368 6.80004 382.368 6.78116C382.368 6.76228 382.364 6.74363 382.356 6.72657C382.335 6.55208 382.292 6.38092 382.228 6.21713C382.157 5.96496 382.046 5.72554 381.901 5.50755C381.858 5.40059 381.796 5.30205 381.719 5.21644C381.674 5.14197 381.619 5.07452 381.555 5.0163C381.458 4.86784 381.335 4.73835 381.191 4.63422C381.035 4.52949 380.871 4.43819 380.7 4.3613C380.301 4.17708 379.866 4.08386 379.426 4.08839L379.335 4.052Z" fill="#455A64"/>
<g opacity="0.7">
<path d="M382.447 8.05489V278.151C382.343 280.097 381.781 281.991 380.807 283.679C379.833 285.367 378.475 286.802 376.843 287.867L12.7912 498.448C12.2437 498.788 11.6159 498.977 10.9717 498.994C10.736 499.021 10.4979 499.021 10.2622 498.994C10.0984 498.959 9.9396 498.904 9.7891 498.83L9.4798 498.649L9.1523 498.43C9.04095 498.349 8.93741 498.258 8.843 498.157C8.40322 497.74 8.05072 497.239 7.80592 496.684C7.41769 495.788 7.21944 494.821 7.2237 493.845V225.005C7.33282 223.055 7.89845 221.159 8.875 219.468C9.85154 217.777 11.2117 216.34 12.8458 215.271L376.843 4.85268C377.386 4.47561 378.012 4.23563 378.668 4.15325C379.324 4.07087 379.99 4.14855 380.609 4.37963C380.78 4.45652 380.945 4.54781 381.1 4.65254C381.244 4.75667 381.367 4.88615 381.464 5.03462C381.528 5.09284 381.584 5.16029 381.628 5.23476C381.705 5.32037 381.767 5.41891 381.81 5.52587C381.955 5.74385 382.066 5.98328 382.137 6.23545C382.201 6.39924 382.244 6.57041 382.265 6.7449C382.273 6.76196 382.277 6.7806 382.277 6.79948C382.277 6.81836 382.273 6.837 382.265 6.85406C382.314 7.0199 382.345 7.1908 382.356 7.36351C382.429 7.56365 382.447 7.80017 382.447 8.05489Z" fill="#455A64"/>
</g>
</g>
<path d="M380.609 4.32472C379.989 4.09364 379.323 4.01598 378.667 4.09836C378.011 4.18074 377.385 4.42072 376.842 4.79778L12.7907 215.289C11.159 216.356 9.8003 217.79 8.82388 219.478C7.84745 221.165 7.28051 223.058 7.1686 225.005V243.344L0 239.142V220.947C0.106973 219.004 0.670053 217.114 1.64363 215.429C2.61721 213.744 3.97392 212.312 5.60388 211.25L369.674 0.758624C370.255 0.329568 370.945 0.071544 371.665 0.0136745C372.385 -0.044195 373.107 0.100394 373.749 0.431125C374.75 1.03154 379.408 3.70611 380.609 4.32472Z" fill="#32ADE6"/>
<path d="M382.447 8.00023C382.447 4.47052 379.918 3.03316 376.843 4.81621L12.7728 215.307C11.1429 216.37 9.78616 217.802 8.81258 219.487C7.839 221.171 7.27592 223.062 7.16895 225.005V243.345L382.447 26.413V8.00023Z" fill="#32ADE6"/>
<g opacity="0.4">
<path d="M376.843 4.85263L12.7913 215.307C11.1287 216.353 9.76773 217.814 8.84314 219.547L1.71094 215.435C2.63936 213.756 3.97917 212.341 5.60454 211.323L369.674 0.758895C370.257 0.332732 370.945 0.0750396 371.664 0.014063C372.383 -0.0469137 373.104 0.0911812 373.75 0.413204C374.751 1.03181 379.408 3.68819 380.591 4.32499C379.972 4.09366 379.305 4.02075 378.65 4.1129C377.995 4.20504 377.374 4.45933 376.843 4.85263Z" fill="#FAFAFA"/>
</g>
<path opacity="0.15" d="M0 239.178V220.984C0.0782916 219 0.66739 217.07 1.71028 215.38L8.86068 219.474C7.81484 221.154 7.23115 223.081 7.1686 225.059V243.399L0 239.178Z" fill="black"/>
<path d="M348.751 28.8874C347.743 29.6886 346.934 30.7108 346.385 31.875C345.836 33.0392 345.562 34.3142 345.585 35.6012C345.585 38.2939 347.004 39.6585 348.751 38.6578C349.758 37.8567 350.568 36.8344 351.117 35.6702C351.666 34.506 351.939 33.231 351.916 31.9441C351.825 29.2513 350.406 27.8867 348.751 28.8874Z" fill="#455A64"/>
<path d="M360.067 22.301C359.059 23.0975 358.249 24.1162 357.7 25.2777C357.151 26.4392 356.877 27.712 356.902 28.9965C356.902 31.6893 358.321 33.0539 360.067 32.0532C361.088 31.2595 361.912 30.2405 362.473 29.0759C363.035 27.9112 363.32 26.6325 363.306 25.3395C363.306 22.6467 361.814 21.2275 360.067 22.301Z" fill="#455A64"/>
<path d="M371.476 15.7693C370.465 16.5677 369.653 17.5894 369.104 18.7542C368.555 19.9191 368.283 21.1955 368.31 22.4831C368.31 25.1758 369.729 26.5404 371.476 25.5215C372.486 24.7232 373.298 23.7015 373.847 22.5366C374.397 21.3717 374.669 20.0954 374.642 18.8078C374.642 16.0422 373.222 14.6777 371.476 15.7693Z" fill="#455A64"/>
<path opacity="0.9" d="M9.22473 498.467L8.53335 498.066C8.0239 497.757 7.42349 497.429 6.71391 497.102L5.76779 496.574L4.29405 495.737C3.82099 495.446 3.40252 495.21 3.05683 495.028C2.71114 494.846 2.47461 494.7 2.36545 494.646C1.993 494.455 1.66453 494.188 1.40113 493.863C1.09321 493.53 0.841303 493.149 0.65517 492.735C0.216791 491.809 -0.00708887 490.795 0.000171088 489.77V239.16L7.16877 243.363V493.754C7.19746 494.727 7.39444 495.687 7.75099 496.592C7.99579 497.148 8.34829 497.648 8.78807 498.066C8.86891 498.18 8.97473 498.273 9.09737 498.339L9.22473 498.467Z" fill="#37474F"/>
<path d="M128.872 336.846C128.872 336.846 115.626 328.276 113.916 328.222L76.2534 327.039L91.2274 335.008V335.663L128.872 336.846Z" fill="#263238"/>
<path d="M64.3174 362.664V339.011L128.871 258.755V290.05L91.2269 334.935V335.59L128.871 336.773V368.067L64.3174 362.664Z" fill="#FAFAFA"/>
<path d="M128.871 258.828L113.916 250.204L49.3438 330.459L64.3177 339.084L128.871 258.828Z" fill="#455A64"/>
<path d="M49.3438 330.459V354.039L64.3177 362.664V339.084L49.3438 330.459Z" fill="#37474F"/>
<path d="M167.953 352.639L147.939 364.21L197.901 181.084L217.223 169.93L167.953 352.639Z" fill="#FAFAFA"/>
<path d="M217.205 169.93L202.231 161.306L182.909 172.459L197.864 181.084L217.205 169.93Z" fill="#455A64"/>
<path d="M182.908 172.459L197.864 181.084L147.92 364.21L132.946 355.586L182.908 172.459Z" fill="#37474F"/>
<path d="M221.281 266.233L236.237 274.857L273.881 229.553L258.925 220.929L221.281 266.233Z" fill="#263238"/>
<path d="M273.881 229.553L236.237 228.134V196.84L300.79 202.553V226.206L236.237 306.261V274.857L273.881 230.208V229.553Z" fill="#FAFAFA"/>
<path d="M221.281 188.216L236.237 196.84L300.808 202.553L285.834 193.929L221.281 188.216Z" fill="#455A64"/>
<path d="M236.237 196.84V228.134L221.281 219.51V188.216" fill="#37474F"/>
<path d="M221.281 266.233L236.237 274.857V306.152L221.281 297.528V266.233Z" fill="#37474F"/>
<g opacity="0.8">
<path d="M500 54.6326V324.728C499.895 326.679 499.332 328.577 498.355 330.268C497.378 331.96 496.015 333.397 494.378 334.462L339.198 423.979C338.655 424.328 338.024 424.517 337.379 424.525C337.14 424.521 336.901 424.491 336.669 424.434L336.178 424.27L335.887 424.088L335.559 423.87C335.448 423.788 335.344 423.697 335.25 423.597C334.804 423.184 334.451 422.682 334.213 422.123C333.825 421.227 333.626 420.261 333.631 419.285V150.553C333.736 148.605 334.299 146.709 335.272 145.018C336.245 143.327 337.603 141.889 339.235 140.819L494.305 51.394C494.849 51.0109 495.477 50.766 496.137 50.6804C496.796 50.5948 497.467 50.6711 498.09 50.9027C498.258 50.9822 498.416 51.0799 498.563 51.1939C498.701 51.2973 498.823 51.4198 498.927 51.5577C498.991 51.616 499.046 51.6834 499.09 51.7579C499.168 51.8435 499.229 51.942 499.272 52.049C499.427 52.2707 499.544 52.5167 499.618 52.7768C499.682 52.9343 499.725 53.0994 499.745 53.268C499.754 53.2851 499.758 53.3037 499.758 53.3226C499.758 53.3415 499.754 53.3601 499.745 53.3772C499.795 53.543 499.825 53.7139 499.836 53.8866C499.982 54.1595 500 54.3961 500 54.6326Z" fill="#455A64"/>
<path d="M496.871 52.4492C497.06 52.4458 497.248 52.4896 497.416 52.5766H497.525L497.689 52.7767L497.817 52.995L497.999 53.5227C498.007 53.5647 498.007 53.608 497.999 53.65C498.009 53.8318 498.009 54.0141 497.999 54.1959V324.728C497.895 326.358 497.416 327.942 496.598 329.356C495.781 330.77 494.647 331.976 493.286 332.879L338.306 422.414C338.024 422.597 337.696 422.697 337.36 422.705H336.978H336.851L336.614 422.56C336.365 422.316 336.167 422.026 336.032 421.704C335.738 421.04 335.589 420.321 335.595 419.594V150.553C335.696 148.925 336.172 147.341 336.986 145.927C337.8 144.513 338.931 143.306 340.29 142.402L495.47 52.9768C495.944 52.6687 496.488 52.4871 497.052 52.4492M497.052 50.6298C496.17 50.6664 495.311 50.9296 494.56 51.3939L339.38 140.819C337.748 141.889 336.391 143.327 335.417 145.018C334.444 146.709 333.882 148.605 333.776 150.553V419.285C333.772 420.261 333.97 421.227 334.358 422.123C334.596 422.682 334.95 423.184 335.395 423.597C335.49 423.697 335.593 423.788 335.705 423.87L336.032 424.088L336.323 424.27L336.814 424.434C337.047 424.491 337.285 424.521 337.524 424.525C338.169 424.515 338.799 424.326 339.343 423.979L494.305 334.462C495.94 333.395 497.301 331.957 498.278 330.266C499.254 328.575 499.819 326.678 499.927 324.728V54.6325C499.927 54.396 499.927 54.1595 499.927 53.9229C499.916 53.7502 499.886 53.5793 499.836 53.4135C499.844 53.3964 499.848 53.3778 499.848 53.3589C499.848 53.34 499.844 53.3214 499.836 53.3043C499.815 53.1357 499.773 52.9706 499.709 52.8131C499.635 52.553 499.518 52.307 499.363 52.0853C499.32 51.9783 499.258 51.8798 499.181 51.7942C499.137 51.7197 499.082 51.6523 499.017 51.5941C498.914 51.4561 498.792 51.3336 498.654 51.2302C498.507 51.1162 498.348 51.0186 498.181 50.9391C497.775 50.7545 497.334 50.6613 496.889 50.6661L497.052 50.6298Z" fill="#455A64"/>
<g opacity="0.8">
<path d="M500 54.6326V324.728C499.895 326.679 499.332 328.577 498.355 330.268C497.378 331.96 496.015 333.397 494.378 334.462L339.198 423.979C338.655 424.328 338.024 424.517 337.379 424.525C337.14 424.521 336.901 424.491 336.669 424.434L336.178 424.27L335.887 424.088L335.559 423.87C335.448 423.788 335.344 423.697 335.25 423.597C334.804 423.184 334.451 422.682 334.213 422.123C333.825 421.227 333.626 420.261 333.631 419.285V150.553C333.736 148.605 334.299 146.709 335.272 145.018C336.245 143.327 337.603 141.889 339.235 140.819L494.305 51.394C494.849 51.0109 495.477 50.766 496.137 50.6804C496.796 50.5948 497.467 50.6711 498.09 50.9027C498.258 50.9822 498.416 51.0799 498.563 51.1939C498.701 51.2973 498.823 51.4198 498.927 51.5577C498.991 51.616 499.046 51.6834 499.09 51.7579C499.168 51.8435 499.229 51.942 499.272 52.049C499.427 52.2707 499.544 52.5167 499.618 52.7768C499.682 52.9343 499.725 53.0994 499.745 53.268C499.754 53.2851 499.758 53.3037 499.758 53.3226C499.758 53.3415 499.754 53.3601 499.745 53.3772C499.795 53.543 499.825 53.7139 499.836 53.8866C499.982 54.1595 500 54.3961 500 54.6326Z" fill="#455A64"/>
</g>
</g>
<path d="M498.163 50.9027C497.54 50.6711 496.87 50.5948 496.21 50.6804C495.551 50.766 494.922 51.0109 494.379 51.3939L339.199 140.819C337.567 141.889 336.21 143.327 335.236 145.018C334.263 146.709 333.701 148.605 333.595 150.553V168.893L326.426 164.69V146.496C326.533 144.553 327.096 142.663 328.07 140.978C329.043 139.293 330.4 137.861 332.03 136.798L487.228 47.3548C487.81 46.935 488.496 46.6825 489.211 46.6248C489.927 46.5671 490.644 46.7063 491.286 47.0273C492.305 47.6095 496.962 50.3387 498.163 50.9027Z" fill="#32ADE6"/>
<path d="M499.982 54.5961C499.982 50.9573 497.471 49.6109 494.378 51.3939L339.198 140.838C337.566 141.902 336.208 143.337 335.234 145.025C334.26 146.713 333.698 148.607 333.594 150.553V168.893L499.982 73.0089V54.5961Z" fill="#32ADE6"/>
<g opacity="0.4">
<path d="M494.305 51.3939L339.143 140.838C337.491 141.862 336.126 143.289 335.177 144.986L328.063 140.874C328.986 139.197 330.328 137.787 331.956 136.78L487.209 47.3365C487.794 46.9151 488.483 46.6618 489.201 46.6041C489.92 46.5464 490.64 46.6864 491.285 47.009C492.304 47.6276 496.943 50.2658 498.126 50.9026C497.499 50.6582 496.82 50.5751 496.153 50.6609C495.485 50.7467 494.85 50.9988 494.305 51.3939Z" fill="#FAFAFA"/>
</g>
<path opacity="0.15" d="M326.426 164.709V146.514C326.507 144.531 327.096 142.601 328.137 140.91L335.269 145.004C334.236 146.689 333.66 148.614 333.595 150.59V168.93L326.426 164.709Z" fill="black"/>
<path d="M466.195 75.4832C465.187 76.2797 464.377 77.2985 463.827 78.46C463.278 79.6215 463.005 80.8942 463.029 82.1788C463.029 84.8716 464.448 86.2361 466.195 85.2354C467.203 84.4343 468.012 83.4121 468.561 82.2478C469.11 81.0836 469.384 79.8087 469.361 78.5217C469.361 75.8107 467.942 74.4644 466.195 75.4832Z" fill="#455A64"/>
<path d="M477.603 68.8787C476.594 69.6789 475.784 70.7009 475.235 71.8654C474.686 73.0298 474.413 74.3052 474.437 75.5924C474.437 78.2852 475.856 79.6498 477.603 78.6309C478.616 77.8354 479.431 76.8142 479.98 75.6487C480.53 74.4831 480.8 73.2054 480.768 71.9171C480.768 69.2244 479.368 67.8598 477.603 68.8787Z" fill="#455A64"/>
<path d="M489.011 62.2742C488.003 63.0753 487.194 64.0976 486.645 65.2618C486.096 66.426 485.822 67.7009 485.845 68.9879C485.845 71.6807 487.264 73.0452 489.011 72.0264C490.024 71.2337 490.84 70.2161 491.392 69.054C491.945 67.892 492.219 66.6173 492.195 65.3308C492.195 62.6381 490.775 61.2553 489.011 62.2742Z" fill="#455A64"/>
<path opacity="0.9" d="M335.65 423.997L334.959 423.597L333.23 422.632L332.284 422.087L330.81 421.25C330.337 420.958 329.901 420.722 329.573 420.54C329.246 420.358 328.991 420.213 328.882 420.158C328.509 419.967 328.181 419.701 327.917 419.376C327.61 419.042 327.358 418.661 327.172 418.247C326.733 417.321 326.509 416.307 326.517 415.282V164.69L333.685 168.893V419.285C333.714 420.257 333.911 421.217 334.267 422.123C334.505 422.682 334.859 423.184 335.304 423.597C335.385 423.71 335.491 423.803 335.614 423.87C335.619 423.914 335.631 423.957 335.65 423.997Z" fill="#37474F"/>
<path d="M347.367 184.122C347.383 183.758 347.483 183.404 347.658 183.085L351.697 174.734C351.734 174.639 351.797 174.557 351.879 174.497V174.406C351.927 174.371 351.984 174.352 352.043 174.352C352.102 174.352 352.16 174.371 352.207 174.406C352.255 174.46 352.292 174.524 352.314 174.593C352.336 174.662 352.343 174.734 352.334 174.806V177.699C352.368 177.989 352.368 178.283 352.334 178.573C352.257 178.835 352.16 179.09 352.043 179.337L349.914 183.74L352.043 185.705C352.168 185.823 352.267 185.965 352.334 186.123C352.372 186.383 352.372 186.646 352.334 186.906V189.708C352.336 189.903 352.292 190.096 352.207 190.272C352.138 190.428 352.024 190.561 351.879 190.654C351.851 190.667 351.82 190.674 351.788 190.674C351.757 190.674 351.726 190.667 351.697 190.654L347.658 187.015C347.558 186.927 347.479 186.818 347.429 186.695C347.378 186.571 347.357 186.438 347.367 186.305V184.122Z" fill="#32ADE6"/>
<path d="M362.123 163.144C362.194 162.86 362.298 162.585 362.433 162.325C362.557 162.053 362.768 161.829 363.033 161.688L364.543 160.815C364.563 160.795 364.588 160.778 364.614 160.767C364.641 160.756 364.669 160.751 364.698 160.751C364.727 160.751 364.755 160.756 364.782 160.767C364.808 160.778 364.832 160.795 364.853 160.815C364.904 160.867 364.944 160.93 364.969 160.999C364.994 161.068 365.004 161.142 364.998 161.215C365.014 161.318 365.014 161.422 364.998 161.525L358.084 190.999C358.022 191.278 357.924 191.547 357.793 191.8C357.67 192.083 357.46 192.319 357.193 192.473L355.737 193.31C355.694 193.347 355.639 193.368 355.582 193.368C355.526 193.368 355.471 193.347 355.428 193.31C355.326 193.195 355.274 193.045 355.282 192.892C355.275 192.789 355.275 192.685 355.282 192.582L362.123 163.144Z" fill="#32ADE6"/>
<path d="M372.822 171.513C372.815 171.876 372.721 172.231 372.549 172.55L368.51 180.902C368.461 180.994 368.4 181.08 368.328 181.156H368.219C368.174 181.19 368.12 181.209 368.064 181.209C368.008 181.209 367.954 181.19 367.909 181.156C367.814 181.039 367.768 180.889 367.782 180.738V177.936C367.748 177.646 367.748 177.353 367.782 177.063C367.851 176.798 367.948 176.542 368.073 176.298L370.202 171.895L368.073 169.949C367.945 169.826 367.846 169.677 367.782 169.512C367.745 169.252 367.745 168.989 367.782 168.73V165.928C367.782 165.732 367.826 165.54 367.909 165.364C367.978 165.212 368.085 165.081 368.219 164.981H368.328C368.328 164.981 368.437 164.981 368.51 164.981L372.549 168.62C372.647 168.712 372.723 168.826 372.771 168.952C372.818 169.078 372.836 169.214 372.822 169.348V171.513Z" fill="#32ADE6"/>
<path d="M384.03 169.566C384.087 169.522 384.157 169.498 384.23 169.498C384.302 169.498 384.373 169.522 384.43 169.566C384.49 169.636 384.535 169.717 384.563 169.805C384.591 169.892 384.602 169.984 384.594 170.076V173.151C384.594 173.391 384.537 173.627 384.43 173.842C384.352 174.044 384.212 174.216 384.03 174.333L382.21 175.425C382.159 175.475 382.091 175.503 382.019 175.503C381.948 175.503 381.879 175.475 381.828 175.425C381.767 175.36 381.721 175.282 381.692 175.197C381.664 175.113 381.655 175.023 381.664 174.934V171.841C381.667 171.601 381.722 171.365 381.828 171.149C381.905 170.957 382.038 170.792 382.21 170.676L384.03 169.566Z" fill="#32ADE6"/>
<path d="M390.398 165.909C390.454 165.862 390.525 165.836 390.598 165.836C390.671 165.836 390.742 165.862 390.798 165.909C390.858 165.979 390.903 166.06 390.931 166.148C390.959 166.235 390.97 166.327 390.962 166.419V169.494C390.962 169.734 390.906 169.97 390.798 170.185C390.72 170.387 390.58 170.559 390.398 170.676L388.578 171.768C388.521 171.812 388.451 171.836 388.378 171.836C388.306 171.836 388.235 171.812 388.178 171.768C388.118 171.698 388.073 171.617 388.045 171.53C388.017 171.442 388.006 171.35 388.014 171.259V168.166C388.019 167.926 388.075 167.69 388.178 167.474C388.256 167.277 388.397 167.11 388.578 167.001L390.398 165.909Z" fill="#32ADE6"/>
<path d="M396.765 162.234C396.816 162.184 396.885 162.156 396.956 162.156C397.028 162.156 397.097 162.184 397.148 162.234C397.207 162.304 397.253 162.385 397.281 162.472C397.309 162.56 397.319 162.652 397.311 162.744V165.818C397.309 166.064 397.254 166.306 397.148 166.528C397.065 166.717 396.933 166.881 396.765 167.001L394.855 168.093C394.802 168.139 394.734 168.164 394.664 168.164C394.594 168.164 394.526 168.139 394.473 168.093C394.413 168.023 394.368 167.942 394.34 167.855C394.312 167.767 394.301 167.675 394.309 167.583V164.49C394.314 164.251 394.37 164.015 394.473 163.799C394.555 163.61 394.687 163.446 394.855 163.326L396.765 162.234Z" fill="#32ADE6"/>
<path d="M349.078 206.628L442.306 152.809C443.416 152.173 444.307 152.628 444.307 153.81C444.259 154.481 444.052 155.131 443.704 155.706C443.357 156.282 442.877 156.767 442.306 157.122L349.078 210.959C347.968 211.596 347.076 211.141 347.076 209.94C347.126 209.269 347.333 208.62 347.681 208.045C348.029 207.469 348.507 206.984 349.078 206.628Z" fill="#32ADE6"/>
<path d="M378.989 241.18L472.217 187.342C473.327 186.706 474.218 187.16 474.218 188.361C474.169 189.032 473.961 189.681 473.614 190.256C473.266 190.832 472.787 191.317 472.217 191.673L378.989 245.492C377.879 246.128 376.988 245.674 376.988 244.491C377.036 243.82 377.243 243.17 377.59 242.595C377.938 242.019 378.418 241.534 378.989 241.18Z" fill="#E0E0E0"/>
<path d="M378.989 258.446L423.62 232.701C424.711 232.064 425.603 232.519 425.603 233.72C425.555 234.386 425.351 235.032 425.006 235.604C424.661 236.177 424.186 236.659 423.62 237.013L378.989 262.776C377.879 263.395 376.988 262.958 376.988 261.757C377.037 261.087 377.245 260.438 377.592 259.862C377.94 259.287 378.419 258.802 378.989 258.446Z" fill="#E0E0E0"/>
<path d="M378.989 275.713L423.62 249.968C424.711 249.349 425.603 249.786 425.603 250.986C425.552 251.654 425.347 252.302 425.003 252.876C424.658 253.451 424.185 253.938 423.62 254.298L378.989 280.043C377.879 280.68 376.988 280.225 376.988 279.024C377.037 278.354 377.245 277.704 377.592 277.129C377.94 276.554 378.419 276.068 378.989 275.713Z" fill="#E0E0E0"/>
<path d="M450.038 148.352L487.173 126.755C488.283 126.118 489.174 126.573 489.174 127.756C489.126 128.427 488.919 129.076 488.571 129.652C488.223 130.227 487.744 130.712 487.173 131.067L450.038 152.591C448.928 153.228 448.037 152.773 448.037 151.59C448.096 150.932 448.308 150.297 448.655 149.735C449.002 149.173 449.476 148.699 450.038 148.352Z" fill="#32ADE6"/>
<path d="M349.078 396.596L442.306 342.777C443.416 342.14 444.307 342.595 444.307 343.778C444.259 344.449 444.052 345.098 443.704 345.674C443.357 346.25 442.877 346.735 442.306 347.089L349.078 400.926C347.968 401.545 347.076 401.108 347.076 399.908C347.126 399.237 347.333 398.588 347.681 398.012C348.029 397.437 348.507 396.952 349.078 396.596Z" fill="#32ADE6"/>
<path d="M450.038 338.301L487.173 316.777C488.283 316.141 489.174 316.595 489.174 317.796C489.124 318.467 488.917 319.116 488.569 319.691C488.222 320.267 487.743 320.752 487.173 321.108L450.038 342.632C448.928 343.268 448.037 342.814 448.037 341.613C448.086 340.942 448.294 340.293 448.641 339.718C448.989 339.142 449.468 338.657 450.038 338.301Z" fill="#32ADE6"/>
<path d="M450.038 286.593L487.173 265.033C488.283 264.396 489.174 264.851 489.174 266.033C489.126 266.704 488.919 267.354 488.571 267.929C488.223 268.505 487.744 268.99 487.173 269.345L450.038 290.869C448.928 291.505 448.037 291.05 448.037 289.868C448.091 289.203 448.3 288.561 448.647 287.992C448.995 287.423 449.471 286.944 450.038 286.593Z" fill="#32ADE6"/>
<path d="M450.038 303.859L487.173 282.335C488.283 281.699 489.174 282.153 489.174 283.336C489.126 284.007 488.919 284.657 488.571 285.232C488.223 285.808 487.744 286.293 487.173 286.647L450.038 308.171C448.928 308.808 448.037 308.353 448.037 307.171C448.085 306.5 448.292 305.85 448.639 305.275C448.987 304.699 449.467 304.214 450.038 303.859Z" fill="#32ADE6"/>
<path d="M349.078 379.348L442.306 325.511C443.416 324.892 444.307 325.329 444.307 326.53C444.257 327.2 444.05 327.849 443.703 328.425C443.355 329 442.876 329.485 442.306 329.841L349.078 383.66C347.968 384.297 347.076 383.842 347.076 382.659C347.125 381.988 347.331 381.339 347.679 380.763C348.027 380.187 348.506 379.702 349.078 379.348Z" fill="#F5F5F5"/>
<path d="M418.362 304.824L439.231 292.779C440.323 292.142 441.214 292.597 441.214 293.78C441.166 294.448 440.962 295.097 440.617 295.672C440.273 296.247 439.798 296.733 439.231 297.091L418.362 309.136C417.252 309.773 416.361 309.336 416.361 308.135C416.409 307.464 416.615 306.814 416.963 306.239C417.311 305.663 417.791 305.178 418.362 304.824Z" fill="#32ADE6"/>
<path d="M349.078 223.949L403.461 192.528C404.553 191.891 405.444 192.346 405.444 193.528C405.396 194.197 405.192 194.845 404.847 195.421C404.503 195.996 404.028 196.482 403.461 196.84L349.078 228.262C347.968 228.898 347.076 228.443 347.076 227.261C347.125 226.59 347.331 225.94 347.679 225.365C348.027 224.789 348.506 224.304 349.078 223.949Z" fill="#32ADE6"/>
<path opacity="0.6" d="M349.078 223.949L403.461 192.528C404.553 191.891 405.444 192.346 405.444 193.528C405.396 194.197 405.192 194.845 404.847 195.421C404.503 195.996 404.028 196.482 403.461 196.84L349.078 228.262C347.968 228.898 347.076 228.443 347.076 227.261C347.125 226.59 347.331 225.94 347.679 225.365C348.027 224.789 348.506 224.304 349.078 223.949Z" fill="#FAFAFA"/>
<path d="M349.078 241.18L367.527 230.463C368.619 229.826 369.51 230.281 369.51 231.482C369.46 232.15 369.254 232.797 368.91 233.372C368.566 233.947 368.092 234.433 367.527 234.793L349.078 245.455C347.968 246.092 347.076 245.637 347.076 244.436C347.134 243.775 347.346 243.137 347.693 242.572C348.04 242.007 348.514 241.53 349.078 241.18Z" fill="#32ADE6"/>
<path opacity="0.6" d="M349.078 241.18L367.527 230.463C368.619 229.826 369.51 230.281 369.51 231.482C369.46 232.15 369.254 232.797 368.91 233.372C368.566 233.947 368.092 234.433 367.527 234.793L349.078 245.455C347.968 246.092 347.076 245.637 347.076 244.436C347.134 243.775 347.346 243.137 347.693 242.572C348.04 242.007 348.514 241.53 349.078 241.18Z" fill="#FAFAFA"/>
<path d="M349.078 258.464L367.527 247.784C368.619 247.147 369.51 247.602 369.51 248.803C369.46 249.471 369.254 250.118 368.91 250.693C368.566 251.268 368.092 251.754 367.527 252.114L349.078 262.776C347.968 263.413 347.076 262.958 347.076 261.757C347.125 261.089 347.331 260.442 347.679 259.869C348.027 259.296 348.507 258.815 349.078 258.464Z" fill="#32ADE6"/>
<path opacity="0.6" d="M349.078 258.464L367.527 247.784C368.619 247.147 369.51 247.602 369.51 248.803C369.46 249.471 369.254 250.118 368.91 250.693C368.566 251.268 368.092 251.754 367.527 252.114L349.078 262.776C347.968 263.413 347.076 262.958 347.076 261.757C347.125 261.089 347.331 260.442 347.679 259.869C348.027 259.296 348.507 258.815 349.078 258.464Z" fill="#FAFAFA"/>
<path d="M349.078 275.731L367.527 265.032C368.619 264.396 369.51 264.832 369.51 266.033C369.462 266.702 369.258 267.35 368.913 267.925C368.569 268.501 368.094 268.987 367.527 269.345L349.078 280.006C347.968 280.643 347.076 280.188 347.076 279.006C347.13 278.341 347.34 277.699 347.687 277.13C348.035 276.561 348.511 276.082 349.078 275.731Z" fill="#32ADE6"/>
<path opacity="0.6" d="M349.078 275.731L367.527 265.032C368.619 264.396 369.51 264.832 369.51 266.033C369.462 266.702 369.258 267.35 368.913 267.925C368.569 268.501 368.094 268.987 367.527 269.345L349.078 280.006C347.968 280.643 347.076 280.188 347.076 279.006C347.13 278.341 347.34 277.699 347.687 277.13C348.035 276.561 348.511 276.082 349.078 275.731Z" fill="#FAFAFA"/>
<path d="M349.078 292.997L367.527 282.335C368.619 281.699 369.51 282.153 369.51 283.336C369.462 284.005 369.258 284.653 368.913 285.228C368.569 285.803 368.094 286.29 367.527 286.647L349.078 297.309C347.968 297.946 347.076 297.491 347.076 296.309C347.125 295.638 347.331 294.988 347.679 294.412C348.027 293.837 348.506 293.352 349.078 292.997Z" fill="#32ADE6"/>
<path opacity="0.6" d="M349.078 292.997L367.527 282.335C368.619 281.699 369.51 282.153 369.51 283.336C369.462 284.005 369.258 284.653 368.913 285.228C368.569 285.803 368.094 286.29 367.527 286.647L349.078 297.309C347.968 297.946 347.076 297.491 347.076 296.309C347.125 295.638 347.331 294.988 347.679 294.412C348.027 293.837 348.506 293.352 349.078 292.997Z" fill="#FAFAFA"/>
<path d="M411.175 188.07L434.828 174.461C435.92 173.824 436.829 174.279 436.829 175.461C436.778 176.131 436.57 176.78 436.223 177.355C435.875 177.93 435.397 178.416 434.828 178.773L411.175 192.382C410.084 193.019 409.192 192.564 409.192 191.382C409.24 190.713 409.444 190.065 409.789 189.489C410.133 188.914 410.608 188.428 411.175 188.07Z" fill="#32ADE6"/>
<path opacity="0.6" d="M411.175 188.07L434.828 174.461C435.92 173.824 436.829 174.279 436.829 175.461C436.778 176.131 436.57 176.78 436.223 177.355C435.875 177.93 435.397 178.416 434.828 178.773L411.175 192.382C410.084 193.019 409.192 192.564 409.192 191.382C409.24 190.713 409.444 190.065 409.789 189.489C410.133 188.914 410.608 188.428 411.175 188.07Z" fill="#FAFAFA"/>
<path d="M401.514 280.006L455.806 248.657C456.897 248.021 457.789 248.476 457.789 249.676C457.738 250.344 457.533 250.992 457.188 251.566C456.844 252.141 456.371 252.628 455.806 252.988L401.514 284.337C400.422 284.973 399.512 284.519 399.512 283.318C399.562 282.647 399.769 281.998 400.117 281.423C400.465 280.847 400.943 280.362 401.514 280.006Z" fill="#F5F5F5"/>
<path d="M432.791 279.242L487.174 247.821C488.283 247.184 489.175 247.639 489.175 248.821C489.127 249.492 488.92 250.142 488.572 250.717C488.224 251.293 487.745 251.778 487.174 252.133L432.791 283.554C431.699 284.191 430.807 283.736 430.807 282.554C430.855 281.885 431.06 281.237 431.404 280.661C431.749 280.086 432.224 279.6 432.791 279.242Z" fill="#F5F5F5"/>
<path d="M463.539 244.127L487.192 230.518C488.302 229.881 489.194 230.336 489.194 231.537C489.144 232.207 488.937 232.856 488.589 233.432C488.241 234.007 487.763 234.492 487.192 234.848L463.539 248.457C462.43 249.076 461.538 248.639 461.538 247.438C461.588 246.768 461.795 246.119 462.143 245.543C462.491 244.968 462.969 244.483 463.539 244.127Z" fill="#F5F5F5"/>
<path d="M378.989 223.913L433.372 192.491C434.464 191.855 435.355 192.31 435.355 193.51C435.305 194.178 435.099 194.826 434.755 195.4C434.411 195.975 433.937 196.462 433.372 196.822L378.989 228.225C377.879 228.862 376.988 228.425 376.988 227.225C377.037 226.554 377.245 225.905 377.592 225.33C377.94 224.754 378.419 224.269 378.989 223.913Z" fill="#32ADE6"/>
<path opacity="0.6" d="M378.989 223.913L433.372 192.491C434.464 191.855 435.355 192.31 435.355 193.51C435.305 194.178 435.099 194.826 434.755 195.4C434.411 195.975 433.937 196.462 433.372 196.822L378.989 228.225C377.879 228.862 376.988 228.425 376.988 227.225C377.037 226.554 377.245 225.905 377.592 225.33C377.94 224.754 378.419 224.269 378.989 223.913Z" fill="#FAFAFA"/>
<path d="M441.087 188.034L464.74 174.424C465.85 173.788 466.742 174.242 466.742 175.425C466.693 176.096 466.487 176.746 466.139 177.321C465.791 177.897 465.312 178.382 464.74 178.736L441.087 192.346C439.996 192.983 439.104 192.528 439.104 191.345C439.152 190.676 439.356 190.028 439.701 189.453C440.045 188.878 440.52 188.392 441.087 188.034Z" fill="#32ADE6"/>
<path opacity="0.6" d="M441.087 188.034L464.74 174.424C465.85 173.788 466.742 174.242 466.742 175.425C466.693 176.096 466.487 176.746 466.139 177.321C465.791 177.897 465.312 178.382 464.74 178.736L441.087 192.346C439.996 192.983 439.104 192.528 439.104 191.345C439.152 190.676 439.356 190.028 439.701 189.453C440.045 188.878 440.52 188.392 441.087 188.034Z" fill="#FAFAFA"/>
</g>
<defs>
<clipPath id="clip0_3112_807">
<rect width="500" height="500" fill="white"/>
</clipPath>
</defs>
</svg>
