<svg width="500" height="500" viewBox="0 0 500 500" fill="none" xmlns="http://www.w3.org/2000/svg">
<g clip-path="url(#clip0_3107_473)">
<path d="M500 118.672V368.007C500 376.158 496.763 383.975 491.001 389.74C485.239 395.504 477.423 398.745 469.273 398.748H30.7273C22.5766 398.745 14.7611 395.504 8.99897 389.74C3.23689 383.975 -8.26906e-07 376.158 0 368.007V118.672C0 117.938 -4.23e-07 117.287 0.096931 116.512C0.636765 108.755 4.09815 101.493 9.78279 96.1883C15.4674 90.884 22.9523 87.9331 30.7273 87.9308H469.273C477.057 87.934 484.549 90.8927 490.235 96.2085C495.921 101.524 499.377 108.801 499.903 116.567C499.972 117.232 500 117.952 500 118.672Z" fill="#FAFAFA" stroke="#263238" stroke-width="1.10311" stroke-linecap="round" stroke-linejoin="round"/>
<path d="M14.9551 128.033H486.61V358.356C486.61 365.994 483.575 373.321 478.173 378.722C472.772 384.124 465.446 387.158 457.807 387.158H43.7714C36.1325 387.158 28.8065 384.124 23.405 378.722C18.0035 373.321 14.9689 365.994 14.9689 358.356V128.033H14.9551Z" fill="#263238"/>
<path opacity="0.2" d="M486.624 128.033V358.356C486.664 365.952 483.686 373.253 478.345 378.654C473.003 384.055 465.736 387.114 458.14 387.158H43.4392C35.8431 387.114 28.5754 384.055 23.234 378.654C17.8925 373.253 14.9147 365.952 14.9552 358.356V128.033H486.624Z" fill="#FAFAFA"/>
<path d="M499.903 116.567H0.0969238C0.636757 108.811 4.09814 101.548 9.78279 96.2437C15.4674 90.9394 22.9522 87.9885 30.7273 87.9862H469.273C477.048 87.9885 484.532 90.9394 490.217 96.2437C495.902 101.548 499.363 108.811 499.903 116.567Z" fill="#32ADE6" stroke="#263238" stroke-width="1.10311" stroke-miterlimit="10"/>
<path d="M61.51 102.221C61.51 103.298 61.1908 104.35 60.5928 105.245C59.9949 106.14 59.145 106.837 58.1506 107.249C57.1562 107.661 56.062 107.769 55.0063 107.559C53.9507 107.349 52.981 106.83 52.2199 106.069C51.4588 105.308 50.9405 104.339 50.7305 103.283C50.5206 102.227 50.6283 101.133 51.0402 100.139C51.4521 99.1443 52.1496 98.2944 53.0446 97.6964C53.9395 97.0984 54.9917 96.7792 56.068 96.7792C57.5113 96.7792 58.8955 97.3526 59.9161 98.3732C60.9366 99.3937 61.51 100.778 61.51 102.221Z" fill="#263238"/>
<path d="M84.5239 102.221C84.5239 103.298 84.2047 104.35 83.6068 105.245C83.0088 106.14 82.1589 106.837 81.1645 107.249C80.1701 107.661 79.0759 107.769 78.0202 107.559C76.9646 107.349 75.9949 106.83 75.2338 106.069C74.4727 105.308 73.9544 104.339 73.7445 103.283C73.5345 102.227 73.6423 101.133 74.0541 100.139C74.466 99.1443 75.1636 98.2944 76.0585 97.6964C76.9534 97.0984 78.0056 96.7792 79.0819 96.7792C80.5252 96.7792 81.9094 97.3526 82.93 98.3732C83.9505 99.3937 84.5239 100.778 84.5239 102.221Z" fill="#263238"/>
<path d="M102.097 107.663C105.102 107.663 107.539 105.227 107.539 102.221C107.539 99.2157 105.102 96.7792 102.097 96.7792C99.091 96.7792 96.6545 99.2157 96.6545 102.221C96.6545 105.227 99.091 107.663 102.097 107.663Z" fill="#263238"/>
<path d="M486.61 128.033V358.356C486.61 365.994 483.575 373.321 478.173 378.722C472.772 384.124 465.446 387.158 457.807 387.158H43.7714C37.1044 387.157 30.6443 384.843 25.4928 380.611C20.3414 376.378 16.8177 370.49 15.5228 363.95V363.867C15.1708 362.042 14.9946 360.187 14.9966 358.328V128.033H486.61Z" stroke="#263238" stroke-width="1.10311" stroke-miterlimit="10"/>
<path d="M486.166 163.648C484.147 162.514 481.999 161.626 479.769 161.003L477.179 149.441H466.185L463.623 161.003C461.38 161.615 459.221 162.504 457.198 163.648L447.269 157.292L439.501 165.033L445.746 174.961C444.603 176.986 443.714 179.144 443.101 181.387L431.539 183.948V194.943L443.101 197.533C443.707 199.786 444.596 201.955 445.746 203.985L439.39 213.983L447.172 221.752L457.156 215.396C459.176 216.542 461.329 217.435 463.567 218.054L466.143 229.603H477.096L479.672 218.054C481.904 217.429 484.052 216.536 486.069 215.396L486.582 215.728V163.371L486.166 163.648ZM471.71 203.805C468.899 203.805 466.152 202.972 463.815 201.41C461.478 199.848 459.657 197.629 458.582 195.032C457.508 192.435 457.227 189.578 457.776 186.821C458.326 184.065 459.68 181.533 461.669 179.547C463.657 177.561 466.19 176.209 468.946 175.662C471.703 175.115 474.56 175.399 477.156 176.476C479.752 177.554 481.97 179.377 483.529 181.715C485.089 184.053 485.92 186.801 485.917 189.612C485.917 191.477 485.55 193.324 484.835 195.047C484.121 196.77 483.074 198.335 481.755 199.653C480.436 200.971 478.869 202.017 477.146 202.729C475.422 203.442 473.575 203.807 471.71 203.805Z" fill="#263238"/>
<path d="M288.011 174.795V151.615L263.64 146.2C262.324 141.491 260.466 136.951 258.101 132.672L261.05 128.033H145.979L148.817 132.547C146.423 136.808 144.563 141.347 143.278 146.062L118.893 151.49V174.726L143.278 180.168C144.563 184.918 146.423 189.494 148.817 193.794L135.427 214.856L151.836 231.251L172.884 217.847C177.154 220.249 181.696 222.131 186.413 223.455L191.841 247.757H214.966L220.422 223.399C225.124 222.07 229.651 220.187 233.909 217.791L254.971 231.195L271.366 214.8L258.059 193.738C260.418 189.466 262.277 184.935 263.598 180.237L288.011 174.795ZM203.542 193.157C197.618 193.157 191.827 191.4 186.902 188.109C181.976 184.818 178.137 180.14 175.87 174.667C173.603 169.194 173.01 163.172 174.166 157.362C175.322 151.552 178.174 146.215 182.363 142.026C186.552 137.837 191.889 134.984 197.699 133.829C203.509 132.673 209.531 133.266 215.004 135.533C220.477 137.8 225.155 141.639 228.446 146.565C231.737 151.49 233.494 157.281 233.494 163.205C233.496 167.139 232.722 171.034 231.218 174.669C229.713 178.304 227.507 181.607 224.725 184.388C221.944 187.17 218.641 189.376 215.006 190.881C211.372 192.385 207.476 193.159 203.542 193.157Z" fill="#263238"/>
<path d="M134.208 333.971L135.192 315.567L116.124 310.195C115.239 306.413 113.929 302.743 112.219 299.255L123.74 283.082L111.388 269.387L94.1342 279.08C90.8362 277.005 87.3094 275.318 83.6241 274.053L80.3284 254.501L61.9391 253.656L56.6217 272.779C52.8331 273.629 49.1603 274.93 45.6823 276.656L29.5225 265.149L15.7998 277.487L25.576 294.755C23.4801 298.038 21.7878 301.563 20.5356 305.251L14.9966 306.165V331.09L19.04 332.226C19.8789 336.02 21.1762 339.698 22.9035 343.179L14.9551 354.326L15.4813 363.867V363.95L23.6928 373.048L40.9742 363.285C44.2665 365.403 47.8054 367.109 51.5121 368.367L54.7523 387.144L54.9047 387.934L73.2939 388.903L73.7786 387.144L78.6113 369.794C82.417 368.942 86.1078 367.64 89.6061 365.916L105.738 377.41L119.447 365.086L109.754 347.804C111.83 344.525 113.5 341.005 114.725 337.322L134.208 333.971ZM85.3688 305.237C82.2188 301.734 78.1004 299.243 73.5346 298.08C68.9688 296.917 64.1607 297.135 59.7185 298.705C55.2764 300.276 51.3998 303.128 48.5792 306.902C45.7586 310.676 44.1207 315.202 43.8726 319.907C43.6246 324.612 44.7776 329.285 47.1858 333.335C49.5939 337.384 53.1491 340.629 57.4015 342.657C61.6539 344.686 66.4124 345.408 71.0752 344.732C75.738 344.056 80.0954 342.012 83.5964 338.859C88.2708 334.636 91.0817 328.733 91.4139 322.442C91.7461 316.151 89.5725 309.985 85.3688 305.293V305.237Z" fill="#263238"/>
<path d="M281.295 306.539C282.007 303.689 282.383 300.766 282.417 297.829L295.641 290.905L291.985 277.487L277.058 278.18C275.546 275.672 273.748 273.348 271.699 271.256L276.116 256.979L264.069 250.056L253.988 261.05C251.143 260.364 248.232 259.992 245.306 259.943L238.382 246.718L224.978 250.36L225.684 265.302C223.176 266.813 220.852 268.611 218.76 270.66L204.47 266.243L197.546 278.276L208.624 288.343C207.908 291.182 207.541 294.098 207.53 297.026L194.278 303.949L197.934 317.354L212.889 316.647C214.371 319.168 216.162 321.494 218.22 323.571L213.775 337.779L225.836 344.702L235.862 333.79C238.71 334.507 241.635 334.875 244.572 334.884L251.496 348.122L264.9 344.481L264.304 331.713L264.207 329.526C266.751 328.028 269.103 326.229 271.214 324.167L285.491 328.598L291.39 318.295L292.387 316.551L281.295 306.539ZM249.626 314.681C246.189 315.629 242.547 315.535 239.163 314.41C235.78 313.286 232.806 311.182 230.62 308.365C228.433 305.548 227.133 302.145 226.883 298.588C226.633 295.031 227.445 291.48 229.217 288.386C230.988 285.291 233.638 282.792 236.832 281.205C240.025 279.619 243.618 279.017 247.154 279.475C250.69 279.934 254.011 281.432 256.694 283.78C259.378 286.128 261.303 289.22 262.227 292.664C263.458 297.254 262.825 302.145 260.464 306.269C258.103 310.394 254.207 313.418 249.626 314.681Z" fill="#263238"/>
<path d="M434.613 330.135L437.659 311.718L419.021 304.226C418.598 300.301 417.7 296.442 416.348 292.733L429.766 277.792L418.91 262.56L400.41 270.411C397.338 267.949 393.982 265.866 390.412 264.207L389.332 244.143L370.915 241.096L363.368 259.652C359.46 260.111 355.618 261.017 351.916 262.352L336.934 248.934L321.771 259.79L329.636 278.276C327.471 280.978 325.592 283.897 324.028 286.986C323.82 287.416 323.599 287.845 323.405 288.274L303.354 289.382L300.293 307.771L303.312 308.99L318.932 315.29C319.358 319.197 320.256 323.037 321.605 326.728L308.159 341.766L319.029 356.999L337.515 349.106C340.577 351.59 343.929 353.691 347.499 355.365L348.538 375.332L366.941 378.379L374.474 359.962C378.39 359.534 382.24 358.632 385.939 357.275L400.894 370.694L416.127 359.823L408.261 341.323C410.767 338.249 412.883 334.877 414.562 331.284L434.613 330.135ZM382.962 329.304C379.088 332.084 374.476 333.652 369.71 333.811C364.944 333.969 360.238 332.711 356.188 330.195C352.137 327.679 348.923 324.018 346.953 319.675C344.983 315.333 344.345 310.504 345.12 305.798C345.895 301.093 348.048 296.724 351.306 293.242C354.565 289.761 358.782 287.323 363.426 286.239C368.07 285.155 372.931 285.472 377.394 287.15C381.857 288.829 385.723 291.793 388.501 295.669C392.223 300.867 393.727 307.331 392.683 313.639C391.639 319.947 388.133 325.582 382.934 329.304H382.962Z" fill="#263238"/>
<path d="M185.028 193.794H40.2127C30.1866 193.794 22.0588 201.922 22.0588 211.948V412.443C22.0588 422.47 30.1866 430.597 40.2127 430.597H185.028C195.054 430.597 203.182 422.47 203.182 412.443V211.948C203.182 201.922 195.054 193.794 185.028 193.794Z" fill="#32ADE6" stroke="#263238" stroke-width="1.10311" stroke-miterlimit="10"/>
<path opacity="0.2" d="M185.028 193.794H40.2127C30.1866 193.794 22.0588 201.922 22.0588 211.948V412.443C22.0588 422.47 30.1866 430.597 40.2127 430.597H185.028C195.054 430.597 203.182 422.47 203.182 412.443V211.948C203.182 201.922 195.054 193.794 185.028 193.794Z" fill="black"/>
<path d="M220.035 229.839V430.334C220.036 432.719 219.568 435.082 218.657 437.286C217.745 439.49 216.408 441.493 214.722 443.18C213.036 444.867 211.034 446.206 208.831 447.119C206.628 448.032 204.266 448.502 201.881 448.502H57.0651C54.6811 448.5 52.3208 448.029 50.1189 447.115C47.9171 446.201 45.9169 444.862 44.2324 443.175C42.5479 441.488 41.2123 439.486 40.3016 437.282C39.391 435.079 38.9232 432.718 38.9251 430.334V229.839C38.9251 225.026 40.8358 220.411 44.2373 217.007C47.6388 213.603 52.2528 211.688 57.0651 211.685H201.881C206.695 211.685 211.313 213.597 214.717 217.002C218.122 220.406 220.035 225.024 220.035 229.839Z" fill="#FAFAFA" stroke="#263238" stroke-width="1.10311" stroke-linecap="round" stroke-linejoin="round"/>
<path d="M220.035 229.839V240.57H38.925V229.839C38.925 225.026 40.8358 220.411 44.2373 217.007C47.6388 213.603 52.2528 211.688 57.0651 211.685H201.881C206.695 211.685 211.313 213.597 214.717 217.002C218.122 220.406 220.035 225.024 220.035 229.839Z" fill="#32ADE6" stroke="#263238" stroke-width="1.10311" stroke-miterlimit="10"/>
<path d="M100.518 253.005H55.9573V260.483H100.518V253.005Z" fill="#32ADE6"/>
<path d="M100.518 320.012H55.9573V327.49H100.518V320.012Z" fill="#32ADE6"/>
<path d="M100.518 380.775H55.9573V388.252H100.518V380.775Z" fill="#32ADE6"/>
<path d="M182.508 271.519H55.9573V277.003H182.508V271.519Z" fill="#263238"/>
<path d="M159.688 282.001H55.9573V287.346H159.688V282.001Z" fill="#263238"/>
<path d="M173.272 292.318H55.9573V297.663H173.272V292.318Z" fill="#263238"/>
<path d="M173.272 302.62H55.9573V307.965H173.272V302.62Z" fill="#263238"/>
<path d="M182.508 332.281H55.9573V337.765H182.508V332.281Z" fill="#263238"/>
<path d="M159.688 342.764H55.9573V348.109H159.688V342.764Z" fill="#263238"/>
<path d="M173.272 353.08H55.9573V358.425H173.272V353.08Z" fill="#263238"/>
<path d="M182.508 398.998H55.9573V404.481H182.508V398.998Z" fill="#263238"/>
<path d="M159.688 409.494H55.9573V414.839H159.688V409.494Z" fill="#263238"/>
<path d="M173.272 419.81H55.9573V425.155H173.272V419.81Z" fill="#263238"/>
<path d="M423.943 73.0503V154.085C423.943 156.928 423.383 159.744 422.294 162.371C421.206 164.997 419.61 167.384 417.599 169.394C415.588 171.404 413.2 172.998 410.573 174.085C407.945 175.172 405.129 175.73 402.286 175.728H215.651C212.808 175.73 209.992 175.172 207.365 174.085C204.737 172.998 202.349 171.404 200.338 169.394C198.327 167.384 196.732 164.997 195.643 162.371C194.554 159.744 193.994 156.928 193.994 154.085V73.0503C193.998 67.3075 196.281 61.801 200.341 57.7403C204.402 53.6796 209.909 51.3967 215.651 51.393H402.286C408.03 51.393 413.538 53.6747 417.6 57.7363C421.661 61.7978 423.943 67.3064 423.943 73.0503Z" fill="#FAFAFA" stroke="#222221" stroke-width="1.10311" stroke-miterlimit="10"/>
<path d="M424.158 72.6573V74.5128H194.209V72.6573C194.213 66.9146 196.496 61.4081 200.557 57.3474C204.617 53.2866 210.124 51.0037 215.866 51.0001H402.501C408.245 51.0001 413.753 53.2818 417.815 57.3433C421.877 61.4048 424.158 66.9135 424.158 72.6573Z" fill="#32ADE6" stroke="#263238" stroke-width="1.10311" stroke-miterlimit="10"/>
<path d="M227.997 66.6336C227.532 67.0992 226.94 67.4165 226.295 67.5454C225.65 67.6743 224.982 67.609 224.374 67.3577C223.766 67.1064 223.247 66.6804 222.881 66.1337C222.516 65.587 222.321 64.9441 222.321 64.2865C222.321 63.6289 222.516 62.986 222.881 62.4393C223.247 61.8926 223.766 61.4666 224.374 61.2153C224.982 60.964 225.65 60.8987 226.295 61.0276C226.94 61.1565 227.532 61.4738 227.997 61.9394C228.615 62.5642 228.962 63.4076 228.962 64.2865C228.962 65.1654 228.615 66.0088 227.997 66.6336Z" fill="#263238"/>
<path d="M243.395 66.6336C242.93 67.0992 242.338 67.4165 241.693 67.5454C241.049 67.6743 240.38 67.609 239.772 67.3577C239.164 67.1064 238.645 66.6804 238.279 66.1337C237.914 65.587 237.719 64.9441 237.719 64.2865C237.719 63.6289 237.914 62.986 238.279 62.4393C238.645 61.8926 239.164 61.4666 239.772 61.2153C240.38 60.964 241.049 60.8987 241.693 61.0276C242.338 61.1565 242.93 61.4738 243.395 61.9394C244.013 62.5642 244.36 63.4076 244.36 64.2865C244.36 65.1654 244.013 66.0088 243.395 66.6336Z" fill="#263238"/>
<path d="M258.793 66.6336C258.328 67.0992 257.736 67.4165 257.091 67.5454C256.446 67.6743 255.778 67.609 255.17 67.3577C254.562 67.1064 254.043 66.6804 253.677 66.1337C253.312 65.587 253.117 64.9441 253.117 64.2865C253.117 63.6289 253.312 62.986 253.677 62.4393C254.043 61.8926 254.562 61.4666 255.17 61.2153C255.778 60.964 256.446 60.8987 257.091 61.0276C257.736 61.1565 258.328 61.4738 258.793 61.9394C259.411 62.5642 259.758 63.4076 259.758 64.2865C259.758 65.1654 259.411 66.0088 258.793 66.6336Z" fill="#263238"/>
<path d="M284.037 89.4125H208.874V154.384H284.037V89.4125Z" stroke="#263238" stroke-width="1.10311" stroke-linecap="round" stroke-linejoin="round" stroke-dasharray="4.41 4.41"/>
<path d="M382.145 89.4125H295.641V93.9822H382.145V89.4125Z" fill="#263238"/>
<path d="M361.998 98.8702H295.641V103.426H361.998V98.8702Z" fill="#263238"/>
<path d="M394.442 108.286H295.641V112.898H394.442V108.286Z" fill="#263238"/>
<path d="M379.778 117.467H295.641V122.078H379.778V117.467Z" fill="#263238"/>
<path d="M430.445 273.776H388.141C383.147 273.776 379.099 277.825 379.099 282.818V307.647C379.099 312.641 383.147 316.689 388.141 316.689H430.445C435.439 316.689 439.487 312.641 439.487 307.647V282.818C439.487 277.825 435.439 273.776 430.445 273.776Z" fill="white" stroke="#263238" stroke-width="1.10311" stroke-linecap="round" stroke-linejoin="round"/>
<path d="M398.582 286.682L386.964 293.966L397.751 303.52" stroke="#263238" stroke-width="1.10311" stroke-linecap="round" stroke-linejoin="round"/>
<path d="M419.741 304.213L430.182 295.323L418.135 287.43" stroke="#263238" stroke-width="1.10311" stroke-linecap="round" stroke-linejoin="round"/>
<path d="M404.232 309.696L412.803 282.805" stroke="#263238" stroke-width="1.10311" stroke-linecap="round" stroke-linejoin="round"/>
</g>
<defs>
<clipPath id="clip0_3107_473">
<rect width="500" height="500" fill="white"/>
</clipPath>
</defs>
</svg>
