<svg width="500" height="500" viewBox="0 0 500 500" fill="none" xmlns="http://www.w3.org/2000/svg">
<path d="M393.433 408.724L363.85 343.135H294.689L305.276 404.52C305.401 405.236 305.383 405.969 305.224 406.679C305.065 407.388 304.768 408.058 304.349 408.652C303.931 409.247 303.399 409.752 302.785 410.141C302.171 410.53 301.487 410.793 300.771 410.917C300.476 410.97 300.177 410.997 299.877 410.996H269.546C268.766 410.996 268.017 411.306 267.465 411.858C266.914 412.41 266.604 413.158 266.604 413.939V417.196C266.604 417.977 266.914 418.725 267.465 419.277C268.017 419.829 268.766 420.139 269.546 420.139H391.292C392.138 420.139 392.95 419.803 393.549 419.204C394.147 418.605 394.484 417.793 394.484 416.947V413.558C394.475 411.891 394.117 410.244 393.433 408.724ZM361.407 400.579H328.199C327.152 400.576 326.14 400.204 325.34 399.529C324.54 398.854 324.004 397.919 323.824 396.888L318.82 367.988C318.72 367.414 318.734 366.825 318.861 366.256C318.988 365.687 319.227 365.149 319.562 364.672C319.897 364.195 320.324 363.789 320.816 363.477C321.308 363.164 321.858 362.952 322.432 362.852C322.69 362.833 322.949 362.833 323.207 362.852H348.31C349.168 362.853 350.007 363.101 350.727 363.567C351.447 364.033 352.018 364.697 352.369 365.479L365.505 394.379C365.806 395.056 365.934 395.798 365.877 396.536C365.819 397.275 365.579 397.988 365.178 398.611C364.777 399.234 364.227 399.747 363.577 400.105C362.928 400.462 362.2 400.652 361.459 400.658L361.407 400.579Z" fill="#263238"/>
<path opacity="0.5" d="M393.433 408.724L363.85 343.135H294.689L305.276 404.52C305.401 405.236 305.383 405.969 305.224 406.679C305.065 407.388 304.768 408.058 304.349 408.652C303.931 409.247 303.399 409.752 302.785 410.141C302.171 410.53 301.487 410.793 300.771 410.917C300.476 410.97 300.177 410.997 299.877 410.996H269.546C268.766 410.996 268.017 411.306 267.465 411.858C266.914 412.41 266.604 413.158 266.604 413.939V417.196C266.604 417.977 266.914 418.725 267.465 419.277C268.017 419.829 268.766 420.139 269.546 420.139H391.292C392.138 420.139 392.95 419.803 393.549 419.204C394.147 418.605 394.484 417.793 394.484 416.947V413.558C394.475 411.891 394.117 410.244 393.433 408.724ZM361.407 400.579H328.199C327.152 400.576 326.14 400.204 325.34 399.529C324.54 398.854 324.004 397.919 323.824 396.888L318.82 367.988C318.72 367.414 318.734 366.825 318.861 366.256C318.988 365.687 319.227 365.149 319.562 364.672C319.897 364.195 320.324 363.789 320.816 363.477C321.308 363.164 321.858 362.952 322.432 362.852C322.69 362.833 322.949 362.833 323.207 362.852H348.31C349.168 362.853 350.007 363.101 350.727 363.567C351.447 364.033 352.018 364.697 352.369 365.479L365.505 394.379C365.806 395.056 365.934 395.798 365.877 396.536C365.819 397.275 365.579 397.988 365.178 398.611C364.777 399.234 364.227 399.747 363.577 400.105C362.928 400.462 362.2 400.652 361.459 400.658L361.407 400.579Z" fill="#FAFAFA"/>
<path opacity="0.2" d="M361.407 400.579H328.199C327.152 400.576 326.14 400.204 325.34 399.529C324.54 398.854 324.004 397.919 323.825 396.888L318.82 367.988C318.72 367.414 318.734 366.825 318.861 366.256C318.989 365.687 319.227 365.149 319.562 364.672C319.898 364.195 320.324 363.789 320.816 363.477C321.309 363.164 321.858 362.952 322.432 362.852C322.69 362.833 322.949 362.833 323.207 362.852H348.31C349.168 362.853 350.007 363.101 350.728 363.567C351.448 364.033 352.018 364.697 352.369 365.479L365.506 394.379C365.806 395.056 365.934 395.798 365.877 396.536C365.82 397.275 365.58 397.988 365.178 398.611C364.777 399.234 364.227 399.747 363.578 400.104C362.928 400.462 362.201 400.652 361.46 400.658L361.407 400.579Z" fill="#FAFAFA"/>
<path d="M327.109 362.708H323.168C322.584 362.706 322.005 362.82 321.465 363.042C320.924 363.264 320.433 363.591 320.02 364.004C319.606 364.416 319.278 364.906 319.054 365.446C318.83 365.985 318.715 366.564 318.715 367.148C318.71 367.403 318.732 367.659 318.78 367.91L323.785 396.809C323.964 397.84 324.501 398.776 325.301 399.451C326.101 400.126 327.113 400.497 328.16 400.5H332.1C331.051 400.5 330.036 400.13 329.233 399.455C328.431 398.78 327.892 397.843 327.713 396.809L322.708 367.91C322.51 366.748 322.78 365.555 323.46 364.592C324.139 363.63 325.173 362.976 326.334 362.773C326.59 362.731 326.849 362.709 327.109 362.708Z" fill="#263238"/>
<path d="M397.348 408.724L367.739 343.201H363.798L393.38 408.724C394.075 410.254 394.434 411.916 394.431 413.597V416.986C394.431 417.833 394.095 418.645 393.496 419.243C392.898 419.842 392.086 420.178 391.239 420.178H395.18C395.599 420.178 396.013 420.096 396.4 419.935C396.786 419.774 397.137 419.539 397.433 419.243C397.728 418.946 397.962 418.594 398.121 418.207C398.28 417.82 398.361 417.405 398.359 416.986V413.597C398.374 411.919 398.029 410.257 397.348 408.724Z" fill="#263238"/>
<path opacity="0.2" d="M363.824 343.135H294.662L297.382 358.793H370.904L363.824 343.135Z" fill="black"/>
<path d="M463.028 350.018H167.991C166.716 350.043 165.449 349.816 164.261 349.35C163.074 348.885 161.991 348.19 161.072 347.305C160.153 346.421 159.418 345.364 158.908 344.196C158.398 343.027 158.123 341.769 158.099 340.495C158.072 340.057 158.072 339.618 158.099 339.181L176.792 126.034C177.09 123.108 178.449 120.393 180.613 118.401C182.777 116.409 185.595 115.279 188.536 115.223H483.586C486.162 115.177 488.651 116.156 490.506 117.944C492.36 119.733 493.429 122.184 493.478 124.76C493.505 125.197 493.505 125.636 493.478 126.073L474.732 339.22C474.44 342.14 473.088 344.852 470.931 346.842C468.774 348.832 465.962 349.962 463.028 350.018Z" fill="#263238"/>
<path opacity="0.3" d="M463.028 350.018H167.991C166.716 350.043 165.449 349.816 164.261 349.35C163.074 348.885 161.991 348.19 161.072 347.305C160.153 346.421 159.418 345.364 158.908 344.196C158.398 343.027 158.123 341.769 158.099 340.495C158.072 340.057 158.072 339.618 158.099 339.181L176.792 126.034C177.09 123.108 178.449 120.393 180.613 118.401C182.777 116.409 185.595 115.279 188.536 115.223H483.586C486.162 115.177 488.651 116.156 490.506 117.944C492.36 119.733 493.429 122.184 493.478 124.76C493.505 125.197 493.505 125.636 493.478 126.073L474.732 339.22C474.44 342.14 473.088 344.852 470.931 346.842C468.774 348.832 465.962 349.962 463.028 350.018Z" fill="#FAFAFA"/>
<path d="M160.162 316.18L158.152 339.22C157.864 341.781 158.604 344.351 160.21 346.366C161.816 348.381 164.156 349.675 166.717 349.966C167.154 349.994 167.593 349.994 168.03 349.966H463.028C465.969 349.916 468.789 348.787 470.952 346.793C473.114 344.8 474.469 342.082 474.759 339.155L476.782 316.114L160.162 316.18Z" fill="#32ADE6"/>
<path opacity="0.7" d="M160.162 316.18L158.152 339.22C157.864 341.781 158.604 344.351 160.21 346.366C161.816 348.381 164.156 349.675 166.717 349.966C167.154 349.994 167.593 349.994 168.03 349.966H463.028C465.969 349.916 468.789 348.787 470.952 346.793C473.114 344.8 474.469 342.082 474.759 339.155L476.782 316.114L160.162 316.18Z" fill="#FAFAFA"/>
<path d="M466.365 309.651H171.708C171.016 309.667 170.327 309.545 169.682 309.294C169.037 309.043 168.448 308.666 167.949 308.187C167.449 307.707 167.05 307.133 166.773 306.498C166.496 305.864 166.347 305.181 166.335 304.488C166.322 304.261 166.322 304.033 166.335 303.805L181.797 127.597C181.971 126.019 182.711 124.557 183.88 123.482C185.049 122.408 186.567 121.793 188.155 121.752H482.811C483.503 121.738 484.192 121.861 484.836 122.114C485.481 122.367 486.069 122.744 486.567 123.225C487.065 123.706 487.463 124.281 487.738 124.916C488.013 125.552 488.16 126.235 488.171 126.927C488.19 127.15 488.19 127.374 488.171 127.597L472.736 303.805C472.561 305.386 471.819 306.849 470.648 307.924C469.476 308.999 467.954 309.613 466.365 309.651Z" fill="#32ADE6"/>
<path opacity="0.8" d="M466.365 309.651H171.708C171.016 309.667 170.327 309.545 169.682 309.294C169.037 309.043 168.448 308.666 167.949 308.187C167.449 307.707 167.05 307.133 166.773 306.498C166.496 305.864 166.347 305.181 166.335 304.488C166.322 304.261 166.322 304.033 166.335 303.805L181.797 127.597C181.971 126.019 182.711 124.557 183.88 123.482C185.049 122.408 186.567 121.793 188.155 121.752H482.811C483.503 121.738 484.192 121.861 484.836 122.114C485.481 122.367 486.069 122.744 486.567 123.225C487.065 123.706 487.463 124.281 487.738 124.916C488.013 125.552 488.16 126.235 488.171 126.927C488.19 127.15 488.19 127.374 488.171 127.597L472.736 303.805C472.561 305.386 471.819 306.849 470.648 307.924C469.476 308.999 467.954 309.613 466.365 309.651Z" fill="#32ADE6"/>
<path opacity="0.8" d="M466.365 309.651H171.708C171.016 309.667 170.327 309.545 169.682 309.294C169.037 309.043 168.448 308.666 167.949 308.187C167.449 307.707 167.05 307.133 166.773 306.498C166.496 305.864 166.347 305.181 166.335 304.488C166.322 304.261 166.322 304.033 166.335 303.805L181.797 127.597C181.971 126.019 182.711 124.557 183.88 123.482C185.049 122.408 186.567 121.793 188.155 121.752H482.811C483.503 121.738 484.192 121.861 484.836 122.114C485.481 122.367 486.069 122.744 486.567 123.225C487.065 123.706 487.463 124.281 487.738 124.916C488.013 125.552 488.16 126.235 488.171 126.927C488.19 127.15 488.19 127.374 488.171 127.597L472.736 303.805C472.561 305.386 471.819 306.849 470.648 307.924C469.476 308.999 467.954 309.613 466.365 309.651Z" fill="#FAFAFA"/>
<g opacity="0.5">
<path d="M254.282 309.664H227.366L267.313 121.752H294.216L254.282 309.664Z" fill="#FAFAFA"/>
<path d="M271.306 309.664H264.423L304.37 121.752H311.253L271.306 309.664Z" fill="#FAFAFA"/>
<path d="M371.535 309.664H367.016L406.963 121.752H411.469L371.535 309.664Z" fill="#FAFAFA"/>
<path d="M388.573 309.664H381.689L421.623 121.752H428.506L388.573 309.664Z" fill="#FAFAFA"/>
</g>
<path d="M490.102 115.249H483.534C484.809 115.225 486.076 115.452 487.263 115.917C488.45 116.383 489.534 117.078 490.452 117.962C491.371 118.846 492.106 119.903 492.616 121.072C493.126 122.24 493.401 123.498 493.425 124.773C493.453 125.21 493.453 125.649 493.425 126.087L474.733 339.22C474.443 342.147 473.088 344.866 470.925 346.859C468.763 348.852 465.943 349.981 463.002 350.031H469.57C472.51 349.978 475.328 348.848 477.49 346.856C479.653 344.863 481.008 342.146 481.301 339.22L499.941 126.034C500.081 124.766 499.97 123.483 499.615 122.257C499.259 121.032 498.665 119.889 497.867 118.894C497.069 117.898 496.083 117.07 494.965 116.456C493.846 115.842 492.618 115.454 491.35 115.315C490.936 115.26 490.519 115.238 490.102 115.249Z" fill="#263238"/>
<path opacity="0.6" d="M490.102 115.249H483.534C484.809 115.225 486.076 115.452 487.263 115.917C488.45 116.383 489.534 117.078 490.452 117.962C491.371 118.846 492.106 119.903 492.616 121.072C493.126 122.24 493.401 123.498 493.425 124.773C493.453 125.21 493.453 125.649 493.425 126.087L474.733 339.22C474.443 342.147 473.088 344.866 470.925 346.859C468.763 348.852 465.943 349.981 463.002 350.031H469.57C472.51 349.978 475.328 348.848 477.49 346.856C479.653 344.863 481.008 342.146 481.301 339.22L499.941 126.034C500.081 124.766 499.97 123.483 499.615 122.257C499.259 121.032 498.665 119.889 497.867 118.894C497.069 117.898 496.083 117.07 494.965 116.456C493.846 115.842 492.618 115.454 491.35 115.315C490.936 115.26 490.519 115.238 490.102 115.249Z" fill="#FAFAFA"/>
<path d="M333.703 243.865C333.091 249.852 330.307 255.406 325.877 259.48C321.448 263.553 315.68 265.863 309.664 265.973C306.835 266.02 304.028 265.464 301.43 264.342C298.833 263.221 296.504 261.559 294.598 259.468C292.692 257.377 291.252 254.904 290.376 252.214C289.499 249.524 289.205 246.678 289.513 243.865C290.125 237.879 292.909 232.324 297.338 228.251C301.768 224.177 307.535 221.867 313.552 221.757L314.55 210.46C296.094 210.46 279.832 225.409 278.216 243.865C276.6 262.321 290.248 277.27 308.705 277.27C327.161 277.27 343.371 262.308 345 243.865H333.703Z" fill="#32ADE6"/>
<path d="M348.967 239.005C350.583 220.549 336.934 205.6 318.478 205.6L317.493 216.897C320.325 216.844 323.135 217.396 325.737 218.515C328.339 219.634 330.672 221.295 332.582 223.387C334.491 225.479 335.932 227.954 336.81 230.647C337.687 233.34 337.98 236.19 337.67 239.005H348.967Z" fill="#32ADE6"/>
<path opacity="0.3" d="M348.967 239.005C350.583 220.549 336.934 205.6 318.478 205.6L317.493 216.897C320.325 216.844 323.135 217.396 325.737 218.515C328.339 219.634 330.672 221.295 332.582 223.387C334.491 225.479 335.932 227.954 336.81 230.647C337.687 233.34 337.98 236.19 337.67 239.005H348.967Z" fill="black"/>
<path d="M321.289 243.865C321.01 246.59 319.743 249.118 317.727 250.972C315.711 252.826 313.085 253.877 310.347 253.927C309.057 253.952 307.777 253.701 306.592 253.192C305.407 252.683 304.344 251.927 303.474 250.975C302.604 250.023 301.947 248.897 301.546 247.671C301.146 246.445 301.011 245.147 301.152 243.865C301.419 241.129 302.683 238.586 304.703 236.721C306.723 234.856 309.358 233.799 312.107 233.75L312.554 228.601C308.418 228.696 304.46 230.301 301.426 233.112C298.391 235.924 296.49 239.749 296.081 243.865C295.87 245.801 296.074 247.76 296.679 249.611C297.283 251.463 298.276 253.164 299.589 254.602C300.903 256.04 302.508 257.181 304.297 257.951C306.086 258.72 308.019 259.099 309.966 259.064C314.091 258.973 318.04 257.378 321.072 254.579C324.103 251.78 326.007 247.97 326.426 243.865H321.289Z" fill="#32ADE6"/>
<path opacity="0.3" d="M321.289 243.865C321.01 246.59 319.743 249.118 317.727 250.972C315.711 252.826 313.085 253.877 310.347 253.927C309.057 253.952 307.777 253.701 306.592 253.192C305.407 252.683 304.344 251.927 303.474 250.975C302.604 250.023 301.947 248.897 301.546 247.671C301.146 246.445 301.011 245.147 301.152 243.865C301.419 241.129 302.683 238.586 304.703 236.721C306.723 234.856 309.358 233.799 312.107 233.75L312.554 228.601C308.418 228.696 304.46 230.301 301.426 233.112C298.391 235.924 296.49 239.749 296.081 243.865C295.87 245.801 296.074 247.76 296.679 249.611C297.283 251.463 298.276 253.164 299.589 254.602C300.903 256.04 302.508 257.181 304.297 257.951C306.086 258.72 308.019 259.099 309.966 259.064C314.091 258.973 318.04 257.378 321.072 254.579C324.103 251.78 326.007 247.97 326.426 243.865H321.289Z" fill="black"/>
<path d="M328.238 241.632C328.449 239.696 328.246 237.737 327.641 235.886C327.036 234.034 326.044 232.333 324.73 230.895C323.416 229.457 321.812 228.316 320.022 227.547C318.233 226.777 316.301 226.398 314.353 226.433L313.907 231.57C315.196 231.545 316.476 231.796 317.661 232.305C318.846 232.814 319.909 233.57 320.779 234.522C321.649 235.474 322.307 236.601 322.707 237.827C323.108 239.053 323.242 240.35 323.102 241.632H328.238Z" fill="#32ADE6"/>
<path d="M393.288 261.257H366.753C366.522 261.261 366.292 261.214 366.079 261.122C365.866 261.03 365.675 260.894 365.519 260.723C365.362 260.551 365.244 260.349 365.172 260.129C365.099 259.908 365.074 259.675 365.098 259.445C365.149 258.954 365.378 258.499 365.741 258.166C366.103 257.832 366.576 257.642 367.069 257.632H393.656C393.888 257.628 394.117 257.674 394.329 257.767C394.542 257.859 394.732 257.995 394.887 258.167C395.042 258.339 395.159 258.541 395.23 258.762C395.301 258.982 395.324 259.215 395.298 259.445C395.249 259.943 395.016 260.405 394.644 260.74C394.272 261.075 393.789 261.26 393.288 261.257Z" fill="#263238"/>
<path d="M386.024 268.39H366.123C365.892 268.394 365.662 268.348 365.45 268.255C365.238 268.163 365.047 268.027 364.892 267.855C364.737 267.684 364.62 267.481 364.549 267.261C364.478 267.04 364.455 266.807 364.481 266.577C364.529 266.086 364.757 265.63 365.12 265.295C365.484 264.961 365.958 264.772 366.451 264.765H386.339C386.576 264.753 386.813 264.794 387.033 264.884C387.252 264.973 387.45 265.11 387.611 265.284C387.773 265.458 387.894 265.665 387.967 265.89C388.04 266.116 388.063 266.355 388.034 266.591C387.982 267.086 387.747 267.545 387.376 267.878C387.004 268.21 386.523 268.393 386.024 268.39Z" fill="#263238"/>
<path d="M231.333 264.252H257.908C258.399 264.245 258.871 264.058 259.235 263.727C259.598 263.395 259.827 262.942 259.878 262.453C259.906 262.222 259.885 261.989 259.815 261.767C259.745 261.546 259.628 261.343 259.472 261.171C259.316 260.999 259.125 260.862 258.912 260.771C258.698 260.679 258.468 260.634 258.236 260.64H231.714C231.22 260.647 230.747 260.836 230.383 261.171C230.02 261.505 229.792 261.961 229.744 262.453C229.718 262.678 229.74 262.905 229.808 263.121C229.875 263.337 229.988 263.537 230.138 263.706C230.288 263.876 230.472 264.012 230.677 264.106C230.883 264.2 231.107 264.25 231.333 264.252Z" fill="#263238"/>
<path d="M237.376 271.385H257.277C257.77 271.375 258.242 271.185 258.605 270.852C258.968 270.518 259.196 270.063 259.247 269.573C259.274 269.342 259.25 269.107 259.179 268.886C259.107 268.665 258.989 268.462 258.832 268.29C258.675 268.118 258.483 267.982 258.269 267.891C258.056 267.799 257.825 267.755 257.592 267.76H237.704C237.209 267.767 236.733 267.955 236.368 268.289C236.002 268.623 235.772 269.08 235.721 269.573C235.696 269.803 235.721 270.036 235.794 270.257C235.866 270.477 235.985 270.679 236.141 270.851C236.297 271.022 236.488 271.158 236.701 271.25C236.914 271.342 237.144 271.388 237.376 271.385Z" fill="#263238"/>
<path d="M360.12 260.482H351.069L330.537 237.993H323.93L324.1 236.089H331.496L352.015 258.591H360.29L360.12 260.482Z" fill="#263238"/>
<path d="M263.122 264.436H272.173L292.705 241.934H299.312L299.155 240.042H291.746L271.227 262.532H262.952L263.122 264.436Z" fill="#263238"/>
<path opacity="0.1" d="M252.114 149.062H204.049L204.851 139.893H252.916L252.114 149.062Z" fill="black"/>
<path opacity="0.1" d="M250.512 167.387H202.447L203.248 158.218H251.313L250.512 167.387Z" fill="black"/>
<path opacity="0.1" d="M248.909 185.711H200.844L201.646 176.542H249.711L248.909 185.711Z" fill="black"/>
<path opacity="0.2" d="M251.313 158.218H203.248L204.049 149.062H252.114L251.313 158.218Z" fill="#FAFAFA"/>
<path opacity="0.2" d="M249.711 176.542H201.646L202.447 167.387H250.512L249.711 176.542Z" fill="#FAFAFA"/>
<path d="M231.267 184.661C224.831 184.661 223.754 173.836 222.624 162.329C221.573 151.82 220.483 140.825 214.847 140.825C210.237 140.825 204.956 156.352 203.314 162.329L202.381 162.158C203.441 158.419 204.704 154.74 206.164 151.137C209.251 143.65 212.207 139.853 214.939 139.853C221.376 139.853 222.453 150.691 223.583 162.185C224.634 172.694 225.724 183.689 231.359 183.689C235.852 183.689 240.975 168.937 242.762 162.671C242.798 162.547 242.878 162.44 242.986 162.37C243.095 162.301 243.225 162.272 243.353 162.29C243.414 162.302 243.471 162.326 243.522 162.362C243.573 162.398 243.616 162.444 243.648 162.497C243.68 162.55 243.701 162.609 243.709 162.671C243.717 162.732 243.712 162.795 243.694 162.855C242.66 166.418 241.441 169.926 240.042 173.364C236.969 180.864 234 184.661 231.267 184.661Z" fill="#32ADE6"/>
<path d="M209.094 179.669C204.207 179.669 202.526 164.247 202.355 162.487L203.327 162.316C203.773 166.874 205.718 178.697 209.172 178.697C212.627 178.697 214.637 171.643 216.502 164.825C218.578 157.285 220.535 150.165 224.857 150.165C228.496 150.165 229.087 156.063 229.704 162.316C230.256 167.899 230.834 173.666 233.645 173.666C236.456 173.666 238.059 167.899 239.596 162.316C241.303 156.063 242.919 150.165 246.558 150.165C248.16 150.165 249.421 152.201 250.407 156.379C250.815 158.178 251.131 159.998 251.353 161.83C251.364 161.961 251.326 162.092 251.246 162.197C251.166 162.302 251.049 162.372 250.919 162.395C250.859 162.408 250.797 162.409 250.737 162.396C250.677 162.384 250.62 162.359 250.571 162.323C250.521 162.287 250.479 162.24 250.449 162.187C250.418 162.134 250.4 162.075 250.394 162.014C249.894 157.626 248.463 151.137 246.453 151.137C243.615 151.137 242.039 156.904 240.502 162.487C238.794 168.74 237.165 174.638 233.527 174.638C229.888 174.638 229.31 168.74 228.693 162.487C228.128 156.904 227.563 151.137 224.752 151.137C221.218 151.137 219.287 158.191 217.422 165.009C215.373 172.549 213.415 179.669 209.094 179.669Z" fill="#32ADE6"/>
<g opacity="0.5">
<path d="M209.093 179.669C204.207 179.669 202.525 164.247 202.354 162.487L203.327 162.316C203.773 166.874 205.717 178.697 209.172 178.697C212.627 178.697 214.637 171.643 216.502 164.825C218.578 157.285 220.535 150.165 224.857 150.165C228.495 150.165 229.087 156.063 229.704 162.316C230.256 167.899 230.834 173.666 233.645 173.666C236.456 173.666 238.058 167.899 239.595 162.316C241.303 156.063 242.919 150.165 246.558 150.165C248.16 150.165 249.421 152.201 250.406 156.379C250.815 158.178 251.131 159.998 251.352 161.83C251.364 161.961 251.326 162.092 251.246 162.197C251.165 162.302 251.049 162.372 250.919 162.395C250.859 162.408 250.797 162.409 250.737 162.396C250.677 162.384 250.62 162.359 250.57 162.323C250.521 162.287 250.479 162.241 250.449 162.187C250.418 162.134 250.399 162.075 250.393 162.014C249.894 157.626 248.462 151.137 246.452 151.137C243.615 151.137 242.039 156.904 240.502 162.487C238.794 168.74 237.165 174.638 233.527 174.638C229.888 174.638 229.31 168.74 228.692 162.487C228.128 156.904 227.563 151.137 224.752 151.137C221.218 151.137 219.287 158.191 217.422 165.009C215.372 172.549 213.415 179.669 209.093 179.669Z" fill="black"/>
</g>
<path d="M249.224 186.631H200.187L204.273 140.484C204.286 140.338 204.352 140.203 204.458 140.104C204.565 140.004 204.705 139.948 204.851 139.945C204.92 139.943 204.989 139.955 205.052 139.982C205.116 140.009 205.173 140.05 205.219 140.101C205.266 140.152 205.3 140.213 205.321 140.279C205.341 140.345 205.346 140.415 205.337 140.484L201.396 185.619H249.316C249.385 185.619 249.453 185.633 249.515 185.661C249.578 185.688 249.634 185.729 249.68 185.78C249.726 185.831 249.761 185.891 249.782 185.956C249.803 186.021 249.81 186.09 249.802 186.158C249.775 186.291 249.703 186.411 249.598 186.497C249.492 186.583 249.36 186.631 249.224 186.631Z" fill="#263238"/>
<path d="M359.594 141.889H282.091L280.778 157.14L280.659 158.454L279.438 172.444L279.333 173.758L278.019 189.009H370.773L372.087 173.758L372.192 172.444L373.427 158.454L373.532 157.14L374.845 141.889H359.594ZM344.225 143.203H358.215L356.993 157.193H343.003L344.225 143.203ZM355.654 172.444H341.677L342.898 158.454H356.888L355.654 172.444ZM297.145 158.454H311.135L309.914 172.444H295.924L297.145 158.454ZM312.396 158.454H326.386L325.165 172.444H311.175L312.396 158.454ZM327.647 158.454H341.637L340.416 172.444H326.426L327.647 158.454ZM328.961 143.203H342.938L341.716 157.193H327.766L328.961 143.203ZM313.71 143.203H327.7L326.465 157.193H312.515L313.71 143.203ZM298.459 143.203H312.449L311.227 157.193H297.263L298.459 143.203ZM283.208 143.203H297.198L295.976 157.193H282.012L283.208 143.203ZM281.894 158.454H295.871L294.649 172.444H280.673L281.894 158.454ZM293.323 187.695H279.346L280.567 173.705H294.557L293.323 187.695ZM308.561 187.695H294.597L295.818 173.705H309.808L308.561 187.695ZM323.812 187.695H309.848L311.07 173.705H325.046L323.812 187.695ZM339.063 187.695H325.086L326.321 173.705H340.297L339.063 187.695ZM354.314 187.695H340.337L341.558 173.705H355.548L354.314 187.695ZM369.565 187.695H355.588L356.81 173.705H370.8L369.565 187.695ZM370.878 172.444H356.928L358.149 158.454H372.126L370.878 172.444ZM358.228 157.193L359.45 143.203H373.44L372.271 157.14L358.228 157.193Z" fill="#32ADE6"/>
<path d="M297.276 188.273H287.359L288.935 170.316H298.84L297.276 188.273Z" fill="#32ADE6"/>
<path d="M312.527 188.273H302.61L304.606 165.403H314.524L312.527 188.273Z" fill="#263238"/>
<path d="M328.514 188.273H318.61L320.606 165.403H330.524L328.514 188.273Z" fill="#32ADE6"/>
<path d="M343.016 188.273H333.099L336.212 152.805H346.13L343.016 188.273Z" fill="#263238"/>
<path d="M358.268 188.273H348.35L351.686 150.152H361.604L358.268 188.273Z" fill="#32ADE6"/>
<path opacity="0.2" d="M297.276 188.273H287.359L288.935 170.316H298.84L297.276 188.273Z" fill="black"/>
<path opacity="0.2" d="M328.514 188.273H318.61L320.606 165.403H330.524L328.514 188.273Z" fill="black"/>
<path opacity="0.2" d="M358.268 188.273H348.35L351.686 150.152H361.604L358.268 188.273Z" fill="black"/>
<path d="M434.352 309.664C439.12 272.581 443.836 232.778 443.836 232.778L405.741 232.542C405.741 232.542 402.221 274.052 399.449 309.664H434.352Z" fill="#263238"/>
<path opacity="0.6" d="M435.691 309.664C437.373 295.871 439.041 281.697 440.486 269.323C440.828 264.16 441.143 259.142 441.458 254.387C438.555 247.675 432.867 243.97 428.887 259.471C424.925 275.949 424.759 293.112 428.401 309.664H435.691Z" fill="black"/>
<path d="M466.141 309.664C464.394 273.211 462.502 232.003 462.502 232.003H425.721C425.721 232.003 428.913 274.538 432.289 309.664H466.141Z" fill="#263238"/>
<path d="M402.142 145.265C399.514 151.282 396.585 157.561 393.472 163.367C391.922 166.309 390.254 169.134 388.52 171.774C386.998 174.167 385.199 176.372 383.16 178.342C382.81 178.667 382.437 178.966 382.043 179.235C381.868 179.33 381.701 179.44 381.544 179.564C381.544 179.564 381.728 179.643 381.544 179.669C381.278 179.671 381.014 179.617 380.769 179.511C379.706 179.065 378.718 178.458 377.84 177.712C376.685 176.776 375.593 175.767 374.569 174.69C370.119 169.763 366.065 164.492 362.444 158.927L355.692 162.066C357.981 169.173 361.276 175.915 365.479 182.086C366.641 183.753 367.927 185.329 369.328 186.802C370.948 188.522 372.811 189.996 374.858 191.176C376.16 191.912 377.563 192.452 379.022 192.779C380.75 193.159 382.538 193.185 384.277 192.858C387.054 192.239 389.652 190.99 391.869 189.206C395.095 186.562 397.949 183.495 400.355 180.089C402.589 177.072 404.659 173.937 406.555 170.697C408.381 167.492 410.102 164.273 411.652 160.976C413.202 157.679 414.7 154.408 416.079 150.914L402.142 145.265Z" fill="#F99C82"/>
<path d="M384.5 170.828L401.354 183.4C401.354 183.4 401.997 182.69 403.061 181.455C403.85 180.549 404.848 179.354 406.017 177.935C412.585 169.961 422.135 155.406 422.214 148.273C422.332 137.646 411.285 136.083 398.91 146.96C393.564 151.649 390.779 159.426 388.06 164.26C387.153 165.85 386.405 167.242 385.814 168.319C384.973 169.896 384.5 170.828 384.5 170.828Z" fill="#32ADE6"/>
<path opacity="0.3" d="M422.319 149.508C418.509 146.986 415.751 153.449 408.211 159.006C404.861 161.462 397.505 177.462 398.109 180.982L401.354 183.399C401.354 183.399 422.411 160.096 422.319 149.508Z" fill="black"/>
<path d="M357.571 164.628L347.929 156.996L357.86 150.612C357.86 150.612 365.742 159.203 363.6 162.158L357.571 164.628Z" fill="#F99C82"/>
<path d="M384.5 169.186L402.917 182.966L400.618 185.357L383.094 172.418L384.5 169.186Z" fill="#32ADE6"/>
<path opacity="0.2" d="M384.5 169.186L402.917 182.966L400.618 185.357L383.094 172.418L384.5 169.186Z" fill="black"/>
<path d="M405.544 232.542H462.568C462.962 227.458 461.793 210.88 462.66 189.784C463.202 174.148 465.101 158.589 468.335 143.282C468.584 142.126 468.847 140.996 469.123 139.84C469.123 139.84 466.233 139.249 462.095 138.645C458.654 138.146 454.332 137.633 450.115 137.423C442.043 136.97 433.951 136.97 425.879 137.423C422.148 137.778 418.51 138.395 415.606 138.947C411.902 139.696 409.708 140.339 409.708 140.339C409.708 140.339 395.666 172.588 405.544 232.542Z" fill="#32ADE6"/>
<path d="M347.338 146.027L355.39 143.374L357.86 150.612L347.929 156.996L347.338 146.027Z" fill="#F99C82"/>
<path d="M475.56 153.108C477.162 156.405 478.45 159.544 479.763 162.815C481.077 166.086 482.233 169.383 483.31 172.772C484.408 176.225 485.325 179.733 486.055 183.281C486.884 187.135 487.272 191.07 487.211 195.012C487.133 197.512 486.636 199.981 485.74 202.316C485.123 203.859 484.233 205.278 483.113 206.506C481.844 207.873 480.281 208.933 478.541 209.606C475.782 210.57 472.8 210.707 469.964 210C467.876 209.519 465.855 208.782 463.947 207.806C460.624 206.117 457.492 204.073 454.607 201.711C453.202 200.595 451.862 199.426 450.575 198.204C449.287 196.982 448.039 195.787 446.778 194.408L451.547 188.693C456.903 191.963 462.576 194.683 468.479 196.812C469.663 197.188 470.882 197.438 472.118 197.56C473.143 197.652 473.773 197.363 473.497 197.324C473.322 197.349 473.155 197.417 473.011 197.521C472.88 197.6 472.893 197.587 472.946 197.376C473.112 196.511 473.174 195.629 473.129 194.749C472.997 191.946 472.557 189.167 471.816 186.46C471.093 183.505 470.147 180.483 469.097 177.475C467.034 171.472 464.538 165.298 462.003 159.531L475.56 153.108Z" fill="#F99C82"/>
<path d="M453.924 190.546L444.926 182.191L440.118 193.028C440.118 193.028 449.826 199.518 452.414 196.969L453.924 190.546Z" fill="#F99C82"/>
<path d="M433.984 183.268L432.591 191.636L440.118 192.976L444.926 182.191L433.984 183.268Z" fill="#F99C82"/>
<path opacity="0.3" d="M462.66 189.797C463.202 174.157 465.101 158.593 468.335 143.282C464.525 142.953 458.01 143.282 456.933 149.482C455.764 156.103 457.235 171.656 462.66 189.797Z" fill="black"/>
<path d="M455.514 158.152C457.839 165.407 460.594 172.518 463.763 179.446C464.447 181.009 465.077 182.388 465.603 183.518C466.509 185.488 467.087 186.684 467.087 186.684L488.42 175.807C488.42 175.807 488.184 174.914 487.763 173.416C487.448 172.286 487.014 170.789 486.45 169.107C483.31 159.045 476.794 141.062 469.845 139.801C459.494 137.922 451.718 145.475 455.514 158.152Z" fill="#32ADE6"/>
<path d="M436.151 145.436C450.22 145.055 452.335 138.172 452.427 137.87L452.519 137.568L450.115 137.423C442.043 136.97 433.951 136.97 425.879 137.423L424.565 137.568C423.976 138.058 423.521 138.69 423.246 139.405C422.97 140.12 422.881 140.894 422.989 141.653C423.606 144.057 426.93 144.858 429.78 145.2L436.151 145.436Z" fill="#FAFAFA"/>
<path d="M487.921 171.971L464.604 183.899L467.244 187.13L488.919 175.873L487.921 171.971Z" fill="#32ADE6"/>
<path opacity="0.2" d="M487.921 171.971L464.604 183.899L467.244 187.13L488.919 175.873L487.921 171.971Z" fill="black"/>
<path d="M439.632 152.714L432.696 146.448L424.276 152.306C424.276 152.306 415.501 143.991 422.017 137.857C423.33 137.686 424.565 137.528 425.879 137.397C433.951 136.943 442.042 136.943 450.115 137.397C451.77 137.476 453.425 137.62 455.054 137.778C454.568 140.155 452.085 147.893 439.632 152.714Z" fill="#32ADE6"/>
<path opacity="0.2" d="M439.632 152.714L432.696 146.448L424.276 152.306C424.276 152.306 415.501 143.991 422.017 137.857C423.33 137.686 424.565 137.528 425.879 137.397C433.951 136.943 442.042 136.943 450.115 137.397C451.77 137.476 453.425 137.62 455.054 137.778C454.568 140.155 452.085 147.893 439.632 152.714Z" fill="black"/>
<path d="M435.692 144.017C449.248 143.768 451.048 137.449 451.048 137.449C445.793 132.195 447.79 118.021 449.59 110.205L443.1 115.591L434.273 122.921C434.536 124.099 434.725 125.292 434.838 126.494C435.311 131.275 434.076 135.689 427.035 137.305C427.035 137.305 418.667 142.835 431.081 143.873L435.692 144.017Z" fill="#F99C82"/>
<path opacity="0.2" d="M434.273 122.96C434.536 124.138 434.725 125.332 434.838 126.533C438.135 125.863 442.536 122.356 442.995 118.993C443.156 117.88 443.192 116.752 443.1 115.63L434.273 122.96Z" fill="black"/>
<path d="M452.269 99.013C450.01 109.377 449.222 115.551 443.074 120.28C441.1 121.844 438.737 122.838 436.239 123.154C433.74 123.47 431.204 123.096 428.903 122.073C426.602 121.05 424.625 119.417 423.187 117.35C421.748 115.283 420.903 112.862 420.742 110.349C419.941 100.694 423.764 85.3908 434.667 82.4352C437.014 81.7271 439.506 81.6502 441.893 82.212C444.279 82.7739 446.475 83.9547 448.26 85.6356C450.045 87.3165 451.355 89.4381 452.059 91.7866C452.763 94.1351 452.835 96.6276 452.269 99.013Z" fill="#F99C82"/>
<path d="M435.915 100.051C435.784 100.892 435.219 101.535 434.667 101.47C434.115 101.404 433.761 100.655 433.892 99.8012C434.023 98.9474 434.575 98.3168 435.14 98.3825C435.705 98.4482 436.046 99.197 435.915 100.051Z" fill="#263238"/>
<path d="M426.26 98.8948C426.129 99.7487 425.564 100.379 424.946 100.314C424.329 100.248 424.04 99.5122 424.171 98.6584C424.303 97.8045 424.854 97.174 425.419 97.2397C425.984 97.3054 426.391 98.041 426.26 98.8948Z" fill="#263238"/>
<path d="M429.255 99.683C427.817 102.173 426.049 104.457 424 106.474C425.314 108.051 427.941 107.722 427.941 107.722L429.255 99.683Z" fill="#CA5D3F"/>
<path d="M439.37 97.2922C439.458 97.297 439.545 97.274 439.619 97.2265C439.734 97.1603 439.819 97.0521 439.856 96.9247C439.892 96.7973 439.878 96.6607 439.816 96.5434C439.451 95.8275 438.915 95.213 438.255 94.7547C437.595 94.2963 436.832 94.0083 436.033 93.9162C435.9 93.9126 435.77 93.9614 435.672 94.0522C435.573 94.1431 435.515 94.2687 435.508 94.4022C435.504 94.4689 435.514 94.5355 435.537 94.5983C435.559 94.6611 435.594 94.7186 435.64 94.7676C435.685 94.8166 435.74 94.856 435.801 94.8835C435.861 94.911 435.927 94.926 435.994 94.9277C436.61 95.0108 437.198 95.2386 437.709 95.5925C438.221 95.9464 438.641 96.4163 438.936 96.9638C438.969 97.0546 439.027 97.1339 439.104 97.1922C439.181 97.2505 439.273 97.2852 439.37 97.2922Z" fill="#263238"/>
<path d="M422.621 95.0984C422.704 95.0969 422.785 95.0759 422.858 95.0371C422.931 94.9983 422.994 94.9428 423.041 94.8751C423.39 94.333 423.857 93.8773 424.408 93.5427C424.959 93.2081 425.579 93.0034 426.22 92.9441C426.288 92.9459 426.356 92.9339 426.419 92.9088C426.481 92.8837 426.539 92.846 426.587 92.7981C426.635 92.7501 426.672 92.6929 426.697 92.63C426.722 92.567 426.734 92.4996 426.733 92.4318C426.729 92.2982 426.674 92.1713 426.578 92.078C426.482 91.9847 426.354 91.9326 426.22 91.9326C425.412 91.9922 424.629 92.2379 423.932 92.6503C423.235 93.0628 422.642 93.6309 422.201 94.3103C422.163 94.3645 422.137 94.4256 422.124 94.4901C422.11 94.5545 422.109 94.621 422.121 94.6857C422.134 94.7504 422.159 94.8121 422.195 94.8671C422.231 94.9222 422.278 94.9696 422.332 95.0065C422.416 95.068 422.517 95.1003 422.621 95.0984Z" fill="#263238"/>
<path d="M425.13 110.533C425.13 110.533 428.296 109.719 437.215 109.482C436.243 112.189 434.352 114.435 429.78 114.514C429.209 114.581 428.63 114.53 428.08 114.362C427.53 114.195 427.02 113.916 426.584 113.542C426.147 113.168 425.792 112.708 425.542 112.19C425.292 111.672 425.152 111.108 425.13 110.533Z" fill="#263238"/>
<path d="M431.843 112.346C430.086 112.289 428.357 112.79 426.903 113.778C427.764 114.313 428.769 114.565 429.78 114.501C431.533 114.564 433.26 114.062 434.706 113.069C433.851 112.534 432.849 112.282 431.843 112.346Z" fill="#A02724"/>
<path d="M425.537 110.455C425.631 110.785 425.814 111.082 426.067 111.314C426.32 111.546 426.632 111.703 426.969 111.768C429.617 111.697 432.253 111.402 434.851 110.888C435.264 110.849 435.661 110.709 436.007 110.48C436.353 110.251 436.637 109.94 436.834 109.574C433.051 109.57 429.274 109.865 425.537 110.455Z" fill="#FAFAFA"/>
<path d="M446.345 91.2627C444.427 89.2923 443.875 86.9015 435.941 87.6109C428.007 88.3202 419.639 94.4285 419.797 87.6109C419.797 86.0345 421.189 87.8736 423.803 84.4582C423.803 84.4582 416.631 87.7028 418.877 83.1446C420.677 79.4665 422.713 85.115 431.895 78.0215C441.077 70.928 453.163 77.3253 456.644 86.8621C458.45 87.445 459.985 88.6601 460.967 90.2842C461.95 91.9083 462.313 93.8323 461.99 95.7027C461.176 101.798 452.624 106.29 451.744 113.712C451.612 114.763 452.926 116.471 451.875 117.075C451.271 117.417 449.787 115.21 449.787 115.21C449.579 115.625 449.428 116.067 449.34 116.523C449.13 117.509 451.284 120.057 449.432 121.174C448.381 121.804 447.921 119.926 447.291 116.734C447.024 115.318 446.949 113.874 447.067 112.438C447.514 106.028 444.44 108.97 444.558 104.898C444.637 102.074 446.897 97.3447 448.276 94.7175C448.503 94.3058 448.559 93.8212 448.431 93.3687C448.303 92.9162 448.002 92.5324 447.593 92.3005C447.121 92.0276 446.699 91.6767 446.345 91.2627Z" fill="#263238"/>
<path d="M454.66 109.837C452.985 111.862 450.667 113.253 448.092 113.778C444.821 114.33 444.151 111.308 445.741 108.379C447.238 105.752 450.745 102.284 453.622 103.125C456.499 103.965 456.775 107.289 454.66 109.837Z" fill="#F99C82"/>
<path d="M104.287 315.305L66.6692 310.926C66.4362 310.899 66.2107 310.826 66.0058 310.712C65.8009 310.598 65.6205 310.444 65.4749 310.26C65.3293 310.077 65.2214 309.866 65.1573 309.64C65.0932 309.414 65.0741 309.178 65.1012 308.945L65.2653 307.536L104.657 312.122L104.287 315.305Z" fill="#263238"/>
<path opacity="0.2" d="M104.287 315.305L66.6692 310.926C66.4362 310.899 66.2107 310.826 66.0058 310.712C65.8009 310.598 65.6205 310.444 65.4749 310.26C65.3293 310.077 65.2214 309.866 65.1573 309.64C65.0932 309.414 65.0741 309.178 65.1012 308.945L65.2653 307.536L104.657 312.122L104.287 315.305Z" fill="#FAFAFA"/>
<path d="M127.716 318.1L97.001 314.525C96.5304 314.47 96.1008 314.231 95.8068 313.859C95.5127 313.487 95.3783 313.014 95.4331 312.544L95.5971 311.135L128.087 314.917L127.716 318.1Z" fill="#263238"/>
<path opacity="0.5" d="M127.716 318.1L97.001 314.525C96.5304 314.47 96.1008 314.231 95.8068 313.859C95.5127 313.487 95.3783 313.014 95.4331 312.544L95.5971 311.135L128.087 314.917L127.716 318.1Z" fill="#FAFAFA"/>
<path d="M120.657 316.239L123.841 316.61L123.973 315.475L120.789 315.104L120.657 316.239Z" fill="#263238"/>
<path d="M115.683 315.665L118.867 316.036L118.999 314.901L115.816 314.53L115.683 315.665Z" fill="#263238"/>
<path d="M125.955 314.669L128.07 314.905L133.601 286.4L131.486 286.15L125.955 314.669Z" fill="#263238"/>
<path opacity="0.3" d="M125.955 314.669L128.07 314.905L133.601 286.4L131.486 286.15L125.955 314.669Z" fill="#FAFAFA"/>
<path d="M126.73 314.761L89.5288 310.426L95.0723 281.907L132.274 286.242L126.73 314.761Z" fill="#32ADE6"/>
<path opacity="0.5" d="M126.73 314.761L89.5288 310.426L95.0723 281.907L132.274 286.242L126.73 314.761Z" fill="#FAFAFA"/>
<path d="M50.7902 252.325C49.7656 254.361 48.6359 256.568 47.6244 258.722C46.6129 260.876 45.5883 263.057 44.6687 265.29C43.7492 267.523 42.8428 269.638 42.0415 271.779C41.309 273.759 40.7508 275.798 40.3732 277.875C40.2398 278.576 40.1782 279.289 40.1893 280.003V280.187V280.081C40.0054 279.819 41.122 281.119 41.9233 281.684C42.7246 282.249 43.6835 282.827 44.6687 283.379C48.6096 285.612 53.1941 287.595 57.5947 289.631L56.1103 295.779C53.4981 295.577 50.9009 295.213 48.3337 294.689C45.706 294.186 43.1163 293.501 40.5834 292.64C39.2359 292.183 37.9195 291.639 36.6426 291.011C35.0957 290.284 33.6514 289.357 32.3471 288.252C31.3964 287.424 30.5964 286.437 29.9826 285.336C29.8906 285.165 29.7987 284.981 29.7198 284.811L29.5228 284.364C29.4024 284.076 29.2971 283.782 29.2075 283.484C29.0347 282.946 28.8987 282.398 28.8003 281.842C28.5035 280.075 28.4417 278.278 28.6164 276.495C28.9289 273.621 29.5004 270.781 30.3241 268.009C31.0991 265.382 31.9924 262.886 32.9513 260.43C33.9103 257.973 34.948 255.596 36.0777 253.258C37.2074 250.919 38.3109 248.634 39.6639 246.269L50.7902 252.325Z" fill="#CE7A63"/>
<path d="M54.6658 289.829L64.1238 287.398L64.912 295.911C64.912 295.911 58.5278 298.538 54.6001 294.426L54.6658 289.829Z" fill="#CE7A63"/>
<path d="M67.9462 288.646L69.956 295.503L64.9117 295.911L64.1235 287.398L67.9462 288.646Z" fill="#CE7A63"/>
<path d="M30.7314 262.348L44.2354 269.034C44.2354 269.034 47.7033 270.137 54.0875 259.931C61.4831 248.108 57.4372 241.382 48.5178 241.067C39.5983 240.752 36.1041 252.01 30.7314 262.348Z" fill="#32ADE6"/>
<path opacity="0.5" d="M30.7314 262.348L44.2354 269.034C44.2354 269.034 47.7033 270.137 54.0875 259.931C61.4831 248.108 57.4372 241.382 48.5178 241.067C39.5983 240.752 36.1041 252.01 30.7314 262.348Z" fill="#FAFAFA"/>
<path opacity="0.2" d="M35.6968 264.844L43.4208 268.666L47.3485 264.029L42.9873 252.404L41.7788 251.064L38.7444 250.63L35.6968 264.844Z" fill="black"/>
<path d="M30.6265 261.362L45.5754 269.008L43.5787 271.372L29.8252 264.358L30.6265 261.362Z" fill="#32ADE6"/>
<path d="M71.0596 210.841C71.5062 210.736 72.0448 211.13 72.2812 211.8C72.5177 212.47 72.3469 213.114 71.9003 213.258C71.4537 213.403 70.9151 212.956 70.6786 212.299C70.4422 211.642 70.6261 210.946 71.0596 210.841Z" fill="#2E353A"/>
<path d="M73.4502 217.987C73.9485 217.935 74.4293 217.774 74.8583 217.515C75.2874 217.256 75.6543 216.906 75.9329 216.49C74.2255 215.451 72.662 214.192 71.2827 212.746L73.4502 217.987Z" fill="#ED893E"/>
<path d="M68.104 209.816C68.1852 209.311 68.3846 208.833 68.6859 208.42C68.9873 208.006 69.382 207.67 69.838 207.439C69.9252 207.396 69.9943 207.324 70.0328 207.235C70.0714 207.145 70.0768 207.045 70.0481 206.953C70.0148 206.85 69.9429 206.763 69.8474 206.712C69.752 206.66 69.6403 206.648 69.5358 206.677C68.9449 206.952 68.4315 207.37 68.0418 207.893C67.6521 208.416 67.3981 209.027 67.3027 209.672C67.2933 209.724 67.2944 209.777 67.3059 209.828C67.3175 209.88 67.3392 209.928 67.3698 209.971C67.4004 210.014 67.4393 210.05 67.4842 210.078C67.5291 210.105 67.579 210.124 67.6311 210.132H67.8413C67.9084 210.106 67.9677 210.063 68.0137 210.008C68.0597 209.953 68.0908 209.887 68.104 209.816Z" fill="#2E353A"/>
<path d="M51.6444 242.157C51.1846 244.167 50.8825 245.126 52.6953 246.006C56.423 247.955 60.6763 248.659 64.8331 248.016C69.1286 247.281 69.9036 245.744 69.7197 244.509C69.5723 244.034 69.3163 243.601 68.972 243.243C68.6276 242.885 68.2044 242.612 67.7361 242.446C66.7834 242.034 65.9743 241.348 65.4108 240.476C64.8474 239.604 64.5549 238.585 64.5703 237.547C64.3614 236.444 64.3614 235.313 64.5703 234.21L57.0039 229.126L51.1978 222.663C52.6243 229.069 52.776 235.693 51.6444 242.157Z" fill="#CE7A63"/>
<path d="M75.8278 246.65C75.8278 246.65 72.9773 238.768 68.3796 237.008C63.782 235.248 49.989 236.207 49.989 236.207C49.319 239.035 48.4409 241.81 47.3618 244.509L75.8278 246.65Z" fill="#32ADE6"/>
<path d="M47.5982 214.046C47.6942 210.944 49.0186 208.007 51.2801 205.881C53.5415 203.755 56.5548 202.614 59.6571 202.71C68.5503 203.025 73.7522 214.453 74.5535 222.243C75.4336 230.9 66.9214 238.138 58.7902 234.197C53.3649 231.57 51.8543 226.867 48.5834 219.064C47.8928 217.483 47.5566 215.771 47.5982 214.046Z" fill="#CE7A63"/>
<path opacity="0.2" d="M49.0301 239.622C48.5309 241.277 47.9792 242.906 47.3486 244.509L73.6209 246.492C72.9774 244.931 72.1624 243.447 71.1907 242.066C64.8854 239.504 53.7591 239.491 49.0301 239.622Z" fill="black"/>
<path d="M135.834 388.56L143.86 385.092L150.034 404.415L142.008 407.896L135.834 388.56Z" fill="#CE7A63"/>
<path opacity="0.2" d="M135.834 388.56L143.86 385.092L146.947 394.747L138.829 397.939L135.834 388.56Z" fill="black"/>
<path d="M150.927 401.026C153.331 403.036 158.231 404.494 161.988 404.704C164.878 404.862 165.127 408.172 161.502 408.789C157.876 409.407 151.558 409.105 148.904 409.223C144.596 409.38 143.138 410.09 139.709 410.037C139.301 410.017 138.918 409.838 138.64 409.538C138.363 409.239 138.214 408.843 138.225 408.435L138.947 400.697C138.961 400.532 139.038 400.379 139.164 400.271C139.289 400.163 139.452 400.109 139.617 400.119L149.417 400.435C149.973 400.454 150.506 400.663 150.927 401.026Z" fill="#32ADE6"/>
<path d="M62.521 308.797C62.521 308.797 55.7821 316.784 61.2074 329.434C67.3419 343.765 99.8933 337.473 117.693 342.045C120.228 367.358 135.006 393.276 135.006 393.276L147.354 388.441C147.354 388.441 142.008 368.277 137.988 332.56C136.018 314.984 91.4205 313.066 91.4205 313.066L62.521 308.797Z" fill="#32ADE6"/>
<path d="M132.537 391.042L148.274 385.551L149.22 391.305L134.888 396.507L132.537 391.042Z" fill="#32ADE6"/>
<path d="M97.8309 396.849L106.501 396.441L105.082 416.881L96.4253 417.302L97.8309 396.849Z" fill="#CE7A63"/>
<path d="M107.447 414.74C109.851 416.737 113.897 419.522 117.614 420.06C120.005 420.402 121.804 424.001 117.325 424.001C112.846 424.001 108.13 423.581 105.411 423.489C101.102 423.357 99.6701 423.738 96.2153 423.738C95.8064 423.721 95.4209 423.543 95.1428 423.243C94.8648 422.943 94.7167 422.545 94.7309 422.136L95.4403 414.398C95.4569 414.235 95.5356 414.084 95.6602 413.976C95.7848 413.869 95.9458 413.813 96.1102 413.82L105.91 414.123C106.478 414.143 107.022 414.362 107.447 414.74Z" fill="#32ADE6"/>
<path opacity="0.2" d="M97.0557 408.132L105.673 408.146L106.501 396.441L97.8307 396.862L97.0557 408.132Z" fill="black"/>
<path d="M40.8725 310.19C40.8725 310.19 33.7659 324.639 40.6755 333.835C46.9283 342.229 78.849 342.78 95.0984 342.78C93.4827 362.576 95.2692 403.206 95.2692 403.206L108.261 403.023C108.261 403.023 117.456 363.929 119.308 336.58C120.359 321.381 66.2646 311.306 66.2646 311.306L40.8725 310.19Z" fill="#32ADE6"/>
<path d="M93.4697 400.553L111.322 400.027L110.547 405.361L94.1528 405.597L93.4697 400.553Z" fill="#32ADE6"/>
<path d="M40.6096 312.252L86.1132 313.171L87.6501 253.284C87.3649 250.017 85.8684 246.976 83.4547 244.757C81.0411 242.537 77.8847 241.301 74.6059 241.29H48.0053C46.78 241.282 45.5652 241.518 44.4324 241.985C43.2997 242.452 42.2717 243.141 41.4089 244.011C40.5461 244.881 39.866 245.915 39.4084 247.052C38.9508 248.188 38.725 249.405 38.7443 250.63L40.6096 312.252Z" fill="#32ADE6"/>
<path opacity="0.6" d="M40.6096 312.252L86.1132 313.171L87.6501 253.284C87.3649 250.017 85.8684 246.976 83.4547 244.757C81.0411 242.537 77.8847 241.301 74.6059 241.29H48.0053C46.78 241.282 45.5652 241.518 44.4324 241.985C43.2997 242.452 42.2717 243.141 41.4089 244.011C40.5461 244.881 39.866 245.915 39.4084 247.052C38.9508 248.188 38.725 249.405 38.7443 250.63L40.6096 312.252Z" fill="#FAFAFA"/>
<path d="M86.9806 251.891L87.8344 255.254C88.1366 256.41 88.4518 257.566 88.7934 258.722C89.4765 261.021 90.107 263.32 90.9346 265.566C91.7622 267.812 92.4978 270.032 93.391 272.134C94.2483 274.242 95.2264 276.299 96.3204 278.295C96.8288 279.255 97.3856 280.189 97.9887 281.093C98.1424 281.249 98.3309 281.366 98.5388 281.434C98.7467 281.503 98.9678 281.521 99.1841 281.487C100.174 281.425 101.158 281.284 102.127 281.067C106.707 279.906 111.198 278.418 115.565 276.614L118.941 281.96C116.914 283.702 114.767 285.299 112.517 286.742C110.206 288.253 107.761 289.55 105.214 290.617C103.798 291.219 102.329 291.69 100.826 292.022C98.8993 292.469 96.9022 292.523 94.9542 292.18C93.53 291.911 92.1837 291.327 91.0134 290.472C90.3689 290.004 89.7902 289.452 89.2926 288.83L88.5963 287.976C87.7206 286.82 86.8799 285.651 86.0742 284.469C83.1701 279.849 80.7616 274.935 78.8887 269.809C77.9692 267.313 77.1154 264.804 76.3929 262.256C76.0251 260.942 75.6835 259.721 75.3551 258.433C75.0267 257.146 74.7377 255.911 74.4487 254.492L86.9806 251.891Z" fill="#CE7A63"/>
<path d="M117.43 282.525L126.231 278.282L121.371 271.28C121.371 271.28 114.803 273.369 114.448 279.057L117.43 282.525Z" fill="#CE7A63"/>
<path d="M128.307 274.866L125.417 268.325L121.305 271.28L126.192 278.282L128.307 274.866Z" fill="#CE7A63"/>
<path d="M78.6914 272.213L92.261 267.392C92.261 267.392 94.1921 265.54 90.6847 254.059C86.5994 240.673 78.8622 239.346 72.8064 245.849C66.7507 252.351 74.4484 261.336 78.6914 272.213Z" fill="#32ADE6"/>
<path opacity="0.5" d="M78.6914 272.213L92.261 267.392C92.261 267.392 94.1921 265.54 90.6847 254.059C86.5994 240.673 78.8622 239.346 72.8064 245.849C66.7507 252.351 74.4484 261.336 78.6914 272.213Z" fill="#FAFAFA"/>
<path d="M77.2466 271.031L93.0888 265.461L93.4303 268.535L78.8623 273.671L77.2466 271.031Z" fill="#32ADE6"/>
<path d="M52.8267 229.875C54.925 229.556 57.0686 229.722 59.0926 230.361C59.4629 230.488 59.8662 230.478 60.2299 230.333C60.5936 230.189 60.8937 229.919 61.0761 229.573C62.2453 227.353 64.5704 222.861 65.4636 220.838C65.4636 220.838 69.5752 218.828 67.526 213.271C65.4767 207.715 65.4636 205.954 65.4636 205.954C65.4636 205.954 71.8478 200.371 65.792 197.087C59.7363 193.803 62.508 199.82 55.8348 201.133C49.1617 202.447 41.5953 209.015 44.3407 217.015C46.3637 222.913 50.0418 227.235 51.1452 229.087C51.3132 229.373 51.5637 229.601 51.8638 229.742C52.1639 229.882 52.4996 229.929 52.8267 229.875Z" fill="#263238"/>
<path d="M62.6262 214.887C64.8593 214.545 67.2632 216.805 68.0514 218.828C68.9315 221.113 67.7887 223.714 65.4242 223.084C63.6083 222.565 62.0438 221.402 61.0236 219.813C59.7888 217.79 60.393 215.215 62.6262 214.887Z" fill="#CE7A63"/>
<path d="M59.3817 396.231V346.721H51.5001V396.349L31.428 401.604C29.748 402.05 28.2626 403.039 27.203 404.417C26.1434 405.795 25.569 407.485 25.5693 409.223V410.839C25.5693 411.622 25.8807 412.374 26.435 412.929C26.9893 413.483 27.7411 413.794 28.525 413.794C29.3088 413.794 30.0606 413.483 30.6149 412.929C31.1692 412.374 31.4806 411.622 31.4806 410.839C31.4768 409.918 31.7794 409.022 32.3406 408.292C32.9018 407.562 33.6899 407.039 34.5807 406.806L51.5001 402.34V410.839C51.5001 411.622 51.8115 412.374 52.3657 412.929C52.92 413.483 53.6718 413.794 54.4557 413.794H56.413C57.1969 413.794 57.9486 413.483 58.5029 412.929C59.0572 412.374 59.3686 411.622 59.3686 410.839V402.287L76.2091 406.95C77.1202 407.187 77.9247 407.724 78.4922 408.475C79.0597 409.226 79.3568 410.147 79.3355 411.088C79.3285 411.871 79.631 412.625 80.1771 413.186C80.7233 413.747 81.4689 414.069 82.2517 414.083C82.641 414.088 83.0274 414.017 83.3889 413.872C83.7503 413.728 84.0796 413.513 84.3579 413.241C84.6362 412.969 84.858 412.644 85.0105 412.286C85.1631 411.928 85.2433 411.543 85.2468 411.154V409.538C85.2662 407.799 84.7099 406.102 83.6645 404.712C82.619 403.322 81.1432 402.317 79.4669 401.853L59.3817 396.231Z" fill="#263238"/>
<path d="M23.6514 419.298C23.6488 418.349 23.9278 417.421 24.453 416.631C24.9783 415.841 25.7262 415.224 26.6021 414.859C27.478 414.494 28.4424 414.397 29.3734 414.581C30.3043 414.764 31.1599 415.22 31.8318 415.89C32.5036 416.56 32.9616 417.414 33.1476 418.345C33.3337 419.275 33.2395 420.24 32.877 421.117C32.5145 421.994 31.9 422.743 31.1112 423.271C30.3224 423.798 29.3949 424.08 28.4461 424.08C27.1767 424.08 25.9591 423.576 25.0603 422.68C24.1615 421.784 23.6549 420.568 23.6514 419.298Z" fill="#32ADE6"/>
<path d="M77.562 419.298C77.5594 418.349 77.8384 417.421 78.3637 416.631C78.8889 415.841 79.6369 415.224 80.5127 414.859C81.3886 414.494 82.3531 414.397 83.284 414.581C84.215 414.764 85.0705 415.22 85.7424 415.89C86.4143 416.56 86.8722 417.414 87.0583 418.345C87.2444 419.275 87.1502 420.24 86.7877 421.117C86.4252 421.994 85.8106 422.743 85.0219 423.271C84.2331 423.798 83.3056 424.08 82.3567 424.08C81.0874 424.08 79.8698 423.576 78.971 422.68C78.0722 421.784 77.5655 420.568 77.562 419.298Z" fill="#32ADE6"/>
<path d="M50.6065 419.298C50.6039 418.349 50.8829 417.421 51.4081 416.631C51.9334 415.841 52.6813 415.224 53.5572 414.859C54.4331 414.494 55.3975 414.397 56.3285 414.581C57.2594 414.764 58.115 415.22 58.7868 415.89C59.4587 416.56 59.9167 417.414 60.1027 418.345C60.2888 419.275 60.1946 420.24 59.8321 421.117C59.4696 421.994 58.8551 422.743 58.0663 423.271C57.2775 423.798 56.35 424.08 55.4012 424.08C54.1318 424.08 52.9142 423.576 52.0154 422.68C51.1166 421.784 50.6099 420.568 50.6065 419.298Z" fill="#32ADE6"/>
<path opacity="0.6" d="M59.3812 346.76H51.5127V357.939H59.3812V346.76Z" fill="black"/>
<path opacity="0.6" d="M45.6411 403.968L50.6066 402.655V396.625L45.6411 397.939V403.968Z" fill="black"/>
<path opacity="0.6" d="M65.1612 397.834L60.1826 396.454V402.51L65.1612 403.89V397.834Z" fill="black"/>
<path d="M61.8643 343.437H109.667C111.123 343.437 112.52 344.016 113.549 345.045C114.579 346.075 115.158 347.472 115.158 348.928H61.8643V343.437Z" fill="#32ADE6"/>
<path opacity="0.5" d="M61.8643 343.437H109.667C111.123 343.437 112.52 344.016 113.549 345.045C114.579 346.075 115.158 347.472 115.158 348.928H61.8643V343.437Z" fill="black"/>
<path d="M27.9336 273.159C11.1324 273.159 -0.834572 285.691 0.0455482 302.373L1.96342 338.839C2.10804 341.55 3.28665 344.101 5.25642 345.968C7.22619 347.835 9.83708 348.876 12.5511 348.875H80.0708L66.1203 302.373C61.1154 285.743 44.7347 273.159 27.9336 273.159Z" fill="#32ADE6"/>
<path opacity="0.1" d="M27.9336 273.159C11.1324 273.159 -0.834572 285.691 0.0455482 302.373L1.96342 338.839C2.10804 341.55 3.28665 344.101 5.25642 345.968C7.22619 347.835 9.83708 348.876 12.5511 348.875H80.0708L66.1203 302.373C61.1154 285.743 44.7347 273.159 27.9336 273.159Z" fill="black"/>
<path opacity="0.3" d="M24.5313 273.395C9.54294 274.972 -0.768918 286.886 0.0455221 302.426L1.9634 338.839C2.10801 341.55 3.28662 344.101 5.25639 345.968C7.22616 347.835 9.83705 348.876 12.5511 348.875H73.2663L59.3157 302.374C54.6524 286.873 40.0976 274.945 24.5313 273.395Z" fill="black"/>
<path d="M87.6635 347.352C87.1741 346.859 86.8995 346.194 86.8995 345.499C86.8995 344.805 87.1741 344.14 87.6635 343.647L101.969 329.342C102.177 329.134 102.319 328.87 102.376 328.581C102.434 328.293 102.404 327.994 102.292 327.723C102.179 327.451 101.988 327.219 101.744 327.056C101.499 326.893 101.212 326.806 100.918 326.807H70.2581C69.5613 326.807 68.8931 326.53 68.4004 326.037C67.9077 325.545 67.6309 324.876 67.6309 324.18C67.6309 323.483 67.9077 322.814 68.4004 322.322C68.8931 321.829 69.5613 321.552 70.2581 321.552H100.642C101.9 321.529 103.14 321.845 104.234 322.466C105.327 323.088 106.233 323.993 106.855 325.086C107.548 326.363 107.808 327.83 107.597 329.267C107.387 330.705 106.716 332.035 105.686 333.06L91.381 347.352C91.137 347.596 90.8472 347.79 90.5283 347.922C90.2094 348.054 89.8675 348.122 89.5222 348.122C89.177 348.122 88.8351 348.054 88.5162 347.922C88.1972 347.79 87.9075 347.596 87.6635 347.352Z" fill="#263238"/>
<path opacity="0.2" d="M106.921 325.086C106.298 323.993 105.393 323.088 104.299 322.466C103.206 321.845 101.965 321.529 100.708 321.552H70.2581C69.5613 321.552 68.8931 321.829 68.4004 322.322C67.9077 322.814 67.6309 323.483 67.6309 324.18C67.6309 324.876 67.9077 325.545 68.4004 326.037C68.8931 326.53 69.5613 326.807 70.2581 326.807H100.918C101.157 326.8 101.393 326.86 101.601 326.978H107.525C107.414 326.322 107.21 325.685 106.921 325.086Z" fill="#FAFAFA"/>
<path d="M207.4 309.362H169.528C169.294 309.362 169.062 309.316 168.845 309.226C168.628 309.136 168.431 309.005 168.265 308.839C168.099 308.673 167.968 308.476 167.878 308.259C167.788 308.042 167.742 307.81 167.742 307.575V306.157H207.4V309.362Z" fill="#263238"/>
<path opacity="0.2" d="M207.4 309.362H169.528C169.294 309.362 169.062 309.316 168.845 309.226C168.628 309.136 168.431 309.005 168.265 308.839C168.099 308.673 167.968 308.476 167.878 308.259C167.788 308.042 167.742 307.81 167.742 307.575V306.157H207.4V309.362Z" fill="#FAFAFA"/>
<path d="M231.032 309.362H200.109C199.635 309.362 199.181 309.174 198.846 308.839C198.511 308.504 198.323 308.049 198.323 307.575V306.157H231.032V309.362Z" fill="#263238"/>
<path opacity="0.5" d="M231.032 309.362H200.109C199.635 309.362 199.181 309.174 198.846 308.839C198.511 308.504 198.323 308.049 198.323 307.575V306.157H231.032V309.362Z" fill="#FAFAFA"/>
<path d="M223.794 308.324H226.999V307.181H223.794V308.324Z" fill="#263238"/>
<path d="M218.802 308.324H222.007V307.181H218.802V308.324Z" fill="#263238"/>
<path d="M228.864 306.157H230.992L233.199 277.192H231.058L228.864 306.157Z" fill="#263238"/>
<path opacity="0.3" d="M228.864 306.157H230.992L233.199 277.192H231.058L228.864 306.157Z" fill="#FAFAFA"/>
<path d="M229.639 306.157H192.188L194.395 277.192H231.846L229.639 306.157Z" fill="#32ADE6"/>
<path opacity="0.4" d="M229.639 306.157H192.188L194.395 277.192H231.846L229.639 306.157Z" fill="#FAFAFA"/>
<path d="M166.218 246.138C165.062 250.249 164.773 254.663 170.684 256.266C170.684 256.266 176.201 264.042 169.581 269.257C165.387 263.736 160.096 259.143 154.041 255.767C157.89 252.325 157.141 242.512 156.248 237.14L166.218 246.138Z" fill="#CE7A63"/>
<path d="M173.561 224.778C174.008 224.66 174.56 225.081 174.783 225.764C175.006 226.447 174.783 227.169 174.363 227.274C173.942 227.379 173.364 226.985 173.141 226.289C172.918 225.593 173.101 224.884 173.561 224.778Z" fill="#2E353A"/>
<path d="M174.875 223.859L173.364 224.87C174.441 225.435 174.875 223.859 174.875 223.859Z" fill="#2E353A"/>
<path d="M175.23 232.213C175.69 232.181 176.138 232.046 176.54 231.819C176.942 231.591 177.289 231.278 177.555 230.9C176.079 229.886 174.752 228.67 173.614 227.287L175.23 232.213Z" fill="#BA4D3C"/>
<path d="M171.919 220.246C171.477 220.55 171.114 220.956 170.86 221.429C170.606 221.902 170.469 222.429 170.461 222.966C170.463 223.021 170.454 223.076 170.434 223.127C170.415 223.179 170.385 223.227 170.347 223.267C170.31 223.307 170.264 223.339 170.214 223.362C170.163 223.385 170.109 223.397 170.054 223.399C169.999 223.401 169.945 223.392 169.894 223.372C169.843 223.352 169.797 223.323 169.757 223.285C169.718 223.247 169.687 223.201 169.666 223.151C169.644 223.101 169.634 223.046 169.634 222.992C169.635 222.314 169.799 221.646 170.112 221.045C170.425 220.444 170.878 219.927 171.433 219.537C171.525 219.474 171.637 219.448 171.747 219.465C171.857 219.482 171.956 219.541 172.024 219.629C172.063 219.692 172.083 219.765 172.083 219.839C172.083 219.913 172.063 219.986 172.024 220.049C172.011 220.125 171.975 220.194 171.919 220.246Z" fill="#2E353A"/>
<path d="M147.814 225.212C148.092 222.005 149.631 219.04 152.095 216.968C154.558 214.896 157.744 213.888 160.951 214.164C170.356 214.861 175.571 227.09 176.202 235.3C176.911 244.43 167.414 250.249 158.849 245.809C153.108 242.841 152.005 239.241 148.695 230.926C147.952 229.118 147.65 227.159 147.814 225.212Z" fill="#CE7A63"/>
<path opacity="0.21" d="M143.23 236.01C130.908 220.443 146.041 215.964 146.041 215.964C150.783 209.396 158.599 208.082 165.745 210.802C172.891 213.521 170.789 218.355 168.175 218.828C173.062 225.291 170.264 228.509 168.648 228.969C171.21 245.231 155.525 251.576 143.23 236.01Z" fill="#263238"/>
<path d="M154.067 304.751C151.647 304.441 149.254 303.949 146.908 303.28C146.559 303.164 146.217 303.028 145.883 302.873L145.778 301.152C145.503 296.002 145.397 290.748 145.279 285.48L145.016 269.717H135.926C135.926 275.09 136.031 280.41 136.268 285.756C136.504 291.103 136.82 296.449 137.424 301.861L137.739 303.91L137.897 304.935C137.926 305.253 137.974 305.569 138.041 305.881C138.14 306.182 138.259 306.476 138.396 306.761C138.643 307.238 138.952 307.679 139.315 308.075C139.819 308.597 140.399 309.04 141.036 309.388C141.493 309.647 141.967 309.876 142.455 310.071C143.251 310.374 144.067 310.62 144.898 310.807C147.718 311.382 150.586 311.69 153.463 311.726C158.891 311.852 164.322 311.588 169.712 310.938L169.62 306.485C164.405 305.999 159.138 305.526 154.067 304.751Z" fill="#CE7A63"/>
<path d="M152.793 266.775C152.793 272.279 149.483 282.538 149.483 282.538L135.821 274.183C135.204 267.129 136.662 258.065 143.427 255.858C148.038 254.374 152.74 260.916 152.793 266.775Z" fill="#263238"/>
<path opacity="0.6" d="M142.98 262.821L139.841 265.921L139.237 276.285L149.483 282.577C149.483 282.577 152.793 272.279 152.793 266.814C152.761 265.385 152.499 263.97 152.018 262.624L147.302 261.205L142.98 262.821Z" fill="black"/>
<path d="M182.152 308.929C182.243 308.717 182.292 308.49 182.295 308.26C182.298 308.03 182.255 307.802 182.17 307.588C182.084 307.374 181.958 307.18 181.797 307.015C181.636 306.851 181.444 306.72 181.233 306.63L177.357 304.988C176.524 304.645 175.603 304.58 174.73 304.804L166.297 307.076L165.259 309.927C166.573 313.198 172.156 312.554 172.156 312.554L176.162 313.789C176.669 313.946 177.211 313.945 177.717 313.788C178.223 313.631 178.671 313.325 178.999 312.909L181.929 309.296C182.021 309.185 182.096 309.061 182.152 308.929Z" fill="#CE7A63"/>
<path d="M176.004 255.727C174.257 255.425 172.418 255.149 170.632 254.939C165.134 254.379 159.602 254.212 154.08 254.44C151.361 254.44 148.694 254.689 146.356 254.939H146.172C144.14 255.21 142.299 256.277 141.052 257.905C139.806 259.533 139.257 261.589 139.525 263.622C142.836 287.267 144.281 297.29 143.322 310.781L179.867 311.884C184.123 289.868 185.857 276.745 186.435 269.021C186.664 265.904 185.723 262.814 183.793 260.355C181.864 257.896 179.087 256.246 176.004 255.727Z" fill="#263238"/>
<path d="M218.421 391.226L227.052 390.412L232.871 411.666L224.24 412.481L218.421 391.226Z" fill="#CE7A63"/>
<path d="M155.709 310.768C141.824 329.158 142.928 344.829 157.272 344.829C170.054 344.829 185.988 345.591 203.249 344.488C207.045 372.323 221.547 404.757 221.547 404.757L231.124 403.863C231.124 403.863 222.388 363.141 221.718 334.702C221.298 317.506 172.747 318.938 172.747 318.938C172.747 318.938 164.235 310.82 155.709 310.768Z" fill="#263238"/>
<path opacity="0.3" d="M155.709 310.768C141.824 329.158 142.928 344.829 157.272 344.829C170.054 344.829 185.988 345.591 203.249 344.488C207.045 372.323 221.547 404.757 221.547 404.757L231.124 403.863C231.124 403.863 222.388 363.141 221.718 334.702C221.298 317.506 172.747 318.938 172.747 318.938C172.747 318.938 164.235 310.82 155.709 310.768Z" fill="#FAFAFA"/>
<path opacity="0.2" d="M222.861 351.345C222.296 345.605 221.889 339.943 221.771 334.702C221.35 317.506 172.799 318.938 172.799 318.938C171.726 317.965 170.599 317.052 169.423 316.206C167.545 316.442 166.468 316.6 166.468 316.6C166.468 316.6 159.138 316.482 151.834 316.429C142.205 332.193 144.438 344.803 157.272 344.803C164.865 344.803 173.601 345.066 183.059 345.053C195.906 341.545 209.199 337.171 215.229 335.253C217.225 340.86 219.782 346.251 222.861 351.345Z" fill="black"/>
<path d="M143.44 308.337L180.458 309.441C180.812 309.441 181.062 309.651 181.062 309.874L180.641 313.185C180.641 313.382 180.326 313.526 179.998 313.526L142.389 312.423C141.969 312.423 141.68 312.147 141.811 311.897L142.849 308.653C142.907 308.549 142.993 308.464 143.098 308.408C143.203 308.352 143.322 308.327 143.44 308.337Z" fill="#263238"/>
<path d="M204.523 297.277C200.582 297.789 196.484 298.288 192.556 298.59C190.67 298.772 188.775 298.842 186.881 298.8C186.366 298.787 185.852 298.734 185.344 298.643C185.007 297.177 184.774 295.689 184.648 294.19C184.504 292.338 184.464 290.472 184.504 288.607C184.543 286.742 184.714 284.771 184.911 282.879C185.003 281.921 185.121 280.922 185.265 280.016C185.41 279.109 185.554 278.072 185.699 277.297L176.832 275.405C176.569 276.614 176.385 277.625 176.228 278.715C176.07 279.806 175.952 280.843 175.834 281.973C175.614 284.155 175.513 286.348 175.532 288.541C175.495 293.137 176.233 297.707 177.712 302.058L177.857 302.479L177.975 302.768L178.133 303.135C178.251 303.362 178.383 303.581 178.527 303.792C179.011 304.487 179.643 305.066 180.379 305.487C181.245 305.971 182.194 306.287 183.177 306.419C184.482 306.604 185.805 306.635 187.118 306.511C189.33 306.322 191.525 305.97 193.686 305.461C197.797 304.497 201.832 303.232 205.758 301.677L204.523 297.277Z" fill="#CE7A63"/>
<path d="M171.183 265.645C168.294 269.691 174.073 280.725 174.073 280.725L185.502 280.003C185.502 280.003 188.484 265.816 183.229 259.668C180.392 256.384 174.231 261.428 171.183 265.645Z" fill="#263238"/>
<path d="M213.902 290.078C214.148 290.104 214.386 290.179 214.602 290.298C214.819 290.416 215.009 290.577 215.163 290.77C215.317 290.963 215.432 291.185 215.499 291.422C215.567 291.66 215.587 291.908 215.557 292.154L215.111 297.119C215.077 297.492 214.935 297.846 214.701 298.138C214.467 298.43 214.153 298.647 213.797 298.761L209.278 300.075C209.278 300.075 200.937 305.329 198.244 303.057L201.357 298.748L207.045 292.259C207.686 291.52 208.555 291.016 209.515 290.827L213.324 290.065C213.516 290.039 213.711 290.044 213.902 290.078Z" fill="#CE7A63"/>
<path d="M233.593 411.088C235.643 413.177 239.137 416.132 242.552 416.973C244.733 417.512 246.073 421.045 241.922 420.625C237.771 420.205 233.344 419.311 230.9 419.049C226.96 418.523 225.541 418.747 222.362 418.431C221.985 418.376 221.644 418.174 221.415 417.869C221.187 417.563 221.088 417.18 221.14 416.802L222.52 409.775C222.548 409.624 222.634 409.491 222.759 409.403C222.884 409.315 223.038 409.279 223.189 409.302L232.267 410.497C232.762 410.542 233.229 410.75 233.593 411.088Z" fill="#263238"/>
<path d="M168.11 218.841C168.11 218.841 172.602 223.938 169.62 229.442C169.62 229.442 166.875 232.883 168.11 240.108C169.345 247.333 174.875 253.152 162.448 253.087C150.757 253.021 136.084 255.386 137.726 243.97C137.726 243.97 132.393 238.965 138.396 233.619C138.396 233.619 133.864 227.34 139.46 222.374C139.46 222.374 136.57 212.115 146.58 212.627C146.58 212.627 148.813 202.421 159.479 208.148C159.479 208.148 163.998 200.949 170.842 208.148C170.842 208.148 181.982 209.054 174.126 215.531C174.126 215.557 174.507 220.811 168.11 218.841Z" fill="#263238"/>
<path d="M176.543 229.429C176.277 229.427 176.02 229.329 175.821 229.153C174.822 228.312 174.415 225.593 174.297 224.463L169.042 226.946L168.767 226.342L176.057 222.939C176.235 222.845 176.434 222.796 176.635 222.796C176.837 222.796 177.035 222.845 177.213 222.939C177.391 223.032 177.544 223.165 177.663 223.326C177.781 223.488 177.861 223.675 177.896 223.872C178.185 225.619 178.356 227.892 177.594 228.89C177.484 229.034 177.346 229.154 177.188 229.242C177.03 229.33 176.855 229.385 176.675 229.402L176.543 229.429ZM174.927 224.174C175.046 225.383 175.453 227.984 176.241 228.654C176.331 228.733 176.449 228.776 176.569 228.772C176.663 228.765 176.753 228.738 176.835 228.693C176.917 228.647 176.987 228.585 177.042 228.509C177.515 227.892 177.581 226.25 177.2 224.003C177.188 223.905 177.152 223.812 177.094 223.732C177.037 223.651 176.96 223.587 176.872 223.544C176.782 223.499 176.683 223.475 176.583 223.475C176.482 223.475 176.383 223.499 176.294 223.544L174.927 224.174Z" fill="#32ADE6"/>
<path d="M164.721 229.455C164.671 229.046 164.703 228.631 164.814 228.234C164.926 227.838 165.114 227.467 165.37 227.144C165.625 226.82 165.941 226.55 166.301 226.349C166.661 226.149 167.057 226.021 167.466 225.974C169.857 225.724 171.696 228.601 172.221 230.585C172.799 232.844 171.538 234.92 169.2 234.184C167.435 233.602 165.971 232.346 165.128 230.69C164.903 230.313 164.764 229.891 164.721 229.455Z" fill="#CE7A63"/>
<path d="M245.101 372.126L252.417 365.191L262.204 380.061L256.345 385.131L245.101 372.126Z" fill="#CE7A63"/>
<path d="M146.777 311.07C145.91 311.061 145.066 311.344 144.38 311.873C143.694 312.402 143.206 313.146 142.993 313.986C138.054 333.243 143.624 344.882 157.272 344.882C170.054 344.882 204.93 333.467 215.886 329.92C225.081 356.429 251.55 380.166 251.55 380.166L258.499 373.795C258.499 373.795 243.078 344.094 232.411 317.677C226.29 302.505 167.125 311.267 167.125 311.267C167.125 311.267 155.355 311.07 146.777 311.07Z" fill="#263238"/>
<path opacity="0.3" d="M146.777 311.07C145.91 311.061 145.066 311.344 144.38 311.873C143.694 312.402 143.206 313.146 142.993 313.986C138.054 333.243 143.624 344.882 157.272 344.882C170.054 344.882 204.93 333.467 215.886 329.92C225.081 356.429 251.55 380.166 251.55 380.166L258.499 373.795C258.499 373.795 243.078 344.094 232.411 317.677C226.29 302.505 167.125 311.267 167.125 311.267C167.125 311.267 155.355 311.07 146.777 311.07Z" fill="#FAFAFA"/>
<path d="M262.309 376.763C265.225 376.54 269.442 374.32 272.095 372.008C274.118 370.222 276.456 372.271 274.433 375.043C272.41 377.814 268.01 381.755 266.315 383.555C263.544 386.484 263.031 387.903 260.732 390.123C260.447 390.375 260.073 390.505 259.693 390.485C259.312 390.466 258.955 390.298 258.696 390.018L254.125 384.382C254.074 384.324 254.035 384.256 254.01 384.183C253.986 384.11 253.976 384.032 253.983 383.955C253.989 383.877 254.01 383.802 254.046 383.734C254.082 383.665 254.131 383.604 254.191 383.555L260.943 377.368C261.317 377.019 261.799 376.806 262.309 376.763Z" fill="#263238"/>
<path d="M157.089 396.231V346.721H149.207V396.349L129.148 401.604C127.466 402.048 125.977 403.035 124.915 404.414C123.853 405.792 123.277 407.483 123.276 409.223V410.839C123.276 411.622 123.588 412.374 124.142 412.928C124.696 413.483 125.448 413.794 126.232 413.794C127.016 413.794 127.767 413.483 128.322 412.928C128.876 412.374 129.187 411.622 129.187 410.839C129.184 409.918 129.486 409.022 130.047 408.292C130.609 407.562 131.397 407.039 132.288 406.806L149.207 402.339V410.839C149.207 411.622 149.518 412.374 150.073 412.928C150.627 413.483 151.379 413.794 152.162 413.794H154.12C154.904 413.794 155.655 413.483 156.21 412.928C156.764 412.374 157.075 411.622 157.075 410.839V402.287L173.916 406.95C174.802 407.197 175.582 407.73 176.134 408.467C176.685 409.204 176.977 410.102 176.963 411.022C176.956 411.808 177.261 412.563 177.81 413.125C178.359 413.686 179.108 414.007 179.893 414.017C180.281 414.021 180.666 413.948 181.026 413.803C181.386 413.657 181.714 413.442 181.991 413.17C182.267 412.898 182.488 412.574 182.64 412.217C182.791 411.86 182.871 411.476 182.875 411.088V409.472C182.894 407.733 182.338 406.036 181.292 404.647C180.247 403.257 178.771 402.251 177.095 401.788L157.089 396.231Z" fill="#263238"/>
<path d="M121.371 419.298C121.369 418.349 121.648 417.42 122.174 416.629C122.7 415.839 123.448 415.222 124.325 414.858C125.202 414.493 126.167 414.397 127.098 414.582C128.03 414.766 128.885 415.223 129.556 415.895C130.228 416.566 130.685 417.422 130.869 418.353C131.054 419.284 130.958 420.249 130.593 421.126C130.229 422.003 129.612 422.751 128.822 423.277C128.031 423.803 127.102 424.082 126.153 424.08C124.886 424.076 123.672 423.571 122.776 422.675C121.88 421.779 121.375 420.565 121.371 419.298Z" fill="#32ADE6"/>
<path d="M175.23 419.298C175.227 418.349 175.506 417.421 176.031 416.631C176.556 415.841 177.304 415.224 178.18 414.859C179.056 414.494 180.021 414.397 180.952 414.581C181.882 414.764 182.738 415.22 183.41 415.89C184.082 416.56 184.54 417.414 184.726 418.345C184.912 419.275 184.818 420.24 184.455 421.117C184.093 421.994 183.478 422.743 182.689 423.271C181.901 423.798 180.973 424.08 180.024 424.08C178.755 424.08 177.537 423.576 176.638 422.68C175.74 421.784 175.233 420.568 175.23 419.298Z" fill="#32ADE6"/>
<path d="M148.313 419.298C148.311 418.349 148.59 417.421 149.115 416.631C149.64 415.841 150.388 415.224 151.264 414.859C152.14 414.494 153.105 414.397 154.036 414.581C154.966 414.764 155.822 415.22 156.494 415.89C157.166 416.56 157.624 417.414 157.81 418.345C157.996 419.275 157.902 420.24 157.539 421.117C157.177 421.994 156.562 422.743 155.773 423.271C154.985 423.798 154.057 424.08 153.108 424.08C151.84 424.076 150.624 423.572 149.726 422.676C148.828 421.781 148.32 420.567 148.313 419.298Z" fill="#32ADE6"/>
<path opacity="0.6" d="M157.089 346.76H149.22V357.939H157.089V346.76Z" fill="black"/>
<path opacity="0.6" d="M143.348 403.968L148.314 402.655V396.625L143.348 397.939V403.968Z" fill="black"/>
<path opacity="0.6" d="M162.868 397.834L157.89 396.454V402.51L162.868 403.89V397.834Z" fill="black"/>
<path d="M159.571 343.437H207.387C208.841 343.441 210.234 344.021 211.261 345.05C212.288 346.079 212.865 347.474 212.865 348.928H159.571V343.437Z" fill="#32ADE6"/>
<path opacity="0.5" d="M159.571 343.437H207.387C208.841 343.441 210.234 344.021 211.261 345.05C212.288 346.079 212.865 347.474 212.865 348.928H159.571V343.437Z" fill="black"/>
<path d="M125.641 273.159C108.839 273.159 96.8725 285.691 97.7526 302.374L99.6836 338.839C99.8243 341.537 100.991 344.079 102.945 345.945C104.898 347.811 107.491 348.859 110.192 348.875H177.712L163.762 302.374C158.822 285.743 142.455 273.159 125.641 273.159Z" fill="#32ADE6"/>
<path opacity="0.1" d="M125.641 273.159C108.839 273.159 96.8725 285.691 97.7526 302.374L99.6836 338.839C99.8243 341.537 100.991 344.079 102.945 345.945C104.898 347.811 107.491 348.859 110.192 348.875H177.712L163.762 302.374C158.822 285.743 142.455 273.159 125.641 273.159Z" fill="black"/>
<path opacity="0.3" d="M122.251 273.395C107.25 274.972 96.9381 286.886 97.7526 302.426L99.6836 338.839C99.8243 341.537 100.991 344.079 102.945 345.945C104.898 347.811 107.491 348.859 110.192 348.875H170.908L156.957 302.374C152.359 286.873 137.818 274.945 122.251 273.395Z" fill="black"/>
<path d="M185.384 347.352C184.894 346.859 184.62 346.194 184.62 345.499C184.62 344.805 184.894 344.14 185.384 343.647L199.689 329.342C199.897 329.134 200.039 328.87 200.096 328.581C200.154 328.293 200.124 327.994 200.012 327.723C199.899 327.451 199.709 327.219 199.464 327.056C199.219 326.893 198.932 326.806 198.638 326.807H167.978C167.282 326.807 166.613 326.53 166.121 326.037C165.628 325.545 165.351 324.876 165.351 324.18C165.351 323.483 165.628 322.814 166.121 322.322C166.613 321.829 167.282 321.552 167.978 321.552H198.349C199.607 321.529 200.847 321.845 201.941 322.466C203.034 323.088 203.94 323.993 204.562 325.086C205.255 326.363 205.515 327.83 205.304 329.267C205.094 330.705 204.423 332.035 203.393 333.06L189.088 347.352C188.596 347.841 187.93 348.116 187.236 348.116C186.542 348.116 185.876 347.841 185.384 347.352Z" fill="#263238"/>
<path opacity="0.2" d="M204.562 325.086C203.94 323.993 203.034 323.088 201.941 322.466C200.847 321.845 199.607 321.529 198.349 321.552H167.978C167.282 321.552 166.613 321.829 166.121 322.322C165.628 322.814 165.351 323.483 165.351 324.18C165.351 324.876 165.628 325.545 166.121 326.037C166.613 326.53 167.282 326.807 167.978 326.807H198.638C198.873 326.803 199.104 326.862 199.308 326.978H205.232C205.106 326.317 204.88 325.679 204.562 325.086Z" fill="#FAFAFA"/>
</svg>
