<svg width="500" height="500" viewBox="0 0 500 500" fill="none" xmlns="http://www.w3.org/2000/svg">
<g clip-path="url(#clip0_3125_556)">
<path d="M68.6789 56.6193H431.097C433.893 56.6193 436.573 57.7297 438.55 59.7063C440.526 61.6828 441.637 64.3636 441.637 67.1589V319.333H58.2578V67.1589C58.2576 64.384 59.3518 61.7211 61.3028 59.7479C63.2537 57.7747 65.9042 56.6505 68.6789 56.6193Z" fill="#333333"/>
<path d="M441.637 319.991H58.2576C58.0829 319.991 57.9153 319.922 57.7918 319.798C57.6683 319.675 57.5989 319.507 57.5989 319.333V67.1588C57.5989 64.1993 58.7745 61.361 60.8672 59.2683C62.9599 57.1757 65.7982 56 68.7577 56H431.097C434.058 56 436.897 57.1752 438.992 59.2676C441.087 61.3599 442.266 64.1981 442.269 67.1588V319.333C442.269 319.503 442.203 319.667 442.085 319.789C441.968 319.912 441.807 319.985 441.637 319.991ZM58.8636 318.674H440.925V67.1588C440.929 65.8647 440.677 64.5826 440.185 63.3856C439.693 62.1887 438.97 61.1004 438.058 60.1829C437.145 59.2654 436.06 58.5366 434.866 58.0381C433.672 57.5397 432.391 57.2814 431.097 57.2779H68.6787C67.3834 57.2797 66.1013 57.5367 64.9054 58.0344C63.7096 58.532 62.6237 59.2605 61.7096 60.1782C60.7956 61.0959 60.0714 62.1848 59.5786 63.3826C59.0857 64.5804 58.8338 65.8636 58.8373 67.1588L58.8636 318.674Z" fill="#333333"/>
<path d="M499.117 435.479H0.658691L58.1787 319.333H441.61L499.117 435.479Z" fill="white"/>
<path d="M499.117 436.138H0.658553C0.545351 436.136 0.434361 436.106 0.335502 436.051C0.236642 435.996 0.152995 435.917 0.0920473 435.822C0.0365445 435.726 0.00732422 435.617 0.00732422 435.506C0.00732422 435.395 0.0365445 435.286 0.0920473 435.189L57.6121 319.043C57.6664 318.932 57.7508 318.838 57.8556 318.773C57.9604 318.708 58.0815 318.674 58.2049 318.674H441.637C441.758 318.675 441.877 318.709 441.98 318.775C442.082 318.84 442.164 318.933 442.216 319.043L499.736 435.189C499.792 435.286 499.821 435.395 499.821 435.506C499.821 435.617 499.792 435.726 499.736 435.822C499.672 435.926 499.58 436.01 499.471 436.066C499.362 436.122 499.239 436.147 499.117 436.138ZM1.71252 434.821H498.063L441.202 319.991H58.587L1.71252 434.821Z" fill="#333333"/>
<path d="M418.371 77.4218H81.3923V298.543H418.371V77.4218Z" fill="#0891B2"/>
<path d="M418.384 299.189H81.3924C81.2177 299.189 81.0501 299.119 80.9266 298.996C80.803 298.872 80.7336 298.705 80.7336 298.53V77.4218C80.7336 77.2471 80.803 77.0795 80.9266 76.956C81.0501 76.8325 81.2177 76.7631 81.3924 76.7631H418.384C418.559 76.7631 418.726 76.8325 418.85 76.956C418.973 77.0795 419.043 77.2471 419.043 77.4218V298.53C419.043 298.705 418.973 298.872 418.85 298.996C418.726 299.119 418.559 299.189 418.384 299.189ZM82.0511 297.871H417.725V78.0805H82.0511V297.871Z" fill="#333333"/>
<path d="M233.887 356.103L234.559 341.953H214.297L212.953 356.103H233.887Z" fill="#333333"/>
<path d="M233.901 356.762H212.953C212.862 356.761 212.772 356.741 212.688 356.705C212.604 356.669 212.529 356.617 212.466 356.551C212.405 356.481 212.36 356.399 212.333 356.31C212.306 356.222 212.297 356.129 212.308 356.037L213.625 341.887C213.641 341.724 213.718 341.573 213.84 341.464C213.962 341.354 214.12 341.294 214.284 341.295H234.546C234.635 341.293 234.723 341.309 234.804 341.343C234.886 341.377 234.96 341.428 235.02 341.492C235.085 341.555 235.135 341.631 235.166 341.716C235.198 341.8 235.211 341.89 235.205 341.98L234.533 356.129C234.526 356.295 234.458 356.452 234.341 356.569C234.223 356.686 234.066 356.755 233.901 356.762ZM213.678 355.444H233.268L233.874 342.612H214.903L213.678 355.444Z" fill="white"/>
<path d="M275.769 356.103L275.071 341.953H254.822L254.835 356.103H275.769Z" fill="#333333"/>
<path d="M275.769 356.761H254.835C254.66 356.761 254.493 356.692 254.369 356.569C254.246 356.445 254.176 356.277 254.176 356.103V341.953C254.173 341.866 254.187 341.778 254.219 341.697C254.251 341.615 254.299 341.541 254.361 341.479C254.423 341.417 254.497 341.369 254.579 341.337C254.66 341.305 254.748 341.291 254.835 341.295H275.098C275.264 341.294 275.425 341.359 275.545 341.474C275.665 341.59 275.736 341.747 275.743 341.914L276.441 356.063C276.448 356.153 276.435 356.243 276.403 356.327C276.371 356.411 276.321 356.488 276.257 356.551C276.196 356.619 276.121 356.673 276.036 356.71C275.952 356.746 275.861 356.764 275.769 356.761ZM255.494 355.444H275.071L274.452 342.612H255.481L255.494 355.444Z" fill="white"/>
<path d="M384.815 371.227H406.474L401.388 356.103H380.454L384.815 371.227Z" fill="#333333"/>
<path d="M406.474 371.886H384.815C384.672 371.888 384.532 371.843 384.418 371.757C384.303 371.671 384.221 371.549 384.183 371.412L379.822 356.287C379.796 356.189 379.792 356.086 379.81 355.986C379.829 355.886 379.868 355.791 379.927 355.707C379.988 355.625 380.067 355.558 380.159 355.512C380.25 355.466 380.352 355.443 380.454 355.444H401.389C401.527 355.444 401.663 355.487 401.776 355.568C401.889 355.648 401.975 355.761 402.021 355.892L407.106 371.016C407.137 371.118 407.145 371.225 407.129 371.33C407.113 371.435 407.074 371.535 407.014 371.622C406.951 371.706 406.87 371.773 406.776 371.819C406.682 371.865 406.578 371.888 406.474 371.886ZM385.316 370.568H405.565L400.914 356.761H381.324L385.316 370.568Z" fill="white"/>
<path d="M212.953 356.103L214.297 341.953H194.035L192.019 356.103H212.953Z" fill="#333333"/>
<path d="M212.953 356.762H192.019C191.924 356.761 191.831 356.74 191.745 356.702C191.659 356.663 191.582 356.607 191.518 356.538C191.457 356.466 191.412 356.381 191.387 356.29C191.362 356.199 191.357 356.104 191.373 356.011L193.389 341.861C193.408 341.704 193.485 341.559 193.604 341.455C193.723 341.35 193.876 341.293 194.034 341.295H214.297C214.388 341.295 214.479 341.314 214.562 341.35C214.646 341.386 214.722 341.439 214.784 341.505C214.847 341.571 214.895 341.65 214.925 341.737C214.954 341.823 214.965 341.915 214.956 342.006L213.638 356.169C213.621 356.336 213.541 356.491 213.414 356.602C213.286 356.712 213.121 356.769 212.953 356.762ZM192.783 355.444H212.4L213.612 342.612H194.614L192.783 355.444Z" fill="white"/>
<path d="M171.084 356.103L173.785 341.953H153.523L150.15 356.103H171.084Z" fill="#333333"/>
<path d="M171.085 356.762H150.15C150.049 356.762 149.949 356.74 149.858 356.697C149.767 356.653 149.687 356.59 149.623 356.511C149.563 356.432 149.52 356.339 149.5 356.241C149.479 356.143 149.481 356.042 149.505 355.945L152.877 341.795C152.913 341.651 152.996 341.524 153.113 341.433C153.23 341.342 153.375 341.293 153.523 341.295H173.785C173.881 341.294 173.976 341.314 174.063 341.355C174.15 341.397 174.226 341.457 174.286 341.532C174.348 341.606 174.394 341.692 174.419 341.786C174.444 341.879 174.448 341.977 174.431 342.072L171.73 356.221C171.705 356.374 171.626 356.512 171.507 356.611C171.389 356.71 171.239 356.764 171.085 356.762ZM150.98 355.444H170.544L172.982 342.612H154.037L150.98 355.444Z" fill="white"/>
<path d="M359.52 356.103L356.121 341.953H335.858L338.586 356.103H359.52Z" fill="#333333"/>
<path d="M359.52 356.762H338.586C338.431 356.764 338.281 356.71 338.163 356.611C338.044 356.512 337.965 356.374 337.94 356.221L335.213 342.072C335.193 341.977 335.195 341.879 335.218 341.784C335.242 341.69 335.286 341.602 335.348 341.528C335.41 341.453 335.488 341.393 335.577 341.353C335.665 341.312 335.761 341.293 335.858 341.295H356.121C356.268 341.291 356.412 341.34 356.527 341.431C356.643 341.522 356.723 341.651 356.753 341.795L360.165 355.945C360.187 356.043 360.187 356.145 360.164 356.243C360.141 356.341 360.097 356.433 360.034 356.511C359.973 356.59 359.895 356.653 359.806 356.696C359.717 356.74 359.619 356.762 359.52 356.762ZM339.126 355.444H358.637L355.554 342.612H336.649L339.126 355.444Z" fill="white"/>
<path d="M380.454 356.103L376.37 341.953H356.121L359.52 356.103H380.454Z" fill="#333333"/>
<path d="M380.454 356.761H359.52C359.372 356.761 359.229 356.711 359.112 356.621C358.996 356.53 358.912 356.404 358.874 356.261L355.475 342.098C355.455 342.003 355.454 341.904 355.475 341.809C355.495 341.713 355.536 341.623 355.594 341.545C355.657 341.466 355.738 341.403 355.829 341.36C355.92 341.316 356.02 341.294 356.121 341.295H376.37C376.515 341.292 376.657 341.337 376.773 341.422C376.89 341.508 376.975 341.63 377.016 341.769L381.034 355.918C381.063 356.016 381.068 356.12 381.05 356.221C381.031 356.321 380.99 356.416 380.929 356.498C380.872 356.572 380.801 356.634 380.719 356.68C380.638 356.725 380.547 356.753 380.454 356.761ZM360.034 355.444H379.585L375.883 342.612H356.951L360.034 355.444Z" fill="white"/>
<path d="M150.15 356.103L153.523 341.953H133.261L129.203 356.103H150.15Z" fill="#333333"/>
<path d="M150.15 356.761H129.203C129.101 356.76 129 356.736 128.909 356.691C128.817 356.645 128.738 356.579 128.676 356.498C128.617 356.415 128.577 356.32 128.559 356.22C128.541 356.12 128.545 356.017 128.57 355.918L132.628 341.769C132.666 341.631 132.749 341.509 132.863 341.424C132.978 341.338 133.117 341.292 133.26 341.295H153.523C153.622 341.296 153.719 341.319 153.808 341.362C153.897 341.406 153.975 341.468 154.037 341.545C154.097 341.622 154.139 341.712 154.16 341.808C154.18 341.904 154.179 342.003 154.155 342.098L150.783 356.248C150.752 356.393 150.673 356.523 150.558 356.617C150.443 356.71 150.299 356.762 150.15 356.761ZM130.085 355.444H149.623L152.68 342.612H133.761L130.085 355.444Z" fill="white"/>
<path d="M296.704 356.103L295.334 341.953H275.071L275.77 356.103H296.704Z" fill="#333333"/>
<path d="M296.717 356.762H275.769C275.599 356.762 275.435 356.696 275.313 356.578C275.19 356.46 275.117 356.299 275.111 356.129L274.425 341.98C274.42 341.891 274.432 341.802 274.461 341.719C274.491 341.635 274.537 341.558 274.597 341.492C274.661 341.428 274.737 341.378 274.82 341.344C274.904 341.31 274.994 341.293 275.084 341.295H295.399C295.564 341.291 295.724 341.35 295.847 341.46C295.969 341.57 296.045 341.723 296.058 341.887L297.376 356.037C297.383 356.128 297.371 356.22 297.341 356.307C297.312 356.394 297.265 356.474 297.203 356.542C297.141 356.61 297.066 356.664 296.983 356.702C296.899 356.74 296.809 356.76 296.717 356.762ZM276.415 355.444H295.992L294.754 342.612H275.769L276.415 355.444Z" fill="white"/>
<path d="M401.389 356.103L396.633 341.953H376.37L380.454 356.103H401.389Z" fill="#333333"/>
<path d="M401.389 356.762H380.454C380.312 356.762 380.173 356.715 380.059 356.63C379.945 356.544 379.862 356.424 379.822 356.287L375.764 342.125C375.74 342.027 375.739 341.926 375.759 341.828C375.78 341.731 375.822 341.639 375.883 341.559C375.943 341.479 376.021 341.414 376.11 341.369C376.199 341.323 376.297 341.298 376.396 341.295H396.659C396.798 341.293 396.934 341.335 397.048 341.416C397.161 341.496 397.247 341.611 397.291 341.743L402.047 355.892C402.078 355.991 402.085 356.096 402.07 356.199C402.054 356.302 402.014 356.4 401.955 356.485C401.89 356.574 401.805 356.646 401.706 356.694C401.607 356.742 401.498 356.765 401.389 356.762ZM380.955 355.444H400.48L396.158 342.612H377.253L380.955 355.444Z" fill="white"/>
<path d="M338.586 356.103L335.859 341.953H315.596L317.638 356.103H338.586Z" fill="#333333"/>
<path d="M338.586 356.762H317.638C317.481 356.76 317.329 356.702 317.21 356.598C317.092 356.494 317.015 356.351 316.993 356.195L314.951 342.046C314.935 341.952 314.94 341.857 314.966 341.766C314.991 341.675 315.036 341.591 315.098 341.519C315.159 341.448 315.236 341.39 315.322 341.352C315.408 341.313 315.502 341.293 315.596 341.295H335.859C336.01 341.295 336.158 341.347 336.275 341.443C336.393 341.539 336.474 341.673 336.504 341.822L339.231 355.971C339.248 356.067 339.245 356.165 339.22 356.258C339.196 356.352 339.152 356.44 339.09 356.515C339.029 356.59 338.952 356.651 338.865 356.693C338.778 356.736 338.683 356.759 338.586 356.762ZM318.218 355.444H337.782L335.318 342.612H316.36L318.218 355.444Z" fill="white"/>
<path d="M317.638 356.103L315.596 341.953H295.333L296.704 356.103H317.638Z" fill="#333333"/>
<path d="M317.638 356.761H296.717C296.554 356.759 296.397 356.698 296.276 356.589C296.155 356.48 296.077 356.331 296.058 356.169L294.741 342.006C294.729 341.916 294.737 341.825 294.764 341.738C294.791 341.652 294.837 341.572 294.899 341.505C294.962 341.44 295.038 341.387 295.121 341.351C295.205 341.315 295.295 341.295 295.386 341.295H315.649C315.806 341.295 315.958 341.351 316.078 341.452C316.199 341.553 316.28 341.693 316.307 341.848L318.35 356.011C318.364 356.105 318.357 356.201 318.329 356.292C318.302 356.383 318.255 356.467 318.191 356.538C318.122 356.614 318.036 356.674 317.94 356.713C317.845 356.752 317.741 356.768 317.638 356.761ZM297.31 355.444H316.887L315.03 342.612H296.058L297.31 355.444Z" fill="white"/>
<path d="M254.835 356.103L254.822 341.953H234.56L233.888 356.103H254.835Z" fill="#333333"/>
<path d="M254.835 356.761H233.901C233.81 356.761 233.72 356.741 233.636 356.705C233.552 356.669 233.477 356.617 233.413 356.551C233.353 356.485 233.307 356.408 233.278 356.324C233.249 356.241 233.236 356.152 233.242 356.063L233.901 341.914C233.911 341.746 233.985 341.588 234.107 341.473C234.23 341.358 234.392 341.294 234.56 341.295H254.822C254.997 341.295 255.164 341.364 255.288 341.488C255.411 341.611 255.481 341.779 255.481 341.953V356.103C255.477 356.276 255.406 356.441 255.283 356.564C255.226 356.626 255.157 356.675 255.079 356.709C255.002 356.743 254.919 356.761 254.835 356.761ZM234.586 355.444H254.176V342.612H235.192L234.586 355.444Z" fill="white"/>
<path d="M108.268 356.103H87.3339L81.5503 371.227H103.209L108.268 356.103Z" fill="#333333"/>
<path d="M103.209 371.886H81.5503C81.4449 371.885 81.3411 371.86 81.2472 371.812C81.1534 371.764 81.0722 371.694 81.0102 371.609C80.9525 371.518 80.9156 371.415 80.9019 371.308C80.8883 371.201 80.8982 371.093 80.9311 370.99L86.7148 355.866C86.7645 355.742 86.8499 355.636 86.9602 355.56C87.0704 355.485 87.2006 355.445 87.334 355.444H108.321C108.426 355.445 108.53 355.471 108.623 355.519C108.717 355.567 108.798 355.636 108.861 355.721C108.921 355.806 108.961 355.903 108.977 356.006C108.993 356.109 108.985 356.214 108.953 356.313L103.842 371.491C103.789 371.613 103.7 371.716 103.587 371.786C103.474 371.857 103.342 371.892 103.209 371.886ZM82.5121 370.568H102.735L107.359 356.761H87.7819L82.5121 370.568Z" fill="white"/>
<path d="M112.998 341.953H92.7358L87.3342 356.103H108.269L112.998 341.953Z" fill="#333333"/>
<path d="M108.321 356.762H87.334C87.227 356.762 87.1216 356.735 87.0273 356.685C86.933 356.634 86.8528 356.561 86.7938 356.472C86.7305 356.386 86.69 356.285 86.6762 356.179C86.6624 356.073 86.6757 355.965 86.7148 355.866L92.1295 341.716C92.1736 341.591 92.2559 341.483 92.3646 341.408C92.4733 341.332 92.6031 341.293 92.7355 341.295H112.998C113.103 341.291 113.207 341.313 113.301 341.359C113.396 341.404 113.477 341.472 113.54 341.556C113.602 341.641 113.643 341.739 113.658 341.842C113.674 341.946 113.665 342.052 113.63 342.151L108.901 356.314C108.858 356.436 108.78 356.544 108.677 356.623C108.574 356.703 108.451 356.751 108.321 356.762ZM88.3484 355.444H107.847L112.142 342.612H93.1966L88.3484 355.444Z" fill="white"/>
<path d="M129.203 356.103L133.26 341.953H112.998L108.268 356.103H129.203Z" fill="#333333"/>
<path d="M129.202 356.762H108.321C108.217 356.761 108.114 356.735 108.022 356.687C107.929 356.639 107.85 356.57 107.789 356.485C107.729 356.4 107.689 356.302 107.674 356.199C107.659 356.096 107.668 355.991 107.702 355.892L112.431 341.743C112.473 341.612 112.556 341.498 112.667 341.417C112.779 341.337 112.913 341.294 113.05 341.295H133.313C133.415 341.294 133.517 341.317 133.608 341.363C133.7 341.409 133.779 341.476 133.84 341.558C133.899 341.638 133.94 341.731 133.958 341.829C133.976 341.927 133.972 342.028 133.945 342.125L129.888 356.287C129.846 356.433 129.754 356.56 129.63 356.646C129.505 356.733 129.354 356.774 129.202 356.762ZM109.19 355.444H128.715L132.391 342.612H113.472L109.19 355.444Z" fill="white"/>
<path d="M75.3582 387.445L68.7051 404.875H91.9713L97.7944 387.445H75.3582Z" fill="#333333"/>
<path d="M91.9717 405.534H68.7055C68.5973 405.531 68.4912 405.503 68.3953 405.453C68.2994 405.402 68.2162 405.331 68.1521 405.244C68.0931 405.156 68.0563 405.054 68.0449 404.949C68.0334 404.843 68.0476 404.737 68.0863 404.638L74.7394 387.208C74.7891 387.084 74.8745 386.978 74.9848 386.903C75.0951 386.828 75.2252 386.787 75.3586 386.786H97.7553C97.8605 386.788 97.964 386.814 98.0577 386.862C98.1514 386.909 98.2327 386.978 98.2955 387.063C98.3565 387.148 98.3957 387.246 98.4095 387.349C98.4233 387.453 98.4113 387.558 98.3745 387.656L92.5645 405.073C92.5245 405.201 92.4462 405.313 92.3403 405.396C92.2343 405.478 92.1057 405.526 91.9717 405.534ZM69.654 404.216H91.4974L96.8858 388.104H75.8065L69.654 404.216Z" fill="white"/>
<path d="M103.209 371.227H81.5502L75.3582 387.445H97.7944L103.209 371.227Z" fill="#333333"/>
<path d="M97.7815 388.104H75.3848C75.2775 388.104 75.1715 388.079 75.0763 388.029C74.981 387.98 74.8993 387.908 74.8383 387.82C74.7772 387.731 74.7387 387.629 74.726 387.523C74.7134 387.416 74.727 387.308 74.7656 387.208L80.9576 370.99C81.0073 370.866 81.0928 370.76 81.203 370.685C81.3133 370.61 81.4434 370.569 81.5768 370.568H103.236C103.341 370.57 103.444 370.596 103.538 370.644C103.632 370.692 103.713 370.761 103.776 370.845C103.835 370.93 103.874 371.028 103.89 371.131C103.906 371.234 103.899 371.339 103.868 371.438L98.4403 387.656C98.3944 387.792 98.3052 387.91 98.1863 387.991C98.0673 388.071 97.9252 388.111 97.7815 388.104ZM76.2939 386.786H97.3731L102.353 371.886H81.9721L76.2939 386.786Z" fill="white"/>
<path d="M97.7946 387.445L91.9714 404.875H115.238L120.231 387.445H97.7946Z" fill="#333333"/>
<path d="M115.251 405.534H91.9715C91.8673 405.533 91.7648 405.507 91.6723 405.459C91.5799 405.411 91.5002 405.342 91.4398 405.257C91.3793 405.172 91.3399 405.074 91.3247 404.971C91.3095 404.868 91.3189 404.763 91.3523 404.664L97.1754 387.3C97.2192 387.17 97.3024 387.057 97.4134 386.977C97.5244 386.897 97.6576 386.853 97.7946 386.852H120.191C120.293 386.853 120.394 386.877 120.485 386.923C120.577 386.969 120.656 387.034 120.718 387.116C120.78 387.197 120.821 387.292 120.839 387.393C120.858 387.494 120.852 387.597 120.824 387.695L115.844 405.112C115.796 405.232 115.714 405.335 115.609 405.41C115.504 405.485 115.38 405.528 115.251 405.534ZM92.8542 404.216H114.711L119.322 388.104H98.2426L92.8542 404.216Z" fill="white"/>
<path d="M192.019 356.103L194.035 341.953H173.786L171.085 356.103H192.019Z" fill="#333333"/>
<path d="M192.019 356.762H171.084C170.987 356.76 170.891 356.738 170.802 356.697C170.714 356.656 170.635 356.598 170.571 356.524C170.511 356.447 170.468 356.357 170.446 356.262C170.423 356.166 170.421 356.067 170.439 355.971L173.074 341.822C173.107 341.672 173.19 341.538 173.31 341.442C173.43 341.346 173.579 341.294 173.732 341.295H193.982C194.077 341.294 194.17 341.313 194.257 341.352C194.344 341.391 194.421 341.448 194.483 341.519C194.546 341.59 194.592 341.674 194.619 341.765C194.647 341.856 194.654 341.952 194.64 342.046L192.638 356.195C192.614 356.346 192.54 356.484 192.428 356.587C192.315 356.69 192.171 356.751 192.019 356.762ZM171.875 355.444H191.452L193.283 342.612H174.325L171.875 355.444Z" fill="white"/>
<path d="M189.858 371.227L192.019 356.103H171.084L168.199 371.227H189.858Z" fill="#333333"/>
<path d="M189.858 371.886H168.199C168.102 371.888 168.006 371.868 167.917 371.828C167.829 371.787 167.751 371.728 167.689 371.653C167.627 371.578 167.583 371.49 167.559 371.396C167.536 371.302 167.534 371.204 167.554 371.109L170.439 355.971C170.467 355.821 170.547 355.686 170.665 355.589C170.783 355.493 170.932 355.441 171.084 355.444H192.019C192.113 355.443 192.207 355.463 192.294 355.501C192.38 355.54 192.457 355.597 192.519 355.668C192.58 355.741 192.625 355.825 192.653 355.915C192.68 356.006 192.688 356.101 192.677 356.195L190.517 371.319C190.492 371.476 190.412 371.62 190.291 371.723C190.171 371.827 190.017 371.885 189.858 371.886ZM168.99 370.568H189.292L191.321 356.762H171.69L168.99 370.568Z" fill="white"/>
<path d="M168.199 371.227L171.084 356.103H150.15L146.54 371.227H168.199Z" fill="#333333"/>
<path d="M168.199 371.886H146.527C146.426 371.886 146.326 371.864 146.235 371.821C146.144 371.777 146.063 371.714 146 371.635C145.942 371.557 145.901 371.467 145.881 371.372C145.86 371.276 145.861 371.177 145.881 371.082L149.491 355.945C149.527 355.801 149.61 355.673 149.727 355.582C149.844 355.491 149.989 355.443 150.137 355.444H171.071C171.167 355.441 171.263 355.461 171.35 355.502C171.437 355.543 171.513 355.605 171.572 355.681C171.636 355.754 171.682 355.841 171.707 355.934C171.732 356.028 171.736 356.126 171.717 356.221L168.831 371.359C168.804 371.506 168.726 371.64 168.61 371.736C168.495 371.832 168.349 371.885 168.199 371.886ZM147.37 370.568H167.606L170.241 356.761H150.664L147.37 370.568Z" fill="white"/>
<path d="M211.517 371.227L212.953 356.103H192.019L189.858 371.227H211.517Z" fill="#333333"/>
<path d="M211.517 371.886H189.858C189.764 371.887 189.67 371.868 189.584 371.829C189.498 371.79 189.422 371.733 189.36 371.661C189.299 371.59 189.253 371.505 189.228 371.414C189.203 371.323 189.197 371.228 189.213 371.135L191.321 356.01C191.34 355.853 191.417 355.709 191.536 355.604C191.655 355.5 191.808 355.443 191.966 355.444H212.901C212.992 355.444 213.082 355.463 213.166 355.499C213.25 355.535 213.325 355.588 213.388 355.655C213.45 355.724 213.497 355.806 213.527 355.894C213.556 355.982 213.567 356.076 213.559 356.169L212.123 371.293C212.111 371.448 212.043 371.594 211.931 371.703C211.82 371.812 211.673 371.877 211.517 371.886ZM190.622 370.568H210.924L212.242 356.761H192.638L190.622 370.568Z" fill="white"/>
<path d="M129.203 356.103H108.268L103.209 371.227H124.881L129.203 356.103Z" fill="#333333"/>
<path d="M124.881 371.886H103.209C103.107 371.888 103.005 371.865 102.913 371.819C102.821 371.773 102.742 371.706 102.682 371.622C102.62 371.538 102.579 371.441 102.563 371.337C102.547 371.234 102.556 371.128 102.59 371.03L107.649 355.892C107.695 355.763 107.778 355.651 107.889 355.571C107.999 355.491 108.132 355.447 108.268 355.444H129.203C129.305 355.442 129.407 355.465 129.499 355.511C129.59 355.557 129.67 355.624 129.73 355.708C129.795 355.787 129.839 355.882 129.857 355.984C129.876 356.085 129.868 356.19 129.835 356.287L125.514 371.412C125.474 371.548 125.391 371.669 125.277 371.754C125.163 371.84 125.024 371.886 124.881 371.886ZM104.131 370.568H124.381L128.333 356.762H108.743L104.131 370.568Z" fill="white"/>
<path d="M389.492 387.445H411.928L406.474 371.227H384.815L389.492 387.445Z" fill="#333333"/>
<path d="M411.928 388.104H389.532C389.389 388.104 389.25 388.057 389.136 387.972C389.022 387.886 388.939 387.766 388.899 387.629L384.222 371.412C384.196 371.313 384.193 371.21 384.211 371.11C384.229 371.01 384.269 370.915 384.328 370.832C384.39 370.752 384.47 370.686 384.561 370.641C384.652 370.595 384.753 370.57 384.855 370.568H406.513C406.652 370.569 406.787 370.612 406.901 370.692C407.014 370.772 407.1 370.886 407.146 371.016L412.547 387.3C412.582 387.399 412.592 387.505 412.576 387.608C412.56 387.712 412.518 387.809 412.455 387.893C412.391 387.968 412.31 388.027 412.218 388.064C412.126 388.101 412.027 388.114 411.928 388.104ZM389.979 386.786H411.059L406.066 371.886H385.685L389.979 386.786Z" fill="white"/>
<path d="M146.54 371.227L150.15 356.103H129.203L124.881 371.227H146.54Z" fill="#333333"/>
<path d="M146.527 371.886H124.881C124.779 371.888 124.677 371.865 124.585 371.819C124.494 371.773 124.414 371.706 124.354 371.622C124.29 371.545 124.247 371.452 124.228 371.353C124.21 371.254 124.217 371.151 124.249 371.056L128.57 355.918C128.61 355.781 128.693 355.661 128.807 355.576C128.921 355.49 129.06 355.444 129.203 355.444H150.15C150.249 355.445 150.346 355.468 150.435 355.512C150.524 355.555 150.602 355.617 150.664 355.694C150.724 355.771 150.767 355.861 150.787 355.957C150.808 356.053 150.806 356.152 150.783 356.248L147.173 371.385C147.139 371.53 147.057 371.659 146.939 371.751C146.822 371.842 146.676 371.89 146.527 371.886ZM125.738 370.568H146L149.294 356.761H129.703L125.738 370.568Z" fill="white"/>
<path d="M103.209 371.227L97.7944 387.445H120.231L124.881 371.227H103.209Z" fill="#333333"/>
<path d="M120.178 388.104H97.7816C97.6758 388.105 97.5712 388.081 97.477 388.033C97.3828 387.985 97.3019 387.914 97.2414 387.827C97.1803 387.742 97.1412 387.644 97.1274 387.541C97.1136 387.437 97.1256 387.332 97.1624 387.234L102.577 371.029C102.619 370.897 102.701 370.781 102.812 370.699C102.923 370.616 103.058 370.57 103.196 370.568H124.868C124.97 370.571 125.069 370.596 125.159 370.643C125.249 370.689 125.328 370.756 125.389 370.837C125.45 370.918 125.491 371.012 125.511 371.111C125.53 371.211 125.527 371.314 125.501 371.412L120.85 387.629C120.809 387.773 120.719 387.898 120.597 387.984C120.475 388.07 120.327 388.113 120.178 388.104ZM98.6511 386.786H119.73L123.999 371.886H103.684L98.6511 386.786Z" fill="white"/>
<path d="M341.497 371.227L338.586 356.103H317.638L319.825 371.227H341.497Z" fill="#333333"/>
<path d="M341.51 371.886H319.825C319.669 371.885 319.519 371.828 319.401 371.727C319.283 371.626 319.204 371.486 319.179 371.332L316.992 356.195C316.978 356.101 316.985 356.005 317.013 355.914C317.04 355.823 317.087 355.739 317.151 355.668C317.21 355.597 317.285 355.54 317.369 355.502C317.454 355.463 317.545 355.443 317.638 355.444H338.586C338.737 355.444 338.885 355.496 339.002 355.592C339.12 355.688 339.201 355.822 339.231 355.971L342.143 371.108C342.16 371.203 342.156 371.301 342.132 371.394C342.108 371.487 342.063 371.574 342.001 371.648C341.94 371.722 341.863 371.782 341.776 371.823C341.689 371.864 341.593 371.885 341.497 371.886H341.51ZM320.431 370.568H340.72L338.085 356.761H318.455L320.431 370.568Z" fill="white"/>
<path d="M319.825 371.227L317.638 356.103H296.704L298.166 371.227H319.825Z" fill="#333333"/>
<path d="M319.825 371.886H298.166C298.002 371.887 297.844 371.826 297.722 371.717C297.6 371.607 297.524 371.456 297.507 371.293L296.045 356.169C296.035 355.982 296.096 355.798 296.216 355.655C296.279 355.589 296.355 355.536 296.439 355.5C296.523 355.464 296.613 355.445 296.704 355.444H317.638C317.797 355.445 317.951 355.503 318.071 355.606C318.192 355.71 318.272 355.853 318.297 356.01L320.431 371.135C320.444 371.229 320.437 371.324 320.41 371.415C320.383 371.506 320.337 371.59 320.274 371.661C320.212 371.733 320.134 371.79 320.048 371.828C319.961 371.867 319.867 371.887 319.772 371.886H319.825ZM298.746 370.568H319.114L317.111 356.761H297.428L298.746 370.568Z" fill="white"/>
<path d="M384.815 371.227L380.454 356.103H359.52L363.156 371.227H384.815Z" fill="#333333"/>
<path d="M384.815 371.886H363.156C363.008 371.887 362.863 371.838 362.746 371.748C362.629 371.657 362.546 371.529 362.51 371.385L358.874 356.261C358.852 356.163 358.853 356.061 358.876 355.963C358.898 355.864 358.943 355.773 359.006 355.694C359.067 355.616 359.145 355.553 359.234 355.509C359.323 355.466 359.421 355.443 359.52 355.444H380.454C380.597 355.444 380.735 355.49 380.849 355.576C380.963 355.661 381.047 355.781 381.087 355.918L385.447 371.056C385.474 371.152 385.478 371.253 385.46 371.351C385.442 371.449 385.401 371.542 385.342 371.622C385.281 371.705 385.202 371.772 385.11 371.818C385.019 371.863 384.917 371.887 384.815 371.886ZM363.67 370.568H383.945L379.993 356.761H360.35L363.67 370.568Z" fill="white"/>
<path d="M254.848 371.227L254.835 356.103H233.888L233.189 371.227H254.848Z" fill="#333333"/>
<path d="M254.848 371.886H233.189C233.099 371.887 233.009 371.871 232.926 371.837C232.842 371.803 232.766 371.752 232.702 371.688C232.642 371.623 232.596 371.546 232.567 371.462C232.537 371.378 232.525 371.289 232.531 371.201L233.242 356.063C233.252 355.895 233.326 355.738 233.448 355.623C233.571 355.508 233.733 355.444 233.901 355.444H254.835C255.01 355.444 255.177 355.513 255.301 355.637C255.425 355.76 255.494 355.928 255.494 356.103V371.227C255.495 371.315 255.478 371.403 255.444 371.485C255.41 371.566 255.36 371.64 255.296 371.701C255.176 371.817 255.016 371.883 254.848 371.886ZM233.875 370.568H254.19V356.761H234.52L233.875 370.568Z" fill="white"/>
<path d="M298.166 371.227L296.704 356.103H275.77L276.507 371.227H298.166Z" fill="#333333"/>
<path d="M298.166 371.886H276.507C276.339 371.886 276.177 371.822 276.055 371.707C275.932 371.592 275.858 371.434 275.848 371.267L275.111 356.129C275.105 356.039 275.118 355.95 275.15 355.865C275.182 355.781 275.231 355.705 275.295 355.642C275.356 355.577 275.43 355.527 275.511 355.492C275.593 355.458 275.681 355.442 275.769 355.444H296.717C296.881 355.443 297.039 355.503 297.161 355.613C297.283 355.723 297.359 355.874 297.376 356.037L298.838 371.174C298.847 371.265 298.837 371.357 298.807 371.444C298.778 371.53 298.73 371.609 298.667 371.675C298.603 371.743 298.525 371.797 298.439 371.833C298.352 371.87 298.26 371.887 298.166 371.886ZM277.087 370.568H297.389L296.071 356.761H276.454L277.087 370.568Z" fill="white"/>
<path d="M276.507 371.227L275.769 356.103H254.835L254.848 371.227H276.507Z" fill="#333333"/>
<path d="M276.507 371.886H254.848C254.673 371.886 254.506 371.816 254.382 371.693C254.259 371.569 254.189 371.402 254.189 371.227V356.103C254.19 355.927 254.256 355.758 254.374 355.628C254.502 355.508 254.672 355.442 254.848 355.444H275.769C275.937 355.444 276.099 355.508 276.222 355.623C276.344 355.738 276.418 355.895 276.428 356.063L277.166 371.201C277.172 371.291 277.159 371.381 277.127 371.465C277.096 371.549 277.046 371.625 276.981 371.688C276.921 371.752 276.847 371.803 276.765 371.837C276.684 371.871 276.596 371.888 276.507 371.886ZM255.507 370.568H275.822L275.137 356.761H255.494L255.507 370.568Z" fill="white"/>
<path d="M233.189 371.227L233.888 356.103H212.953L211.517 371.227H233.189Z" fill="#333333"/>
<path d="M233.189 371.886H211.517C211.426 371.885 211.336 371.866 211.252 371.83C211.168 371.793 211.093 371.741 211.03 371.675C210.968 371.608 210.922 371.529 210.895 371.442C210.868 371.356 210.86 371.264 210.872 371.174L212.308 356.037C212.321 355.875 212.395 355.724 212.514 355.614C212.634 355.504 212.791 355.443 212.953 355.444H233.901C233.989 355.442 234.078 355.458 234.16 355.493C234.242 355.527 234.315 355.578 234.376 355.643C234.437 355.707 234.484 355.784 234.513 355.868C234.542 355.952 234.554 356.041 234.546 356.129L233.848 371.267C233.835 371.433 233.76 371.589 233.638 371.704C233.517 371.818 233.356 371.883 233.189 371.886ZM212.242 370.568H232.557L233.202 356.761H213.559L212.242 370.568Z" fill="white"/>
<path d="M298.166 371.227L299.734 387.445H322.17L319.825 371.227H298.166Z" fill="#333333"/>
<path d="M322.17 388.104H299.773C299.61 388.104 299.451 388.044 299.329 387.935C299.208 387.825 299.131 387.674 299.115 387.511L297.547 371.293C297.541 371.202 297.553 371.111 297.582 371.025C297.612 370.94 297.658 370.86 297.718 370.792C297.779 370.723 297.854 370.667 297.938 370.629C298.022 370.59 298.113 370.569 298.206 370.568H319.865C320.024 370.57 320.177 370.627 320.298 370.731C320.418 370.835 320.498 370.978 320.523 371.135L322.829 387.3C322.843 387.394 322.836 387.49 322.809 387.581C322.781 387.672 322.734 387.756 322.671 387.827C322.614 387.908 322.54 387.976 322.453 388.024C322.366 388.072 322.269 388.099 322.17 388.104ZM300.34 386.786H321.419L319.259 371.886H298.891L300.34 386.786Z" fill="white"/>
<path d="M319.825 371.227L322.17 387.445H344.62L341.497 371.227H319.825Z" fill="#333333"/>
<path d="M344.606 388.104H322.21C322.051 388.105 321.898 388.048 321.779 387.943C321.66 387.839 321.584 387.694 321.564 387.537L319.219 371.333C319.204 371.238 319.21 371.142 319.238 371.051C319.265 370.96 319.313 370.876 319.377 370.806C319.436 370.733 319.511 370.674 319.595 370.633C319.679 370.592 319.771 370.57 319.865 370.568H341.51C341.664 370.569 341.813 370.623 341.931 370.722C342.049 370.821 342.128 370.957 342.156 371.109L345.265 387.3C345.281 387.395 345.277 387.493 345.252 387.586C345.227 387.679 345.182 387.766 345.12 387.84C345.06 387.92 344.983 387.986 344.894 388.031C344.805 388.077 344.707 388.102 344.606 388.104ZM322.75 386.786H343.829L340.957 371.886H320.589L322.75 386.786Z" fill="white"/>
<path d="M124.882 371.227L120.231 387.445H142.667L146.541 371.227H124.882Z" fill="#333333"/>
<path d="M142.667 388.104H120.178C120.076 388.105 119.975 388.081 119.883 388.036C119.791 387.99 119.712 387.923 119.651 387.84C119.592 387.758 119.551 387.663 119.533 387.562C119.515 387.462 119.519 387.359 119.546 387.261L124.196 371.056C124.232 370.915 124.314 370.791 124.428 370.703C124.543 370.614 124.684 370.567 124.829 370.568H146.527C146.627 370.569 146.724 370.593 146.813 370.637C146.902 370.681 146.98 370.745 147.041 370.824C147.102 370.902 147.144 370.994 147.165 371.091C147.185 371.188 147.183 371.289 147.16 371.385L143.3 387.603C143.264 387.745 143.183 387.871 143.069 387.961C142.954 388.052 142.813 388.102 142.667 388.104ZM121.1 386.786H142.18L145.724 371.886H125.369L121.1 386.786Z" fill="white"/>
<path d="M341.497 371.227L344.619 387.445H367.056L363.156 371.227H341.497Z" fill="#333333"/>
<path d="M367.056 388.104H344.659C344.508 388.101 344.362 388.048 344.245 387.952C344.128 387.857 344.046 387.724 344.014 387.577L340.852 371.359C340.832 371.265 340.834 371.167 340.857 371.074C340.879 370.98 340.923 370.893 340.984 370.819C341.046 370.742 341.124 370.679 341.213 370.636C341.301 370.593 341.399 370.57 341.497 370.568H363.156C363.305 370.568 363.449 370.619 363.564 370.713C363.679 370.806 363.758 370.937 363.789 371.082L367.741 387.3C367.765 387.395 367.766 387.495 367.746 387.59C367.725 387.686 367.683 387.776 367.622 387.853C367.555 387.937 367.468 388.004 367.37 388.048C367.271 388.091 367.164 388.11 367.056 388.104ZM345.16 386.786H366.239L362.59 371.886H342.288L345.16 386.786Z" fill="white"/>
<path d="M254.848 371.227L254.861 387.445H277.298L276.507 371.227H254.848Z" fill="#333333"/>
<path d="M277.298 388.104H254.901C254.726 388.104 254.559 388.034 254.435 387.911C254.312 387.787 254.242 387.62 254.242 387.445V371.227C254.241 371.055 254.307 370.89 254.427 370.766C254.555 370.644 254.724 370.574 254.901 370.568H276.56C276.73 370.568 276.894 370.634 277.017 370.752C277.139 370.87 277.212 371.031 277.219 371.201L278.009 387.419C278.015 387.508 278.001 387.598 277.969 387.682C277.938 387.766 277.888 387.843 277.825 387.906C277.758 387.977 277.676 388.032 277.584 388.067C277.493 388.101 277.395 388.114 277.298 388.104ZM255.52 386.786H276.599L275.862 371.886H255.507L255.52 386.786Z" fill="white"/>
<path d="M363.156 371.227L367.056 387.445H389.492L384.815 371.227H363.156Z" fill="#333333"/>
<path d="M389.492 388.104H367.095C366.947 388.105 366.803 388.056 366.685 387.966C366.568 387.875 366.485 387.747 366.45 387.603L362.497 371.385C362.475 371.287 362.476 371.185 362.499 371.087C362.521 370.989 362.566 370.897 362.629 370.819C362.689 370.74 362.767 370.676 362.856 370.632C362.945 370.589 363.044 370.567 363.143 370.568H384.802C384.946 370.569 385.086 370.617 385.2 370.705C385.314 370.794 385.397 370.917 385.434 371.056L390.124 387.3C390.15 387.399 390.154 387.501 390.136 387.602C390.118 387.702 390.078 387.797 390.019 387.88C389.953 387.954 389.872 388.012 389.78 388.051C389.689 388.089 389.591 388.108 389.492 388.104ZM367.569 386.786H388.649L384.354 371.886H363.986L367.569 386.786Z" fill="white"/>
<path d="M276.507 371.227L277.297 387.445H299.734L298.166 371.227H276.507Z" fill="#333333"/>
<path d="M299.734 388.104H277.337C277.169 388.104 277.007 388.04 276.885 387.925C276.762 387.81 276.688 387.652 276.678 387.485L275.888 371.267C275.881 371.177 275.894 371.087 275.926 371.003C275.958 370.918 276.008 370.842 276.072 370.779C276.132 370.712 276.205 370.659 276.287 370.623C276.369 370.587 276.457 370.568 276.547 370.568H298.166C298.332 370.568 298.492 370.63 298.614 370.742C298.736 370.855 298.811 371.009 298.825 371.174L300.393 387.379C300.4 387.472 300.389 387.565 300.36 387.654C300.33 387.742 300.283 387.823 300.221 387.893C300.159 387.959 300.083 388.012 299.999 388.049C299.915 388.085 299.825 388.104 299.734 388.104ZM277.93 386.786H299.009L297.573 371.886H277.205L277.93 386.786Z" fill="white"/>
<path d="M168.199 371.227L165.103 387.445H187.54L189.858 371.227H168.199Z" fill="#333333"/>
<path d="M187.553 388.104H165.156C165.06 388.105 164.965 388.084 164.878 388.043C164.792 388.002 164.715 387.942 164.655 387.867C164.593 387.793 164.548 387.706 164.523 387.613C164.498 387.519 164.493 387.422 164.51 387.326L167.606 371.109C167.632 370.956 167.711 370.818 167.829 370.719C167.948 370.62 168.098 370.566 168.252 370.568H189.911C190.005 370.57 190.098 370.591 190.184 370.63C190.269 370.669 190.345 370.726 190.408 370.797C190.47 370.868 190.516 370.951 190.544 371.041C190.572 371.131 190.581 371.226 190.57 371.319L188.251 387.537C188.228 387.703 188.143 387.853 188.014 387.958C187.884 388.063 187.719 388.115 187.553 388.104ZM165.907 386.786H186.986L189.12 371.886H168.739L165.907 386.786Z" fill="white"/>
<path d="M146.541 371.227L142.667 387.445H165.103L168.199 371.227H146.541Z" fill="#333333"/>
<path d="M165.103 388.104H142.707C142.608 388.102 142.511 388.079 142.422 388.036C142.333 387.993 142.255 387.93 142.193 387.853C142.132 387.776 142.09 387.686 142.07 387.59C142.049 387.495 142.051 387.395 142.074 387.3L145.934 371.082C145.967 370.936 146.049 370.805 146.167 370.712C146.284 370.618 146.43 370.568 146.58 370.568H168.239C168.336 370.568 168.432 370.59 168.519 370.634C168.606 370.677 168.682 370.741 168.74 370.819C168.804 370.891 168.851 370.978 168.877 371.071C168.902 371.165 168.904 371.264 168.885 371.359L165.802 387.577C165.767 387.733 165.678 387.873 165.55 387.969C165.422 388.066 165.264 388.114 165.103 388.104ZM143.51 386.786H164.59L167.422 371.886H147.054L143.51 386.786Z" fill="white"/>
<path d="M233.189 371.227L232.425 387.445H254.861L254.848 371.227H233.189Z" fill="#333333"/>
<path d="M254.861 388.104H232.465C232.376 388.106 232.288 388.089 232.206 388.055C232.125 388.021 232.051 387.97 231.99 387.906C231.926 387.843 231.876 387.767 231.844 387.683C231.812 387.598 231.799 387.508 231.806 387.419L232.57 371.201C232.577 371.031 232.649 370.87 232.772 370.752C232.895 370.634 233.058 370.568 233.229 370.568H254.888C255.061 370.572 255.227 370.642 255.35 370.765C255.472 370.888 255.543 371.053 255.546 371.227V387.445C255.546 387.623 255.475 387.794 255.349 387.919C255.284 387.982 255.208 388.03 255.124 388.062C255.04 388.093 254.951 388.108 254.861 388.104ZM233.11 386.786H254.189V371.886H233.808L233.11 386.786Z" fill="white"/>
<path d="M211.517 371.227L209.989 387.445H232.425L233.189 371.227H211.517Z" fill="#333333"/>
<path d="M232.425 388.104H210.028C209.937 388.103 209.847 388.085 209.763 388.049C209.679 388.012 209.604 387.959 209.541 387.893C209.479 387.826 209.431 387.747 209.402 387.661C209.372 387.575 209.361 387.483 209.37 387.392L210.911 371.174C210.924 371.011 210.998 370.859 211.117 370.747C211.236 370.635 211.393 370.571 211.557 370.568H233.229C233.408 370.574 233.579 370.649 233.703 370.779C233.823 370.913 233.889 371.087 233.888 371.267L233.123 387.484C233.11 387.658 233.03 387.82 232.899 387.935C232.769 388.051 232.599 388.111 232.425 388.104ZM210.714 386.786H231.793L232.491 371.886H212.123L210.714 386.786Z" fill="white"/>
<path d="M189.858 371.227L187.54 387.445H209.989L211.517 371.227H189.858Z" fill="#333333"/>
<path d="M209.989 388.104H187.592C187.497 388.105 187.403 388.085 187.317 388.046C187.23 388.008 187.153 387.951 187.091 387.879C187.028 387.808 186.982 387.724 186.954 387.633C186.927 387.542 186.92 387.447 186.933 387.353L189.252 371.135C189.274 370.979 189.352 370.836 189.47 370.732C189.588 370.628 189.74 370.57 189.898 370.568H211.557C211.649 370.568 211.741 370.587 211.825 370.626C211.91 370.665 211.984 370.722 212.044 370.792C212.11 370.857 212.159 370.936 212.189 371.022C212.218 371.109 212.228 371.202 212.215 371.293L210.674 387.511C210.661 387.68 210.581 387.837 210.453 387.948C210.325 388.059 210.158 388.115 209.989 388.104ZM188.304 386.786H209.383L210.793 371.886H190.438L188.304 386.786Z" fill="white"/>
<path d="M363.156 371.227L359.52 356.103H338.585L341.497 371.227H363.156Z" fill="#333333"/>
<path d="M363.156 371.886H341.51C341.358 371.888 341.209 371.837 341.091 371.74C340.973 371.644 340.893 371.509 340.865 371.359L337.953 356.221C337.935 356.127 337.938 356.03 337.961 355.937C337.983 355.844 338.026 355.757 338.085 355.681C338.148 355.606 338.226 355.546 338.315 355.505C338.404 355.464 338.501 355.443 338.599 355.444H359.533C359.681 355.445 359.824 355.494 359.941 355.585C360.057 355.675 360.141 355.802 360.179 355.945L363.802 371.082C363.828 371.177 363.832 371.277 363.811 371.374C363.79 371.47 363.746 371.56 363.683 371.635C363.621 371.716 363.541 371.78 363.449 371.824C363.358 371.867 363.257 371.888 363.156 371.886ZM342.077 370.568H362.352L359.032 356.761H339.376L342.077 370.568Z" fill="white"/>
<path d="M112.998 341.953L117.846 327.461H98.2818L92.7354 341.953H112.998Z" fill="#333333"/>
<path d="M112.998 342.612H92.7357C92.6294 342.611 92.5251 342.584 92.4316 342.533C92.338 342.483 92.2581 342.41 92.1986 342.322C92.139 342.234 92.1017 342.133 92.0897 342.028C92.0777 341.922 92.0914 341.815 92.1296 341.716L97.6629 327.224C97.7103 327.101 97.7933 326.996 97.9013 326.92C98.0094 326.845 98.1374 326.804 98.269 326.802H117.846C117.951 326.803 118.053 326.829 118.145 326.877C118.238 326.925 118.318 326.994 118.378 327.079C118.438 327.164 118.478 327.262 118.493 327.365C118.508 327.468 118.499 327.573 118.466 327.672L113.63 342.164C113.586 342.296 113.501 342.41 113.387 342.491C113.274 342.571 113.137 342.614 112.998 342.612ZM93.6974 341.294H112.524L116.924 328.12H98.7301L93.6974 341.294Z" fill="white"/>
<path d="M92.7359 341.953H74.0413L68.0073 356.103H87.3344L92.7359 341.953Z" fill="#333333"/>
<path d="M87.334 356.761H68.0069C67.8972 356.759 67.7896 356.73 67.6933 356.677C67.597 356.625 67.5148 356.55 67.4536 356.458C67.4017 356.364 67.3745 356.257 67.3745 356.149C67.3745 356.041 67.4017 355.934 67.4536 355.839L73.4875 341.69C73.5403 341.573 73.6254 341.474 73.7328 341.404C73.8402 341.334 73.9654 341.296 74.0936 341.295H92.7882C92.8955 341.295 93.0012 341.32 93.0972 341.368C93.1932 341.416 93.2768 341.486 93.3416 341.571C93.3901 341.665 93.4154 341.769 93.4154 341.874C93.4154 341.98 93.3901 342.084 93.3416 342.177L87.94 356.34C87.8912 356.462 87.8078 356.566 87.7001 356.641C87.5924 356.716 87.4651 356.758 87.334 356.761ZM69.0082 355.444H86.886L91.787 342.612H74.4756L69.0082 355.444Z" fill="white"/>
<path d="M98.2819 327.461H80.2196L74.0408 341.953H92.7354L98.2819 327.461Z" fill="#333333"/>
<path d="M92.7355 342.612H74.0672C73.957 342.612 73.8486 342.584 73.7519 342.531C73.6553 342.478 73.5734 342.402 73.5139 342.309C73.462 342.214 73.4348 342.108 73.4348 341.999C73.4348 341.891 73.462 341.785 73.5139 341.69L79.6927 327.198C79.7412 327.078 79.8253 326.976 79.9337 326.905C80.042 326.834 80.1695 326.799 80.2988 326.803H98.3479C98.4567 326.802 98.5639 326.829 98.6603 326.879C98.7567 326.93 98.8394 327.003 98.9012 327.092C98.9602 327.181 98.997 327.282 99.0085 327.387C99.02 327.493 99.0058 327.6 98.9671 327.698L93.4338 342.19C93.3817 342.329 93.2844 342.446 93.1578 342.522C93.0311 342.599 92.8824 342.63 92.7355 342.612ZM75.0421 341.295H92.2876L97.3203 328.12H80.6545L75.0421 341.295Z" fill="white"/>
<path d="M87.3341 356.103H68.007L61.5515 371.227H81.5505L87.3341 356.103Z" fill="#333333"/>
<path d="M81.5504 371.886H61.5514C61.4436 371.885 61.3374 371.858 61.2425 371.807C61.1475 371.756 61.0665 371.682 61.0066 371.592C60.9468 371.503 60.9099 371.4 60.8992 371.292C60.8886 371.185 60.9044 371.077 60.9454 370.977L67.4009 355.839C67.4537 355.722 67.5388 355.623 67.6462 355.553C67.7536 355.483 67.8788 355.445 68.007 355.444H87.334C87.441 355.444 87.5464 355.47 87.6407 355.521C87.735 355.571 87.8152 355.645 87.8742 355.734C87.9386 355.819 87.9798 355.92 87.9937 356.026C88.0075 356.133 87.9936 356.241 87.9532 356.34L82.1696 371.491C82.1173 371.61 82.0305 371.712 81.9202 371.782C81.8099 371.853 81.6812 371.889 81.5504 371.886ZM62.5527 370.568H81.1024L86.3723 356.761H68.4417L62.5527 370.568Z" fill="white"/>
<path d="M81.5503 371.227H61.5514L54.6479 387.445H75.3583L81.5503 371.227Z" fill="#333333"/>
<path d="M75.3847 388.104H54.6479C54.5389 388.107 54.4308 388.082 54.334 388.031C54.2371 387.981 54.1545 387.907 54.094 387.816C54.0335 387.726 53.997 387.621 53.9879 387.512C53.9787 387.404 53.9973 387.294 54.0419 387.195L60.8927 370.977C60.9421 370.856 61.026 370.753 61.1339 370.681C61.2417 370.608 61.3687 370.569 61.4987 370.568H81.4976C81.6039 370.571 81.7082 370.598 81.8018 370.648C81.8954 370.699 81.9757 370.771 82.0361 370.858C82.0966 370.946 82.1354 371.046 82.1495 371.151C82.1635 371.257 82.1523 371.364 82.1169 371.464L75.9248 387.682C75.8809 387.794 75.8076 387.893 75.7125 387.967C75.6175 388.041 75.5042 388.088 75.3847 388.104ZM55.6229 386.786H74.884L80.6545 371.886H61.9862L55.6229 386.786Z" fill="white"/>
<path d="M75.3583 387.445H54.648L47.2175 404.875H68.7052L75.3583 387.445Z" fill="#333333"/>
<path d="M68.705 405.534H47.2174C47.1076 405.531 47.0001 405.502 46.9038 405.45C46.8075 405.397 46.7252 405.322 46.664 405.231C46.6122 405.136 46.585 405.029 46.585 404.921C46.585 404.813 46.6122 404.706 46.664 404.611L54.0945 387.195C54.1439 387.074 54.2278 386.971 54.3357 386.899C54.4435 386.826 54.5705 386.787 54.7005 386.786H75.3845C75.4915 386.786 75.5969 386.812 75.6912 386.863C75.7855 386.914 75.8657 386.987 75.9247 387.076C75.983 387.165 76.0204 387.265 76.034 387.37C76.0477 387.475 76.0374 387.582 76.0037 387.682L69.3374 405.099C69.2924 405.229 69.2067 405.342 69.0929 405.42C68.979 405.499 68.8431 405.538 68.705 405.534ZM48.2186 404.216H68.2439L74.3964 388.104H55.0826L48.2186 404.216Z" fill="white"/>
<path d="M422.336 356.103L428.133 371.227H447.302L440.846 356.103H422.336Z" fill="#333333"/>
<path d="M447.302 371.886H428.146C428.012 371.889 427.88 371.85 427.769 371.774C427.658 371.699 427.573 371.59 427.527 371.464L421.717 356.34C421.678 356.241 421.664 356.134 421.675 356.029C421.687 355.923 421.724 355.822 421.783 355.734C421.843 355.645 421.923 355.573 422.017 355.522C422.111 355.472 422.216 355.445 422.323 355.444H440.846C440.975 355.442 441.102 355.478 441.21 355.549C441.318 355.619 441.402 355.72 441.452 355.839L447.908 370.977C447.96 371.072 447.987 371.178 447.987 371.286C447.987 371.395 447.96 371.501 447.908 371.596C447.841 371.693 447.75 371.771 447.644 371.822C447.537 371.873 447.419 371.895 447.302 371.886ZM428.594 370.568H446.301L440.412 356.762H423.285L428.594 370.568Z" fill="white"/>
<path d="M434.364 387.445H454.218L447.302 371.227H428.133L434.364 387.445Z" fill="#333333"/>
<path d="M454.219 388.104H434.365C434.231 388.103 434.101 388.062 433.991 387.987C433.881 387.912 433.795 387.806 433.745 387.682L427.527 371.491C427.488 371.39 427.475 371.282 427.488 371.176C427.5 371.069 427.539 370.967 427.6 370.879C427.661 370.791 427.743 370.719 427.838 370.669C427.933 370.619 428.039 370.594 428.146 370.595H447.302C447.432 370.595 447.559 370.635 447.667 370.707C447.775 370.78 447.859 370.883 447.908 371.003L454.812 387.195C454.853 387.294 454.868 387.403 454.858 387.51C454.847 387.618 454.81 387.721 454.75 387.81C454.69 387.9 454.61 387.974 454.515 388.025C454.42 388.076 454.313 388.103 454.206 388.104H454.219ZM434.813 386.786H453.257L446.907 371.886H429.095L434.813 386.786Z" fill="white"/>
<path d="M441.057 404.875H461.636L454.218 387.445H434.365L441.057 404.875Z" fill="#333333"/>
<path d="M461.636 405.534H441.057C440.924 405.535 440.793 405.495 440.682 405.419C440.571 405.344 440.486 405.237 440.438 405.112L433.732 387.682C433.697 387.582 433.686 387.475 433.7 387.369C433.714 387.264 433.753 387.163 433.813 387.076C433.873 386.989 433.954 386.917 434.047 386.866C434.141 386.816 434.245 386.789 434.352 386.786H454.206C454.336 386.787 454.463 386.826 454.57 386.899C454.678 386.971 454.762 387.074 454.812 387.195L462.229 404.611C462.281 404.706 462.308 404.813 462.308 404.921C462.308 405.029 462.281 405.136 462.229 405.231C462.166 405.329 462.078 405.409 461.974 405.463C461.869 405.516 461.753 405.54 461.636 405.534ZM441.505 404.216H460.648L453.784 388.104H435.34L441.505 404.216Z" fill="white"/>
<path d="M275.071 341.953L274.373 327.461H254.809L254.822 341.953H275.071Z" fill="#333333"/>
<path d="M275.084 342.612H254.822C254.647 342.612 254.48 342.543 254.356 342.419C254.233 342.296 254.163 342.128 254.163 341.953V327.461C254.162 327.289 254.228 327.124 254.348 327C254.409 326.937 254.483 326.886 254.564 326.852C254.646 326.818 254.733 326.801 254.822 326.803H274.32C274.49 326.802 274.654 326.868 274.777 326.986C274.9 327.104 274.972 327.265 274.979 327.435L275.677 341.927C275.683 342.016 275.671 342.104 275.641 342.188C275.612 342.272 275.566 342.349 275.506 342.414C275.393 342.527 275.244 342.597 275.084 342.612ZM255.481 341.295H274.386L273.74 328.12H255.467L255.481 341.295Z" fill="white"/>
<path d="M422.336 356.103H440.846L434.812 341.953H416.895L422.336 356.103Z" fill="#333333"/>
<path d="M440.846 356.762H422.323C422.191 356.76 422.063 356.719 421.955 356.644C421.847 356.568 421.764 356.463 421.717 356.34L416.289 342.177C416.25 342.079 416.236 341.973 416.248 341.868C416.26 341.762 416.297 341.662 416.357 341.575C416.417 341.488 416.497 341.416 416.591 341.368C416.685 341.319 416.789 341.294 416.895 341.295H434.826C434.954 341.296 435.079 341.334 435.186 341.404C435.294 341.474 435.379 341.573 435.432 341.69L441.452 355.839C441.504 355.934 441.532 356.041 441.532 356.149C441.532 356.257 441.504 356.364 441.452 356.458C441.388 356.559 441.298 356.641 441.191 356.694C441.085 356.747 440.965 356.771 440.846 356.762ZM422.784 355.444H439.911L434.444 342.612H417.923L422.784 355.444Z" fill="white"/>
<path d="M411.928 387.445H434.365L428.133 371.227H406.474L411.928 387.445Z" fill="#333333"/>
<path d="M434.364 388.104H411.968C411.828 388.105 411.692 388.063 411.579 387.983C411.465 387.902 411.38 387.788 411.335 387.656L405.855 371.491C405.821 371.392 405.812 371.287 405.827 371.184C405.842 371.081 405.882 370.983 405.942 370.898C406.003 370.813 406.082 370.744 406.175 370.695C406.267 370.647 406.37 370.622 406.474 370.621H428.146C428.278 370.623 428.406 370.664 428.514 370.739C428.622 370.814 428.705 370.92 428.752 371.043L435.049 387.208C435.086 387.31 435.098 387.419 435.085 387.527C435.071 387.635 435.032 387.737 434.97 387.827C434.902 387.922 434.81 387.997 434.704 388.046C434.598 388.094 434.481 388.114 434.364 388.104ZM412.402 386.786H433.403L427.685 371.886H407.383L412.402 386.786Z" fill="white"/>
<path d="M133.26 341.953L137.41 327.461H117.846L112.998 341.953H133.26Z" fill="#333333"/>
<path d="M133.261 342.612H112.998C112.894 342.611 112.791 342.586 112.699 342.538C112.607 342.49 112.527 342.42 112.466 342.335C112.406 342.25 112.367 342.152 112.351 342.049C112.336 341.946 112.346 341.841 112.379 341.742L117.214 327.25C117.26 327.12 117.346 327.006 117.459 326.926C117.572 326.846 117.708 326.803 117.846 326.802H137.41C137.513 326.803 137.613 326.828 137.704 326.873C137.796 326.919 137.875 326.985 137.937 327.066C137.996 327.149 138.036 327.244 138.054 327.344C138.073 327.444 138.069 327.547 138.043 327.646L133.893 342.138C133.853 342.274 133.77 342.395 133.656 342.48C133.542 342.566 133.403 342.612 133.261 342.612ZM113.92 341.294H132.76L136.528 328.12H118.321L113.92 341.294Z" fill="white"/>
<path d="M396.633 341.953L401.389 356.103H422.336L416.895 341.953H396.633Z" fill="#333333"/>
<path d="M422.323 356.762H401.389C401.252 356.759 401.12 356.714 401.009 356.634C400.899 356.554 400.815 356.442 400.769 356.314L396.013 342.164C395.98 342.063 395.97 341.955 395.986 341.85C396.002 341.745 396.043 341.645 396.106 341.558C396.166 341.475 396.245 341.407 396.337 341.361C396.428 341.315 396.53 341.292 396.633 341.295H416.895C417.029 341.294 417.16 341.333 417.27 341.409C417.381 341.484 417.466 341.591 417.514 341.716L422.942 355.866C422.981 355.964 422.995 356.071 422.984 356.177C422.972 356.282 422.935 356.383 422.876 356.472C422.814 356.561 422.732 356.634 422.635 356.685C422.539 356.735 422.432 356.762 422.323 356.762ZM401.863 355.444H421.374L416.447 342.612H397.555L401.863 355.444Z" fill="white"/>
<path d="M434.812 341.953L428.647 327.461H411.335L416.895 341.953H434.812Z" fill="#333333"/>
<path d="M434.826 342.612H416.895C416.763 342.612 416.634 342.572 416.526 342.496C416.418 342.421 416.335 342.314 416.289 342.19L410.716 327.698C410.68 327.599 410.668 327.491 410.681 327.386C410.695 327.28 410.734 327.179 410.795 327.092C410.854 327.003 410.935 326.93 411.029 326.879C411.123 326.829 411.229 326.802 411.336 326.802H428.647C428.775 326.804 428.9 326.842 429.008 326.912C429.115 326.982 429.2 327.081 429.253 327.198L435.432 341.69C435.474 341.79 435.49 341.9 435.478 342.008C435.467 342.116 435.428 342.22 435.366 342.309C435.308 342.4 435.228 342.475 435.134 342.528C435.039 342.581 434.934 342.61 434.826 342.612ZM417.356 341.294H433.824L428.212 328.12H412.297L417.356 341.294Z" fill="white"/>
<path d="M416.895 341.953L411.336 327.461H391.771L396.633 341.953H416.895Z" fill="#333333"/>
<path d="M416.895 342.612H396.633C396.496 342.609 396.364 342.565 396.253 342.485C396.142 342.405 396.059 342.293 396.013 342.164L391.139 327.672C391.108 327.573 391.101 327.468 391.117 327.365C391.133 327.262 391.172 327.165 391.231 327.079C391.294 326.995 391.375 326.926 391.469 326.878C391.562 326.83 391.666 326.804 391.771 326.802H411.335C411.469 326.803 411.599 326.844 411.709 326.919C411.819 326.994 411.905 327.1 411.955 327.224L417.514 341.716C417.55 341.816 417.561 341.924 417.547 342.029C417.533 342.134 417.494 342.235 417.434 342.322C417.373 342.41 417.293 342.482 417.199 342.532C417.106 342.582 417.001 342.61 416.895 342.612ZM397.133 341.294H415.96L410.914 328.12H392.68L397.133 341.294Z" fill="white"/>
<path d="M344.62 387.445L347.966 404.875H371.232L367.056 387.445H344.62Z" fill="#333333"/>
<path d="M371.232 405.534H347.966C347.811 405.536 347.661 405.482 347.543 405.383C347.424 405.284 347.345 405.146 347.32 404.993L343.961 387.577C343.944 387.48 343.949 387.38 343.974 387.285C343.999 387.189 344.044 387.1 344.106 387.023C344.167 386.951 344.244 386.892 344.33 386.851C344.417 386.81 344.511 386.788 344.606 386.786H367.003C367.151 386.786 367.295 386.837 367.411 386.931C367.526 387.024 367.605 387.155 367.635 387.3L371.825 404.717C371.849 404.814 371.85 404.915 371.83 405.013C371.809 405.112 371.767 405.204 371.706 405.283C371.649 405.355 371.577 405.415 371.495 405.458C371.414 405.501 371.324 405.527 371.232 405.534ZM348.506 404.216H370.402L366.542 388.104H345.463L348.506 404.216Z" fill="white"/>
<path d="M417.778 404.875H441.057L434.364 387.445H411.928L417.778 404.875Z" fill="#333333"/>
<path d="M441.057 405.534H417.778C417.641 405.531 417.509 405.486 417.398 405.406C417.288 405.326 417.204 405.214 417.159 405.086L411.336 387.656C411.305 387.556 411.297 387.451 411.313 387.349C411.329 387.246 411.368 387.148 411.428 387.063C411.491 386.978 411.572 386.909 411.666 386.862C411.759 386.814 411.863 386.788 411.968 386.786H434.365C434.498 386.787 434.628 386.828 434.738 386.903C434.849 386.978 434.934 387.084 434.984 387.208L441.637 404.638C441.686 404.731 441.711 404.835 441.711 404.941C441.711 405.046 441.686 405.15 441.637 405.244C441.572 405.336 441.485 405.411 441.384 405.462C441.282 405.512 441.17 405.537 441.057 405.534ZM418.252 404.216H440.096L433.917 388.104H412.837L418.252 404.216Z" fill="white"/>
<path d="M396.633 341.953L391.771 327.461H372.207L376.37 341.953H396.633Z" fill="#333333"/>
<path d="M396.633 342.612H376.37C376.227 342.609 376.088 342.56 375.974 342.472C375.86 342.385 375.777 342.263 375.738 342.125L371.575 327.633C371.543 327.535 371.536 327.431 371.554 327.329C371.573 327.228 371.616 327.133 371.68 327.053C371.742 326.972 371.822 326.906 371.913 326.86C372.005 326.815 372.105 326.79 372.207 326.789H391.771C391.908 326.792 392.04 326.837 392.151 326.917C392.262 326.997 392.345 327.109 392.391 327.237L397.265 341.729C397.296 341.829 397.303 341.934 397.287 342.036C397.271 342.139 397.232 342.237 397.173 342.322C397.112 342.41 397.032 342.482 396.938 342.532C396.844 342.583 396.739 342.61 396.633 342.612ZM376.871 341.295H395.724L391.297 328.12H373.129L376.871 341.295Z" fill="white"/>
<path d="M389.492 387.445L394.512 404.875H417.778L411.928 387.445H389.492Z" fill="#333333"/>
<path d="M417.778 405.534H394.511C394.367 405.533 394.227 405.485 394.113 405.397C393.999 405.309 393.917 405.185 393.879 405.046L388.86 387.629C388.828 387.532 388.82 387.427 388.839 387.326C388.857 387.225 388.901 387.13 388.965 387.05C389.027 386.969 389.107 386.903 389.198 386.857C389.289 386.812 389.39 386.787 389.492 386.786H411.889C412.025 386.789 412.157 386.834 412.268 386.914C412.379 386.994 412.462 387.105 412.508 387.234L418.37 404.664C418.401 404.763 418.409 404.868 418.393 404.971C418.377 405.074 418.338 405.172 418.278 405.257C418.22 405.336 418.145 405.402 418.058 405.45C417.972 405.498 417.876 405.526 417.778 405.534ZM394.999 404.216H416.869L411.454 388.104H390.375L394.999 404.216Z" fill="white"/>
<path d="M367.056 387.445L371.232 404.875H394.512L389.492 387.445H367.056Z" fill="#333333"/>
<path d="M394.512 405.534H371.232C371.084 405.534 370.94 405.483 370.825 405.389C370.709 405.296 370.63 405.165 370.6 405.02L366.41 387.603C366.386 387.506 366.385 387.404 366.405 387.306C366.426 387.208 366.468 387.116 366.529 387.037C366.592 386.958 366.672 386.895 366.764 386.851C366.855 386.808 366.955 386.786 367.056 386.786H389.452C389.595 386.786 389.734 386.833 389.848 386.918C389.962 387.004 390.045 387.124 390.085 387.261L395.104 404.69C395.13 404.789 395.134 404.892 395.116 404.992C395.098 405.092 395.058 405.187 394.999 405.27C394.939 405.344 394.866 405.406 394.782 405.451C394.698 405.497 394.606 405.525 394.512 405.534ZM371.759 404.216H393.629L388.939 388.104H367.859L371.759 404.216Z" fill="white"/>
<path d="M406.474 371.227H428.133L422.336 356.103H401.389L406.474 371.227Z" fill="#333333"/>
<path d="M428.146 371.886H406.474C406.336 371.887 406.202 371.844 406.091 371.763C405.979 371.683 405.897 371.569 405.855 371.438L400.796 356.314C400.762 356.215 400.753 356.11 400.768 356.007C400.783 355.903 400.823 355.805 400.883 355.721C400.944 355.636 401.023 355.566 401.116 355.518C401.208 355.47 401.311 355.445 401.415 355.444H422.349C422.483 355.443 422.614 355.483 422.725 355.558C422.835 355.633 422.92 355.741 422.968 355.866L428.778 370.99C428.82 371.089 428.836 371.197 428.826 371.304C428.815 371.411 428.778 371.513 428.718 371.602C428.658 371.691 428.576 371.764 428.481 371.813C428.386 371.863 428.28 371.888 428.172 371.886H428.146ZM406.948 370.568H427.145L421.875 356.761H402.311L406.948 370.568Z" fill="white"/>
<path d="M214.297 341.953L215.667 327.461H196.103L194.034 341.953H214.297Z" fill="#333333"/>
<path d="M214.297 342.612H194.035C193.941 342.61 193.849 342.588 193.765 342.547C193.681 342.506 193.606 342.447 193.547 342.375C193.484 342.307 193.437 342.225 193.409 342.136C193.382 342.047 193.375 341.953 193.389 341.861L195.457 327.369C195.477 327.212 195.553 327.067 195.672 326.963C195.791 326.858 195.945 326.801 196.103 326.803H215.667C215.759 326.803 215.849 326.821 215.933 326.858C216.016 326.894 216.092 326.947 216.155 327.013C216.22 327.081 216.268 327.162 216.298 327.251C216.328 327.34 216.337 327.434 216.326 327.527L215.008 342.019C214.992 342.192 214.908 342.351 214.775 342.462C214.641 342.573 214.47 342.627 214.297 342.612ZM194.799 341.294H213.717L214.956 328.12H196.683L194.799 341.294Z" fill="white"/>
<path d="M376.37 341.953L372.207 327.461H352.643L356.121 341.953H376.37Z" fill="#333333"/>
<path d="M376.37 342.612H356.121C355.971 342.613 355.825 342.562 355.708 342.469C355.59 342.375 355.508 342.245 355.475 342.098L351.997 327.606C351.974 327.509 351.972 327.408 351.993 327.31C352.013 327.212 352.055 327.119 352.116 327.04C352.179 326.961 352.26 326.898 352.351 326.854C352.442 326.811 352.542 326.789 352.643 326.789H372.207C372.35 326.789 372.488 326.836 372.602 326.921C372.716 327.007 372.8 327.127 372.839 327.264L377.016 341.756C377.042 341.855 377.045 341.959 377.025 342.059C377.005 342.16 376.962 342.254 376.9 342.335C376.837 342.417 376.757 342.483 376.665 342.529C376.574 342.574 376.473 342.598 376.37 342.599V342.612ZM356.608 341.295H375.501L371.706 328.12H353.473L356.608 341.295Z" fill="white"/>
<path d="M194.034 341.953L196.103 327.461H176.539L173.785 341.953H194.034Z" fill="#333333"/>
<path d="M194.035 342.612H173.785C173.686 342.611 173.589 342.587 173.5 342.544C173.412 342.501 173.333 342.439 173.271 342.362C173.212 342.286 173.169 342.199 173.144 342.106C173.119 342.014 173.113 341.917 173.127 341.822L175.893 327.33C175.918 327.177 175.997 327.039 176.116 326.94C176.234 326.841 176.384 326.787 176.539 326.789H196.103C196.198 326.788 196.292 326.807 196.378 326.846C196.465 326.884 196.542 326.942 196.604 327.013C196.667 327.084 196.714 327.168 196.742 327.259C196.769 327.35 196.776 327.446 196.762 327.54L194.693 342.032C194.671 342.192 194.592 342.338 194.472 342.445C194.351 342.551 194.196 342.61 194.035 342.612ZM174.576 341.295H193.468L195.352 328.12H177.079L174.576 341.295Z" fill="white"/>
<path d="M254.822 341.953L254.809 327.461H235.245L234.56 341.953H254.822Z" fill="#333333"/>
<path d="M254.822 342.612H234.56C234.47 342.612 234.382 342.594 234.3 342.558C234.218 342.521 234.145 342.468 234.085 342.401C234.021 342.338 233.971 342.262 233.939 342.178C233.907 342.094 233.894 342.004 233.901 341.914L234.586 327.422C234.593 327.252 234.665 327.091 234.788 326.973C234.911 326.855 235.074 326.789 235.245 326.789H254.809C254.983 326.789 255.151 326.859 255.275 326.982C255.398 327.106 255.468 327.273 255.468 327.448V341.94C255.464 342.114 255.394 342.279 255.271 342.402C255.148 342.525 254.982 342.595 254.809 342.599L254.822 342.612ZM235.245 341.295H254.163V328.12H235.864L235.245 341.295Z" fill="white"/>
<path d="M173.785 341.953L176.539 327.461H156.975L153.523 341.953H173.785Z" fill="#333333"/>
<path d="M173.785 342.612H153.523C153.422 342.613 153.322 342.59 153.231 342.547C153.14 342.504 153.059 342.44 152.996 342.362C152.938 342.281 152.897 342.189 152.876 342.091C152.856 341.993 152.856 341.893 152.877 341.795L156.329 327.303C156.367 327.16 156.45 327.034 156.567 326.943C156.684 326.853 156.827 326.803 156.975 326.802H176.539C176.636 326.804 176.732 326.826 176.821 326.867C176.909 326.908 176.988 326.966 177.053 327.04C177.112 327.115 177.154 327.202 177.177 327.295C177.2 327.389 177.202 327.486 177.184 327.58L174.431 342.072C174.403 342.223 174.324 342.36 174.206 342.458C174.088 342.557 173.939 342.611 173.785 342.612ZM154.353 341.294H173.232L175.748 328.12H157.488L154.353 341.294Z" fill="white"/>
<path d="M153.523 341.953L156.974 327.461H137.41L133.26 341.953H153.523Z" fill="#333333"/>
<path d="M153.523 342.612H133.261C133.158 342.611 133.058 342.587 132.967 342.541C132.875 342.495 132.796 342.43 132.734 342.348C132.675 342.265 132.635 342.17 132.617 342.07C132.599 341.97 132.602 341.867 132.628 341.769L136.778 327.277C136.818 327.14 136.901 327.02 137.015 326.934C137.129 326.849 137.268 326.802 137.411 326.802H156.975C157.074 326.802 157.172 326.824 157.261 326.868C157.35 326.911 157.428 326.974 157.489 327.053C157.552 327.131 157.596 327.223 157.619 327.321C157.642 327.419 157.642 327.521 157.62 327.619L154.155 342.111C154.122 342.254 154.042 342.382 153.927 342.473C153.812 342.564 153.67 342.613 153.523 342.612ZM134.13 341.294H152.996L156.145 328.12H137.898L134.13 341.294Z" fill="white"/>
<path d="M234.559 341.953L235.244 327.461H215.667L214.297 341.953H234.559Z" fill="#333333"/>
<path d="M234.559 342.612H214.297C214.205 342.611 214.113 342.59 214.029 342.552C213.945 342.513 213.871 342.457 213.81 342.388C213.749 342.32 213.703 342.241 213.674 342.155C213.644 342.069 213.632 341.978 213.638 341.887L215.022 327.395C215.038 327.235 215.112 327.085 215.231 326.976C215.35 326.867 215.506 326.805 215.667 326.802H235.244C235.424 326.808 235.594 326.884 235.719 327.013C235.839 327.142 235.905 327.312 235.903 327.488L235.218 341.98C235.211 342.15 235.139 342.311 235.016 342.428C234.893 342.546 234.73 342.612 234.559 342.612ZM215.022 341.294H233.927L234.546 328.12H216.273L215.022 341.294Z" fill="white"/>
<path d="M356.121 341.953L352.643 327.461H333.065L335.858 341.953H356.121Z" fill="#333333"/>
<path d="M356.121 342.612H335.859C335.704 342.614 335.554 342.561 335.436 342.462C335.317 342.363 335.238 342.224 335.213 342.072L332.42 327.58C332.403 327.484 332.407 327.386 332.431 327.293C332.455 327.199 332.5 327.111 332.561 327.036C332.622 326.961 332.699 326.9 332.786 326.858C332.873 326.815 332.969 326.792 333.066 326.789H352.643C352.79 326.789 352.932 326.838 353.047 326.929C353.162 327.02 353.242 327.147 353.275 327.29L356.753 341.782C356.777 341.879 356.779 341.979 356.758 342.076C356.738 342.174 356.696 342.265 356.635 342.343C356.574 342.422 356.496 342.486 356.407 342.53C356.318 342.574 356.22 342.598 356.121 342.599V342.612ZM336.359 341.295H355.238L352.076 328.12H333.869L336.359 341.295Z" fill="white"/>
<path d="M335.858 341.953L333.065 327.461H313.501L315.596 341.953H335.858Z" fill="#333333"/>
<path d="M335.858 342.612H315.596C315.438 342.61 315.287 342.552 315.168 342.448C315.05 342.344 314.973 342.201 314.951 342.045L312.856 327.553C312.842 327.46 312.848 327.366 312.873 327.275C312.898 327.184 312.942 327.1 313.001 327.026C313.064 326.957 313.141 326.901 313.228 326.862C313.314 326.824 313.407 326.803 313.501 326.802H333.065C333.221 326.803 333.371 326.856 333.491 326.955C333.611 327.053 333.694 327.19 333.724 327.343L336.504 341.835C336.524 341.93 336.521 342.028 336.496 342.122C336.471 342.216 336.424 342.302 336.359 342.375C336.3 342.45 336.224 342.511 336.137 342.552C336.05 342.594 335.955 342.614 335.858 342.612ZM316.163 341.294H335.055L332.525 328.12H314.265L316.163 341.294Z" fill="white"/>
<path d="M295.334 341.953L293.937 327.461H274.373L275.071 341.953H295.334Z" fill="#333333"/>
<path d="M295.399 342.612H275.084C274.914 342.612 274.75 342.546 274.627 342.429C274.505 342.311 274.432 342.15 274.425 341.98L273.714 327.488C273.707 327.398 273.719 327.307 273.751 327.223C273.783 327.139 273.833 327.063 273.898 327C273.958 326.934 274.031 326.88 274.113 326.844C274.195 326.808 274.283 326.789 274.373 326.789H293.937C294.1 326.792 294.257 326.853 294.378 326.962C294.499 327.071 294.576 327.22 294.596 327.382L295.992 341.874C295.999 341.966 295.988 342.058 295.958 342.145C295.928 342.231 295.881 342.311 295.819 342.379C295.758 342.447 295.683 342.501 295.599 342.539C295.516 342.577 295.425 342.597 295.333 342.599L295.399 342.612ZM275.769 341.295H294.609L293.291 328.12H275.058L275.769 341.295Z" fill="white"/>
<path d="M344.619 387.445H322.17H299.734H277.298H254.861H232.425H209.989H187.539H165.103H142.667H120.231L115.238 404.875H138.517H161.783H185.063H208.329H231.608H254.874H278.154H301.42H324.686H347.966L344.619 387.445Z" fill="#333333"/>
<path d="M347.966 405.534H115.251C115.149 405.533 115.048 405.508 114.957 405.463C114.866 405.417 114.786 405.351 114.724 405.27C114.66 405.19 114.616 405.095 114.598 404.994C114.579 404.892 114.587 404.788 114.619 404.69L119.599 387.3C119.638 387.163 119.722 387.043 119.836 386.958C119.95 386.872 120.088 386.826 120.231 386.826H344.606C344.762 386.826 344.912 386.88 345.032 386.978C345.152 387.077 345.235 387.214 345.265 387.366L348.612 404.783C348.631 404.877 348.63 404.974 348.607 405.068C348.584 405.161 348.541 405.248 348.48 405.323C348.414 405.393 348.334 405.447 348.246 405.484C348.157 405.52 348.062 405.537 347.966 405.534ZM116.094 404.216H347.162L344.066 388.104H120.732L116.094 404.216Z" fill="white"/>
<path d="M315.596 341.953L313.501 327.461H293.937L295.334 341.953H315.596Z" fill="#333333"/>
<path d="M315.596 342.612H295.4C295.236 342.609 295.079 342.546 294.96 342.434C294.841 342.322 294.767 342.169 294.754 342.006L293.345 327.514C293.338 327.423 293.35 327.332 293.38 327.247C293.409 327.161 293.456 327.081 293.516 327.013C293.576 326.943 293.65 326.886 293.735 326.847C293.819 326.808 293.911 326.789 294.003 326.789H313.567C313.727 326.791 313.88 326.848 314.001 326.952C314.121 327.056 314.201 327.199 314.226 327.356L316.321 341.848C316.332 341.942 316.324 342.037 316.297 342.128C316.27 342.219 316.224 342.303 316.163 342.375C316.094 342.457 316.007 342.521 315.908 342.562C315.81 342.603 315.703 342.62 315.596 342.612ZM295.94 341.295H314.832L312.935 328.12H294.662L295.94 341.295Z" fill="white"/>
<path d="M499.341 435.479H0.658691V442.554H499.341V435.479Z" fill="#333333"/>
<path d="M499.341 443.213H0.658727C0.484022 443.213 0.316471 443.143 0.192936 443.02C0.0694009 442.896 0 442.729 0 442.554V435.479C0 435.305 0.0694009 435.137 0.192936 435.014C0.316471 434.89 0.484022 434.821 0.658727 434.821H499.341C499.516 434.821 499.684 434.89 499.807 435.014C499.931 435.137 500 435.305 500 435.479V442.554C500 442.729 499.931 442.896 499.807 443.02C499.684 443.143 499.516 443.213 499.341 443.213ZM1.3438 441.895H498.683V436.138H1.31745L1.3438 441.895Z" fill="#333333"/>
<path d="M124.855 96.8278H103.117C102.593 96.8278 102.09 96.6196 101.72 96.249C101.349 95.8784 101.141 95.3758 101.141 94.8517C101.141 94.3276 101.349 93.8249 101.72 93.4543C102.09 93.0837 102.593 92.8755 103.117 92.8755H124.855C125.379 92.8755 125.882 93.0837 126.252 93.4543C126.623 93.8249 126.831 94.3276 126.831 94.8517C126.831 95.3758 126.623 95.8784 126.252 96.249C125.882 96.6196 125.379 96.8278 124.855 96.8278Z" fill="#333333"/>
<path d="M184.733 108H103.051C102.527 108 102.024 107.792 101.654 107.421C101.283 107.051 101.075 106.548 101.075 106.024C101.075 105.5 101.283 104.997 101.654 104.626C102.024 104.256 102.527 104.048 103.051 104.048H184.733C185.257 104.048 185.76 104.256 186.131 104.626C186.501 104.997 186.709 105.5 186.709 106.024C186.709 106.548 186.501 107.051 186.131 107.421C185.76 107.792 185.257 108 184.733 108Z" fill="white"/>
<path d="M310.985 108H229.369C228.845 108 228.342 107.792 227.971 107.421C227.601 107.051 227.393 106.548 227.393 106.024C227.393 105.5 227.601 104.997 227.971 104.626C228.342 104.256 228.845 104.048 229.369 104.048H310.985C311.509 104.048 312.012 104.256 312.382 104.626C312.753 104.997 312.961 105.5 312.961 106.024C312.961 106.548 312.753 107.051 312.382 107.421C312.012 107.792 311.509 108 310.985 108Z" fill="white"/>
<path d="M222.32 108H190.003C189.479 108 188.976 107.792 188.606 107.421C188.235 107.051 188.027 106.548 188.027 106.024C188.027 105.5 188.235 104.997 188.606 104.626C188.976 104.256 189.479 104.048 190.003 104.048H222.294C222.818 104.048 223.321 104.256 223.691 104.626C224.062 104.997 224.27 105.5 224.27 106.024C224.27 106.548 224.062 107.051 223.691 107.421C223.321 107.792 222.818 108 222.294 108H222.32Z" fill="#333333"/>
<path d="M150.097 119.145H103.117C102.593 119.145 102.09 118.937 101.72 118.567C101.349 118.196 101.141 117.693 101.141 117.169C101.141 116.645 101.349 116.143 101.72 115.772C102.09 115.401 102.593 115.193 103.117 115.193H150.097C150.622 115.193 151.124 115.401 151.495 115.772C151.865 116.143 152.074 116.645 152.074 117.169C152.074 117.693 151.865 118.196 151.495 118.567C151.124 118.937 150.622 119.145 150.097 119.145Z" fill="#333333"/>
<path d="M202.94 119.145H155.973C155.449 119.145 154.946 118.937 154.576 118.567C154.205 118.196 153.997 117.693 153.997 117.169C153.997 116.645 154.205 116.143 154.576 115.772C154.946 115.401 155.449 115.193 155.973 115.193H202.94C203.465 115.193 203.967 115.401 204.338 115.772C204.708 116.143 204.917 116.645 204.917 117.169C204.917 117.693 204.708 118.196 204.338 118.567C203.967 118.937 203.465 119.145 202.94 119.145Z" fill="#333333"/>
<path d="M255.784 119.145H208.817C208.292 119.145 207.79 118.937 207.419 118.567C207.049 118.196 206.84 117.693 206.84 117.169C206.84 116.645 207.049 116.143 207.419 115.772C207.79 115.401 208.292 115.193 208.817 115.193H255.784C256.308 115.193 256.811 115.401 257.181 115.772C257.552 116.143 257.76 116.645 257.76 117.169C257.76 117.693 257.552 118.196 257.181 118.567C256.811 118.937 256.308 119.145 255.784 119.145Z" fill="#333333"/>
<path d="M281.619 119.145H261.66C261.135 119.145 260.633 118.937 260.262 118.567C259.892 118.196 259.683 117.693 259.683 117.169C259.683 116.645 259.892 116.143 260.262 115.772C260.633 115.401 261.135 115.193 261.66 115.193H281.619C282.143 115.193 282.646 115.401 283.016 115.772C283.387 116.143 283.595 116.645 283.595 117.169C283.595 117.693 283.387 118.196 283.016 118.567C282.646 118.937 282.143 119.145 281.619 119.145Z" fill="#333333"/>
<path d="M152.442 96.8278H130.718C130.194 96.8278 129.691 96.6196 129.32 96.249C128.95 95.8784 128.741 95.3758 128.741 94.8517C128.741 94.3276 128.95 93.8249 129.32 93.4543C129.691 93.0837 130.194 92.8755 130.718 92.8755H152.442C152.967 92.8755 153.469 93.0837 153.84 93.4543C154.21 93.8249 154.419 94.3276 154.419 94.8517C154.419 95.3758 154.21 95.8784 153.84 96.249C153.469 96.6196 152.967 96.8278 152.442 96.8278Z" fill="#333333"/>
<path d="M281.619 96.8278H259.894C259.37 96.8278 258.867 96.6196 258.497 96.249C258.126 95.8784 257.918 95.3758 257.918 94.8517C257.918 94.3276 258.126 93.8249 258.497 93.4543C258.867 93.0837 259.37 92.8755 259.894 92.8755H281.619C282.143 92.8755 282.646 93.0837 283.016 93.4543C283.387 93.8249 283.595 94.3276 283.595 94.8517C283.595 95.3758 283.387 95.8784 283.016 96.249C282.646 96.6196 282.143 96.8278 281.619 96.8278Z" fill="#333333"/>
<path d="M252.846 96.8278H231.121C230.597 96.8278 230.094 96.6196 229.723 96.249C229.353 95.8784 229.145 95.3758 229.145 94.8517C229.145 94.3276 229.353 93.8249 229.723 93.4543C230.094 93.0837 230.597 92.8755 231.121 92.8755H252.846C253.37 92.8755 253.872 93.0837 254.243 93.4543C254.613 93.8249 254.822 94.3276 254.822 94.8517C254.822 95.3758 254.613 95.8784 254.243 96.249C253.872 96.6196 253.37 96.8278 252.846 96.8278Z" fill="white"/>
<path d="M221.727 96.8278H158.384C157.86 96.8278 157.357 96.6196 156.987 96.249C156.616 95.8784 156.408 95.3758 156.408 94.8517C156.408 94.3276 156.616 93.8249 156.987 93.4543C157.357 93.0837 157.86 92.8755 158.384 92.8755H221.793C222.317 92.8755 222.82 93.0837 223.191 93.4543C223.561 93.8249 223.769 94.3276 223.769 94.8517C223.769 95.3758 223.561 95.8784 223.191 96.249C222.82 96.6196 222.317 96.8278 221.793 96.8278H221.727Z" fill="#333333"/>
<path d="M124.855 164.94H103.117C102.593 164.94 102.09 164.732 101.72 164.361C101.349 163.991 101.141 163.488 101.141 162.964C101.141 162.44 101.349 161.937 101.72 161.567C102.09 161.196 102.593 160.988 103.117 160.988H124.855C125.379 160.988 125.882 161.196 126.252 161.567C126.623 161.937 126.831 162.44 126.831 162.964C126.831 163.488 126.623 163.991 126.252 164.361C125.882 164.732 125.379 164.94 124.855 164.94Z" fill="#333333"/>
<path d="M184.733 176.099H103.051C102.527 176.099 102.024 175.891 101.654 175.52C101.283 175.15 101.075 174.647 101.075 174.123C101.075 173.599 101.283 173.096 101.654 172.725C102.024 172.355 102.527 172.147 103.051 172.147H184.733C185.257 172.147 185.76 172.355 186.131 172.725C186.501 173.096 186.709 173.599 186.709 174.123C186.709 174.647 186.501 175.15 186.131 175.52C185.76 175.891 185.257 176.099 184.733 176.099Z" fill="white"/>
<path d="M310.985 176.099H229.369C228.845 176.099 228.342 175.891 227.971 175.52C227.601 175.15 227.393 174.647 227.393 174.123C227.393 173.599 227.601 173.096 227.971 172.725C228.342 172.355 228.845 172.147 229.369 172.147H310.985C311.509 172.147 312.012 172.355 312.382 172.725C312.753 173.096 312.961 173.599 312.961 174.123C312.961 174.647 312.753 175.15 312.382 175.52C312.012 175.891 311.509 176.099 310.985 176.099Z" fill="#333333"/>
<path d="M222.32 176.099H190.003C189.479 176.099 188.976 175.891 188.606 175.52C188.235 175.15 188.027 174.647 188.027 174.123C188.027 173.599 188.235 173.096 188.606 172.725C188.976 172.355 189.479 172.147 190.003 172.147H222.294C222.818 172.147 223.321 172.355 223.691 172.725C224.062 173.096 224.27 173.599 224.27 174.123C224.27 174.647 224.062 175.15 223.691 175.52C223.321 175.891 222.818 176.099 222.294 176.099H222.32Z" fill="#333333"/>
<path d="M150.097 187.258H103.117C102.593 187.258 102.09 187.05 101.72 186.679C101.349 186.308 101.141 185.806 101.141 185.282C101.141 184.758 101.349 184.255 101.72 183.884C102.09 183.514 102.593 183.306 103.117 183.306H150.097C150.622 183.306 151.124 183.514 151.495 183.884C151.865 184.255 152.074 184.758 152.074 185.282C152.074 185.806 151.865 186.308 151.495 186.679C151.124 187.05 150.622 187.258 150.097 187.258Z" fill="#333333"/>
<path d="M202.94 187.258H155.973C155.449 187.258 154.946 187.05 154.576 186.679C154.205 186.308 153.997 185.806 153.997 185.282C153.997 184.758 154.205 184.255 154.576 183.884C154.946 183.514 155.449 183.306 155.973 183.306H202.94C203.465 183.306 203.967 183.514 204.338 183.884C204.708 184.255 204.917 184.758 204.917 185.282C204.917 185.806 204.708 186.308 204.338 186.679C203.967 187.05 203.465 187.258 202.94 187.258Z" fill="#333333"/>
<path d="M255.784 187.258H208.817C208.292 187.258 207.79 187.05 207.419 186.679C207.049 186.308 206.84 185.806 206.84 185.282C206.84 184.758 207.049 184.255 207.419 183.884C207.79 183.514 208.292 183.306 208.817 183.306H255.784C256.308 183.306 256.811 183.514 257.181 183.884C257.552 184.255 257.76 184.758 257.76 185.282C257.76 185.806 257.552 186.308 257.181 186.679C256.811 187.05 256.308 187.258 255.784 187.258Z" fill="white"/>
<path d="M281.619 187.258H261.66C261.135 187.258 260.633 187.05 260.262 186.679C259.892 186.308 259.683 185.806 259.683 185.282C259.683 184.758 259.892 184.255 260.262 183.884C260.633 183.514 261.135 183.306 261.66 183.306H281.619C282.143 183.306 282.646 183.514 283.016 183.884C283.387 184.255 283.595 184.758 283.595 185.282C283.595 185.806 283.387 186.308 283.016 186.679C282.646 187.05 282.143 187.258 281.619 187.258Z" fill="#333333"/>
<path d="M152.442 164.94H130.718C130.194 164.94 129.691 164.732 129.32 164.361C128.95 163.991 128.741 163.488 128.741 162.964C128.741 162.44 128.95 161.937 129.32 161.567C129.691 161.196 130.194 160.988 130.718 160.988H152.442C152.967 160.988 153.469 161.196 153.84 161.567C154.21 161.937 154.419 162.44 154.419 162.964C154.419 163.488 154.21 163.991 153.84 164.361C153.469 164.732 152.967 164.94 152.442 164.94Z" fill="#333333"/>
<path d="M281.619 164.94H259.894C259.37 164.94 258.867 164.732 258.497 164.361C258.126 163.991 257.918 163.488 257.918 162.964C257.918 162.44 258.126 161.937 258.497 161.567C258.867 161.196 259.37 160.988 259.894 160.988H281.619C282.143 160.988 282.646 161.196 283.016 161.567C283.387 161.937 283.595 162.44 283.595 162.964C283.595 163.488 283.387 163.991 283.016 164.361C282.646 164.732 282.143 164.94 281.619 164.94Z" fill="#333333"/>
<path d="M252.846 164.94H231.121C230.597 164.94 230.094 164.732 229.723 164.361C229.353 163.991 229.145 163.488 229.145 162.964C229.145 162.44 229.353 161.937 229.723 161.567C230.094 161.196 230.597 160.988 231.121 160.988H252.846C253.37 160.988 253.872 161.196 254.243 161.567C254.613 161.937 254.822 162.44 254.822 162.964C254.822 163.488 254.613 163.991 254.243 164.361C253.872 164.732 253.37 164.94 252.846 164.94Z" fill="white"/>
<path d="M221.727 164.94H158.384C157.86 164.94 157.357 164.732 156.987 164.361C156.616 163.991 156.408 163.488 156.408 162.964C156.408 162.44 156.616 161.937 156.987 161.567C157.357 161.196 157.86 160.988 158.384 160.988H221.793C222.317 160.988 222.82 161.196 223.191 161.567C223.561 161.937 223.769 162.44 223.769 162.964C223.769 163.488 223.561 163.991 223.191 164.361C222.82 164.732 222.317 164.94 221.793 164.94H221.727Z" fill="#333333"/>
<path d="M124.855 265.343H103.117C102.593 265.343 102.09 265.135 101.72 264.765C101.349 264.394 101.141 263.891 101.141 263.367C101.141 262.843 101.349 262.34 101.72 261.97C102.09 261.599 102.593 261.391 103.117 261.391H124.855C125.379 261.391 125.882 261.599 126.252 261.97C126.623 262.34 126.831 262.843 126.831 263.367C126.831 263.891 126.623 264.394 126.252 264.765C125.882 265.135 125.379 265.343 124.855 265.343Z" fill="#333333"/>
<path d="M184.733 276.502H103.051C102.527 276.502 102.024 276.294 101.654 275.923C101.283 275.553 101.075 275.05 101.075 274.526C101.075 274.002 101.283 273.499 101.654 273.129C102.024 272.758 102.527 272.55 103.051 272.55H184.733C185.257 272.55 185.76 272.758 186.131 273.129C186.501 273.499 186.709 274.002 186.709 274.526C186.709 275.05 186.501 275.553 186.131 275.923C185.76 276.294 185.257 276.502 184.733 276.502Z" fill="white"/>
<path d="M310.985 276.502H229.369C228.845 276.502 228.342 276.294 227.971 275.923C227.601 275.553 227.393 275.05 227.393 274.526C227.393 274.002 227.601 273.499 227.971 273.129C228.342 272.758 228.845 272.55 229.369 272.55H310.985C311.509 272.55 312.012 272.758 312.382 273.129C312.753 273.499 312.961 274.002 312.961 274.526C312.961 275.05 312.753 275.553 312.382 275.923C312.012 276.294 311.509 276.502 310.985 276.502Z" fill="#333333"/>
<path d="M222.32 276.502H190.003C189.479 276.502 188.976 276.294 188.606 275.923C188.235 275.553 188.027 275.05 188.027 274.526C188.027 274.002 188.235 273.499 188.606 273.129C188.976 272.758 189.479 272.55 190.003 272.55H222.294C222.818 272.55 223.321 272.758 223.691 273.129C224.062 273.499 224.27 274.002 224.27 274.526C224.27 275.05 224.062 275.553 223.691 275.923C223.321 276.294 222.818 276.502 222.294 276.502H222.32Z" fill="#333333"/>
<path d="M150.097 287.661H103.117C102.593 287.661 102.09 287.453 101.72 287.082C101.349 286.712 101.141 286.209 101.141 285.685C101.141 285.161 101.349 284.658 101.72 284.288C102.09 283.917 102.593 283.709 103.117 283.709H150.097C150.622 283.709 151.124 283.917 151.495 284.288C151.865 284.658 152.074 285.161 152.074 285.685C152.074 286.209 151.865 286.712 151.495 287.082C151.124 287.453 150.622 287.661 150.097 287.661Z" fill="#333333"/>
<path d="M202.94 287.661H155.973C155.449 287.661 154.946 287.453 154.576 287.082C154.205 286.712 153.997 286.209 153.997 285.685C153.997 285.161 154.205 284.658 154.576 284.288C154.946 283.917 155.449 283.709 155.973 283.709H202.94C203.465 283.709 203.967 283.917 204.338 284.288C204.708 284.658 204.917 285.161 204.917 285.685C204.917 286.209 204.708 286.712 204.338 287.082C203.967 287.453 203.465 287.661 202.94 287.661Z" fill="#333333"/>
<path d="M255.784 287.661H208.817C208.292 287.661 207.79 287.453 207.419 287.082C207.049 286.712 206.84 286.209 206.84 285.685C206.84 285.161 207.049 284.658 207.419 284.288C207.79 283.917 208.292 283.709 208.817 283.709H255.784C256.308 283.709 256.811 283.917 257.181 284.288C257.552 284.658 257.76 285.161 257.76 285.685C257.76 286.209 257.552 286.712 257.181 287.082C256.811 287.453 256.308 287.661 255.784 287.661Z" fill="white"/>
<path d="M281.619 287.661H261.66C261.135 287.661 260.633 287.453 260.262 287.082C259.892 286.712 259.683 286.209 259.683 285.685C259.683 285.161 259.892 284.658 260.262 284.288C260.633 283.917 261.135 283.709 261.66 283.709H281.619C282.143 283.709 282.646 283.917 283.016 284.288C283.387 284.658 283.595 285.161 283.595 285.685C283.595 286.209 283.387 286.712 283.016 287.082C282.646 287.453 282.143 287.661 281.619 287.661Z" fill="#333333"/>
<path d="M152.442 265.343H130.718C130.194 265.343 129.691 265.135 129.32 264.765C128.95 264.394 128.741 263.891 128.741 263.367C128.741 262.843 128.95 262.34 129.32 261.97C129.691 261.599 130.194 261.391 130.718 261.391H152.442C152.967 261.391 153.469 261.599 153.84 261.97C154.21 262.34 154.419 262.843 154.419 263.367C154.419 263.891 154.21 264.394 153.84 264.765C153.469 265.135 152.967 265.343 152.442 265.343Z" fill="#333333"/>
<path d="M281.619 265.343H259.894C259.37 265.343 258.867 265.135 258.497 264.765C258.126 264.394 257.918 263.891 257.918 263.367C257.918 262.843 258.126 262.34 258.497 261.97C258.867 261.599 259.37 261.391 259.894 261.391H281.619C282.143 261.391 282.646 261.599 283.016 261.97C283.387 262.34 283.595 262.843 283.595 263.367C283.595 263.891 283.387 264.394 283.016 264.765C282.646 265.135 282.143 265.343 281.619 265.343Z" fill="#333333"/>
<path d="M252.846 265.343H231.121C230.597 265.343 230.094 265.135 229.723 264.765C229.353 264.394 229.145 263.891 229.145 263.367C229.145 262.843 229.353 262.34 229.723 261.97C230.094 261.599 230.597 261.391 231.121 261.391H252.846C253.37 261.391 253.872 261.599 254.243 261.97C254.613 262.34 254.822 262.843 254.822 263.367C254.822 263.891 254.613 264.394 254.243 264.765C253.872 265.135 253.37 265.343 252.846 265.343Z" fill="white"/>
<path d="M221.727 265.343H158.384C157.86 265.343 157.357 265.135 156.987 264.765C156.616 264.394 156.408 263.891 156.408 263.367C156.408 262.843 156.616 262.34 156.987 261.97C157.357 261.599 157.86 261.391 158.384 261.391H221.793C222.317 261.391 222.82 261.599 223.191 261.97C223.561 262.34 223.769 262.843 223.769 263.367C223.769 263.891 223.561 264.394 223.191 264.765C222.82 265.135 222.317 265.343 221.793 265.343H221.727Z" fill="#333333"/>
<path d="M246.983 130.884H225.258C224.734 130.884 224.232 130.676 223.861 130.305C223.49 129.935 223.282 129.432 223.282 128.908C223.282 128.384 223.49 127.881 223.861 127.511C224.232 127.14 224.734 126.932 225.258 126.932H246.983C247.507 126.932 248.01 127.14 248.381 127.511C248.751 127.881 248.959 128.384 248.959 128.908C248.959 129.432 248.751 129.935 248.381 130.305C248.01 130.676 247.507 130.884 246.983 130.884Z" fill="#333333"/>
<path d="M218.21 130.884H196.485C195.961 130.884 195.458 130.676 195.088 130.305C194.717 129.935 194.509 129.432 194.509 128.908C194.509 128.384 194.717 127.881 195.088 127.511C195.458 127.14 195.961 126.932 196.485 126.932H218.21C218.734 126.932 219.237 127.14 219.607 127.511C219.978 127.881 220.186 128.384 220.186 128.908C220.186 129.432 219.978 129.935 219.607 130.305C219.237 130.676 218.734 130.884 218.21 130.884Z" fill="#333333"/>
<path d="M187.092 130.884H123.67C123.145 130.884 122.643 130.676 122.272 130.305C121.902 129.935 121.693 129.432 121.693 128.908C121.693 128.384 121.902 127.881 122.272 127.511C122.643 127.14 123.145 126.932 123.67 126.932H187.092C187.616 126.932 188.119 127.14 188.489 127.511C188.86 127.881 189.068 128.384 189.068 128.908C189.068 129.432 188.86 129.935 188.489 130.305C188.119 130.676 187.616 130.884 187.092 130.884Z" fill="#333333"/>
<path d="M246.983 150.843H225.258C224.734 150.843 224.232 150.635 223.861 150.265C223.49 149.894 223.282 149.391 223.282 148.867C223.282 148.343 223.49 147.841 223.861 147.47C224.232 147.099 224.734 146.891 225.258 146.891H246.983C247.507 146.891 248.01 147.099 248.381 147.47C248.751 147.841 248.959 148.343 248.959 148.867C248.959 149.391 248.751 149.894 248.381 150.265C248.01 150.635 247.507 150.843 246.983 150.843Z" fill="#333333"/>
<path d="M218.21 150.843H196.485C195.961 150.843 195.458 150.635 195.088 150.265C194.717 149.894 194.509 149.391 194.509 148.867C194.509 148.343 194.717 147.841 195.088 147.47C195.458 147.099 195.961 146.891 196.485 146.891H218.21C218.734 146.891 219.237 147.099 219.607 147.47C219.978 147.841 220.186 148.343 220.186 148.867C220.186 149.391 219.978 149.894 219.607 150.265C219.237 150.635 218.734 150.843 218.21 150.843Z" fill="#333333"/>
<path d="M187.092 150.843H123.67C123.145 150.843 122.643 150.635 122.272 150.265C121.902 149.894 121.693 149.391 121.693 148.867C121.693 148.343 121.902 147.841 122.272 147.47C122.643 147.099 123.145 146.891 123.67 146.891H187.092C187.616 146.891 188.119 147.099 188.489 147.47C188.86 147.841 189.068 148.343 189.068 148.867C189.068 149.391 188.86 149.894 188.489 150.265C188.119 150.635 187.616 150.843 187.092 150.843Z" fill="white"/>
<path d="M145.394 140.936H123.67C123.145 140.936 122.643 140.728 122.272 140.357C121.902 139.987 121.693 139.484 121.693 138.96C121.693 138.436 121.902 137.933 122.272 137.563C122.643 137.192 123.145 136.984 123.67 136.984H145.394C145.918 136.984 146.421 137.192 146.792 137.563C147.162 137.933 147.371 138.436 147.371 138.96C147.371 139.484 147.162 139.987 146.792 140.357C146.421 140.728 145.918 140.936 145.394 140.936Z" fill="#333333"/>
<path d="M174.194 140.936H152.442C151.918 140.936 151.416 140.728 151.045 140.357C150.675 139.987 150.466 139.484 150.466 138.96C150.466 138.436 150.675 137.933 151.045 137.563C151.416 137.192 151.918 136.984 152.442 136.984H174.194C174.718 136.984 175.22 137.192 175.591 137.563C175.962 137.933 176.17 138.436 176.17 138.96C176.17 139.484 175.962 139.987 175.591 140.357C175.22 140.728 174.718 140.936 174.194 140.936Z" fill="#333333"/>
<path d="M246.983 140.936H183.561C183.037 140.936 182.534 140.728 182.164 140.357C181.793 139.987 181.585 139.484 181.585 138.96C181.585 138.436 181.793 137.933 182.164 137.563C182.534 137.192 183.037 136.984 183.561 136.984H246.983C247.507 136.984 248.01 137.192 248.38 137.563C248.751 137.933 248.959 138.436 248.959 138.96C248.959 139.484 248.751 139.987 248.38 140.357C248.01 140.728 247.507 140.936 246.983 140.936Z" fill="white"/>
<path d="M246.983 200.762H225.258C224.734 200.762 224.232 200.554 223.861 200.183C223.49 199.812 223.282 199.31 223.282 198.786C223.282 198.262 223.49 197.759 223.861 197.388C224.232 197.018 224.734 196.809 225.258 196.809H246.983C247.507 196.809 248.01 197.018 248.381 197.388C248.751 197.759 248.959 198.262 248.959 198.786C248.959 199.31 248.751 199.812 248.381 200.183C248.01 200.554 247.507 200.762 246.983 200.762Z" fill="#333333"/>
<path d="M218.21 200.762H196.485C195.961 200.762 195.458 200.554 195.088 200.183C194.717 199.812 194.509 199.31 194.509 198.786C194.509 198.262 194.717 197.759 195.088 197.388C195.458 197.018 195.961 196.809 196.485 196.809H218.21C218.734 196.809 219.237 197.018 219.607 197.388C219.978 197.759 220.186 198.262 220.186 198.786C220.186 199.31 219.978 199.812 219.607 200.183C219.237 200.554 218.734 200.762 218.21 200.762Z" fill="#333333"/>
<path d="M187.092 200.762H123.67C123.145 200.762 122.643 200.554 122.272 200.183C121.902 199.812 121.693 199.31 121.693 198.786C121.693 198.262 121.902 197.759 122.272 197.388C122.643 197.018 123.145 196.809 123.67 196.809H187.092C187.616 196.809 188.119 197.018 188.489 197.388C188.86 197.759 189.068 198.262 189.068 198.786C189.068 199.31 188.86 199.812 188.489 200.183C188.119 200.554 187.616 200.762 187.092 200.762Z" fill="#333333"/>
<path d="M246.983 220.721H225.258C224.734 220.721 224.232 220.513 223.861 220.142C223.49 219.772 223.282 219.269 223.282 218.745C223.282 218.221 223.49 217.718 223.861 217.348C224.232 216.977 224.734 216.769 225.258 216.769H246.983C247.507 216.769 248.01 216.977 248.381 217.348C248.751 217.718 248.959 218.221 248.959 218.745C248.959 219.269 248.751 219.772 248.381 220.142C248.01 220.513 247.507 220.721 246.983 220.721Z" fill="#333333"/>
<path d="M218.21 220.721H196.485C195.961 220.721 195.458 220.513 195.088 220.142C194.717 219.772 194.509 219.269 194.509 218.745C194.509 218.221 194.717 217.718 195.088 217.348C195.458 216.977 195.961 216.769 196.485 216.769H218.21C218.734 216.769 219.237 216.977 219.607 217.348C219.978 217.718 220.186 218.221 220.186 218.745C220.186 219.269 219.978 219.772 219.607 220.142C219.237 220.513 218.734 220.721 218.21 220.721Z" fill="#333333"/>
<path d="M187.092 220.721H123.67C123.145 220.721 122.643 220.513 122.272 220.142C121.902 219.772 121.693 219.269 121.693 218.745C121.693 218.221 121.902 217.718 122.272 217.348C122.643 216.977 123.145 216.769 123.67 216.769H187.092C187.616 216.769 188.119 216.977 188.489 217.348C188.86 217.718 189.068 218.221 189.068 218.745C189.068 219.269 188.86 219.772 188.489 220.142C188.119 220.513 187.616 220.721 187.092 220.721Z" fill="white"/>
<path d="M145.394 210.761H123.67C123.145 210.761 122.643 210.553 122.272 210.183C121.902 209.812 121.693 209.309 121.693 208.785C121.693 208.261 121.902 207.758 122.272 207.388C122.643 207.017 123.145 206.809 123.67 206.809H145.394C145.918 206.809 146.421 207.017 146.792 207.388C147.162 207.758 147.371 208.261 147.371 208.785C147.371 209.309 147.162 209.812 146.792 210.183C146.421 210.553 145.918 210.761 145.394 210.761Z" fill="#333333"/>
<path d="M174.194 210.761H152.442C151.918 210.761 151.416 210.553 151.045 210.183C150.675 209.812 150.466 209.309 150.466 208.785C150.466 208.261 150.675 207.758 151.045 207.388C151.416 207.017 151.918 206.809 152.442 206.809H174.194C174.718 206.809 175.22 207.017 175.591 207.388C175.962 207.758 176.17 208.261 176.17 208.785C176.17 209.309 175.962 209.812 175.591 210.183C175.22 210.553 174.718 210.761 174.194 210.761Z" fill="#333333"/>
<path d="M246.983 210.761H183.561C183.037 210.761 182.534 210.553 182.164 210.183C181.793 209.812 181.585 209.309 181.585 208.785C181.585 208.261 181.793 207.758 182.164 207.388C182.534 207.017 183.037 206.809 183.561 206.809H246.983C247.507 206.809 248.01 207.017 248.38 207.388C248.751 207.758 248.959 208.261 248.959 208.785C248.959 209.309 248.751 209.812 248.38 210.183C248.01 210.553 247.507 210.761 246.983 210.761Z" fill="white"/>
<path d="M145.394 232.473H123.67C123.145 232.473 122.643 232.265 122.272 231.894C121.902 231.523 121.693 231.021 121.693 230.497C121.693 229.973 121.902 229.47 122.272 229.099C122.643 228.729 123.145 228.521 123.67 228.521H145.394C145.918 228.521 146.421 228.729 146.792 229.099C147.162 229.47 147.371 229.973 147.371 230.497C147.371 231.021 147.162 231.523 146.792 231.894C146.421 232.265 145.918 232.473 145.394 232.473Z" fill="#333333"/>
<path d="M174.194 232.473H152.442C151.918 232.473 151.416 232.265 151.045 231.894C150.675 231.523 150.466 231.021 150.466 230.497C150.466 229.973 150.675 229.47 151.045 229.099C151.416 228.729 151.918 228.521 152.442 228.521H174.194C174.718 228.521 175.22 228.729 175.591 229.099C175.962 229.47 176.17 229.973 176.17 230.497C176.17 231.021 175.962 231.523 175.591 231.894C175.22 232.265 174.718 232.473 174.194 232.473Z" fill="#333333"/>
<path d="M246.983 232.473H183.561C183.037 232.473 182.534 232.265 182.164 231.894C181.793 231.523 181.585 231.021 181.585 230.497C181.585 229.973 181.793 229.47 182.164 229.099C182.534 228.729 183.037 228.521 183.561 228.521H246.983C247.507 228.521 248.01 228.729 248.38 229.099C248.751 229.47 248.959 229.973 248.959 230.497C248.959 231.021 248.751 231.523 248.38 231.894C248.01 232.265 247.507 232.473 246.983 232.473Z" fill="white"/>
<path d="M145.394 252.432H123.67C123.145 252.432 122.643 252.224 122.272 251.854C121.902 251.483 121.693 250.98 121.693 250.456C121.693 249.932 121.902 249.429 122.272 249.059C122.643 248.688 123.145 248.48 123.67 248.48H145.394C145.918 248.48 146.421 248.688 146.792 249.059C147.162 249.429 147.371 249.932 147.371 250.456C147.371 250.98 147.162 251.483 146.792 251.854C146.421 252.224 145.918 252.432 145.394 252.432Z" fill="#333333"/>
<path d="M174.194 252.432H152.442C151.918 252.432 151.416 252.224 151.045 251.854C150.675 251.483 150.466 250.98 150.466 250.456C150.466 249.932 150.675 249.429 151.045 249.059C151.416 248.688 151.918 248.48 152.442 248.48H174.194C174.718 248.48 175.22 248.688 175.591 249.059C175.962 249.429 176.17 249.932 176.17 250.456C176.17 250.98 175.962 251.483 175.591 251.854C175.22 252.224 174.718 252.432 174.194 252.432Z" fill="#333333"/>
<path d="M246.983 252.432H183.561C183.037 252.432 182.534 252.224 182.164 251.854C181.793 251.483 181.585 250.98 181.585 250.456C181.585 249.932 181.793 249.429 182.164 249.059C182.534 248.688 183.037 248.48 183.561 248.48H246.983C247.507 248.48 248.01 248.688 248.38 249.059C248.751 249.429 248.959 249.932 248.959 250.456C248.959 250.98 248.751 251.483 248.38 251.854C248.01 252.224 247.507 252.432 246.983 252.432Z" fill="white"/>
<path d="M246.983 242.446H225.258C224.734 242.446 224.232 242.238 223.861 241.867C223.49 241.497 223.282 240.994 223.282 240.47C223.282 239.946 223.49 239.443 223.861 239.072C224.232 238.702 224.734 238.494 225.258 238.494H246.983C247.507 238.494 248.01 238.702 248.381 239.072C248.751 239.443 248.959 239.946 248.959 240.47C248.959 240.994 248.751 241.497 248.381 241.867C248.01 242.238 247.507 242.446 246.983 242.446Z" fill="#333333"/>
<path d="M218.21 242.446H196.485C195.961 242.446 195.458 242.238 195.088 241.867C194.717 241.497 194.509 240.994 194.509 240.47C194.509 239.946 194.717 239.443 195.088 239.072C195.458 238.702 195.961 238.494 196.485 238.494H218.21C218.734 238.494 219.237 238.702 219.607 239.072C219.978 239.443 220.186 239.946 220.186 240.47C220.186 240.994 219.978 241.497 219.607 241.867C219.237 242.238 218.734 242.446 218.21 242.446Z" fill="#333333"/>
<path d="M187.092 242.446H123.67C123.145 242.446 122.643 242.238 122.272 241.867C121.902 241.497 121.693 240.994 121.693 240.47C121.693 239.946 121.902 239.443 122.272 239.072C122.643 238.702 123.145 238.494 123.67 238.494H187.092C187.616 238.494 188.119 238.702 188.489 239.072C188.86 239.443 189.068 239.946 189.068 240.47C189.068 240.994 188.86 241.497 188.489 241.867C188.119 242.238 187.616 242.446 187.092 242.446Z" fill="white"/>
<path d="M95.0673 90.9783H88.1243V97.8291H95.0673V90.9783Z" fill="#333333"/>
<path d="M95.0673 102.229H88.1243V109.08H95.0673V102.229Z" fill="#333333"/>
<path d="M95.0673 113.494H88.1243V120.344H95.0673V113.494Z" fill="#333333"/>
<path d="M95.0673 124.745H88.1243V131.596H95.0673V124.745Z" fill="#333333"/>
<path d="M95.0673 135.996H88.1243V142.847H95.0673V135.996Z" fill="#333333"/>
<path d="M95.0673 147.26H88.1243V154.111H95.0673V147.26Z" fill="#333333"/>
<path d="M95.0673 158.511H88.1243V165.362H95.0673V158.511Z" fill="#333333"/>
<path d="M95.0673 169.762H88.1243V176.613H95.0673V169.762Z" fill="#333333"/>
<path d="M95.0673 181.026H88.1243V187.877H95.0673V181.026Z" fill="#333333"/>
<path d="M95.0673 192.277H88.1243V199.128H95.0673V192.277Z" fill="#333333"/>
<path d="M95.0673 203.528H88.1243V210.379H95.0673V203.528Z" fill="#333333"/>
<path d="M95.0673 214.793H88.1243V221.643H95.0673V214.793Z" fill="#333333"/>
<path d="M95.0673 226.044H88.1243V232.894H95.0673V226.044Z" fill="#333333"/>
<path d="M95.0673 237.295H88.1243V244.146H95.0673V237.295Z" fill="#333333"/>
<path d="M95.0673 248.559H88.1243V255.41H95.0673V248.559Z" fill="#333333"/>
<path d="M95.0673 259.81H88.1243V266.661H95.0673V259.81Z" fill="#333333"/>
<path d="M95.0673 271.061H88.1243V277.912H95.0673V271.061Z" fill="#333333"/>
<path d="M95.0673 282.325H88.1243V289.176H95.0673V282.325Z" fill="#333333"/>
</g>
<defs>
<clipPath id="clip0_3125_556">
<rect width="500" height="500" fill="white"/>
</clipPath>
</defs>
</svg>
